<?xml version="1.0" encoding="UTF-8"?>
<svg width="14px" height="10px" viewBox="0 0 14 10" version="1.1" xmlns="http://www.w3.org/2000/svg" xmlns:xlink="http://www.w3.org/1999/xlink">
	<!-- Generator: Sketch 49 (51002) - http://www.bohemiancoding.com/sketch -->
	<title>Folder open</title>
	<desc>Created with Sketch.</desc>
	<defs></defs>
	<g id="Folder-open" stroke="none" stroke-width="1" fill="none" fill-rule="evenodd">
		<path d="M1,0 L1,3 L0,3 L0,3.539 L1.077,10 L12.924,10 L14.001,3.539 L14.001,3 L13,3 L13,1 L6.707,1 L5.707,0 L1,0 Z M2,1 L5.293,1 L6.293,2 L12,2 L12,3 L2,3 L2,1 Z M1.09,4 L12.911,4 L12.076,9 L1.924,9 L1.09,4 Z M5.001,5.5 L7,7.5 L9,5.5 L5.001,5.5 Z" id="Page-1-Copy-2" fill="#70A130"></path>
	</g>
</svg>