<svg xmlns="http://www.w3.org/2000/svg" viewBox="0 0 24 24"><title>Asset 156</title><g id="Layer_2" data-name="Layer 2"><g id="Layer_1-2" data-name="Layer 1"><path d="M11.91,22,7.41,9.73a1.5,1.5,0,0,0-2.82,0L.09,22A1.52,1.52,0,0,0,1,23.91,1.52,1.52,0,0,0,2.91,23l.74-2h4.7l.74,2a1.52,1.52,0,0,0,1.41,1,1.58,1.58,0,0,0,.52-.09A1.51,1.51,0,0,0,11.91,22ZM4.38,19,6,14.6,7.62,19Zm19.56,3.09-6-21a1.5,1.5,0,0,0-2.88,0L10.79,16l1.75,4.78L13.35,18h6.3l1.41,4.91A1.5,1.5,0,0,0,22.5,24a1.45,1.45,0,0,0,.41-.06A1.49,1.49,0,0,0,23.94,22.09ZM14.2,15l2.3-8,2.3,8Z"/></g></g></svg>