<svg xmlns="http://www.w3.org/2000/svg" viewBox="0 0 24 24"><title>Asset 72</title><g id="Layer_2" data-name="Layer 2"><g id="Layer_1-2" data-name="Layer 1"><rect y="12" width="12" height="12"/><path d="M3,11a1,1,0,0,0,1-1V9.5a1,1,0,0,0-2,0V10A1,1,0,0,0,3,11Z"/><path d="M3,6.94a1,1,0,0,0,1-1V5.06a1,1,0,1,0-2,0v.88A1,1,0,0,0,3,6.94Z"/><path d="M3,2.5a1,1,0,0,0,.91-.59A1,1,0,0,0,4.5,1a1,1,0,0,0-1-1H3A1,1,0,0,0,2,1v.5A1,1,0,0,0,3,2.5Z"/><path d="M17.5,2h1a1,1,0,0,0,0-2h-1a1,1,0,0,0,0,2Z"/><path d="M7.5,2h1a1,1,0,0,0,0-2h-1a1,1,0,0,0,0,2Z"/><path d="M14.5,1a1,1,0,0,0-1-1h-1a1,1,0,0,0,0,2h1A1,1,0,0,0,14.5,1Z"/><path d="M23,0h-.5a1,1,0,0,0-1,1,1,1,0,0,0,.59.91A1,1,0,0,0,23,2.5a1,1,0,0,0,1-1V1A1,1,0,0,0,23,0Z"/><path d="M23,9.5a1,1,0,0,0-1,1v1a1,1,0,0,0,2,0v-1A1,1,0,0,0,23,9.5Z"/><path d="M23,14.5a1,1,0,0,0-1,1v1a1,1,0,0,0,2,0v-1A1,1,0,0,0,23,14.5Z"/><path d="M23,4.5a1,1,0,0,0-1,1v1a1,1,0,0,0,2,0v-1A1,1,0,0,0,23,4.5Z"/><path d="M23,19.5a1,1,0,0,0-.91.59,1,1,0,0,0-.59.91,1,1,0,0,0,1,1H23a1,1,0,0,0,1-1v-.5A1,1,0,0,0,23,19.5Z"/><path d="M18.94,20h-.88a1,1,0,0,0,0,2h.88a1,1,0,0,0,0-2Z"/><path d="M14.5,20H14a1,1,0,0,0,0,2h.5a1,1,0,0,0,0-2Z"/><polygon points="14 5 17.59 5 13.29 9.29 14.71 10.71 19 6.41 19 10 21 10 21 3 14 3 14 5"/></g></g></svg>