<svg xmlns="http://www.w3.org/2000/svg" viewBox="0 0 16 16"><title>Asset 113</title><g id="Layer_2" data-name="Layer 2"><g id="Layer_1-2" data-name="Layer 1"><path d="M15.5,13.25a.5.5,0,0,0-.5.5V14h-.25a.5.5,0,0,0,0,1H16V13.75A.5.5,0,0,0,15.5,13.25Z"/><path d="M12.75,14h-1.5a.5.5,0,0,0,0,1h1.5a.5.5,0,0,0,0-1Z"/><path d="M9.25,14H8V8H2V6.75a.5.5,0,0,0-1,0V8H0v8H8V15H9.25a.5.5,0,0,0,0-1Z"/><path d="M1.5,5.25a.5.5,0,0,0,.5-.5V3.25a.5.5,0,0,0-1,0v1.5A.5.5,0,0,0,1.5,5.25Z"/><path d="M1.5,1.75a.5.5,0,0,0,.5-.5V1h.25a.5.5,0,0,0,.5-.5.5.5,0,0,0-.5-.5H1V1.25A.5.5,0,0,0,1.5,1.75Z"/><path d="M12.75,0h-1.5a.5.5,0,0,0-.5.5.5.5,0,0,0,.5.5h1.5a.5.5,0,0,0,.5-.5A.5.5,0,0,0,12.75,0Z"/><path d="M9.25,0H7.75a.5.5,0,0,0-.5.5.5.5,0,0,0,.5.5h1.5a.5.5,0,0,0,.5-.5A.5.5,0,0,0,9.25,0Z"/><path d="M4.25,1h1.5a.5.5,0,0,0,.5-.5.5.5,0,0,0-.5-.5H4.25a.5.5,0,0,0-.5.5A.5.5,0,0,0,4.25,1Z"/><path d="M14.75,0a.5.5,0,0,0-.5.5.5.5,0,0,0,.5.5H15v.25a.5.5,0,0,0,1,0V0Z"/><path d="M15.5,2.75a.5.5,0,0,0-.5.5v1.5a.5.5,0,0,0,1,0V3.25A.5.5,0,0,0,15.5,2.75Z"/><path d="M15.5,6.25a.5.5,0,0,0-.5.5v1.5a.5.5,0,0,0,1,0V6.75A.5.5,0,0,0,15.5,6.25Z"/><path d="M15.5,9.75a.5.5,0,0,0-.5.5v1.5a.5.5,0,0,0,1,0v-1.5A.5.5,0,0,0,15.5,9.75Z"/><polygon points="9 2 9 3 12.29 3 8.65 6.65 9.35 7.35 13 3.71 13 7 14 7 14 2 9 2"/></g></g></svg>