<?xml version="1.0"?>
<svg xmlns="http://www.w3.org/2000/svg" xmlns:xlink="http://www.w3.org/1999/xlink" version="1.1" viewBox="0 0 192 192" width="90px" height="90px"><g fill="none" fill-rule="nonzero" stroke="none" stroke-width="1" stroke-linecap="butt" stroke-linejoin="miter" stroke-miterlimit="10" stroke-dasharray="" stroke-dashoffset="0" font-family="none" font-weight="none" font-size="none" text-anchor="none" style="mix-blend-mode: normal"><path d="M0,192v-192h192v192z" fill="none"/><g fill="#ffffff"><path d="M140.8,12.8375c-9.84038,0 -19.67808,3.74058 -27.15,11.2125l-12.8,12.8c-10.92988,10.92989 -13.803,26.86717 -8.725,40.475c0.74993,2.2086 2.64191,3.83442 4.9382,4.2435c2.2963,0.40908 4.63333,-0.46335 6.09983,-2.2771c1.4665,-1.81375 1.83027,-4.28165 0.94947,-6.4414c-3.39559,-9.09936 -1.54821,-19.61428 5.7875,-26.95l12.8,-12.8c10.05456,-10.05456 26.14544,-10.05456 36.2,0c10.05456,10.05456 10.05456,26.14544 0,36.2l-12.8,12.8c-7.33571,7.33571 -17.86314,9.17059 -26.9625,5.775c-2.14368,-0.79974 -4.55118,-0.39498 -6.31548,1.06179c-1.7643,1.45677 -2.61732,3.74418 -2.23767,6.00046c0.37965,2.25628 1.93426,4.13858 4.07815,4.93775c13.60783,5.078 29.55761,2.20488 40.4875,-8.725l12.8,-12.8c14.94384,-14.94385 14.94384,-39.35616 0,-54.3c-7.47193,-7.47192 -17.30962,-11.2125 -27.15,-11.2125zM70.3,25.5125c-3.5297,0.05517 -6.34834,2.9577 -6.3,6.4875v19.2c-0.03264,2.30807 1.18,4.45492 3.17359,5.61848c1.99358,1.16356 4.45924,1.16356 6.45283,0c1.99358,-1.16356 3.20623,-3.31041 3.17359,-5.61848v-19.2c0.02369,-1.72992 -0.65393,-3.39575 -1.87846,-4.61793c-1.22453,-1.22218 -2.89166,-1.89659 -4.62154,-1.86957zM32,64c-2.30807,-0.03264 -4.45492,1.18 -5.61848,3.17359c-1.16356,1.99358 -1.16356,4.45924 0,6.45283c1.16356,1.99358 3.31041,3.20623 5.61848,3.17359h19.2c2.30807,0.03264 4.45492,-1.18 5.61848,-3.17359c1.16356,-1.99358 1.16356,-4.45924 0,-6.45283c-1.16356,-1.99358 -3.31041,-3.20623 -5.61848,-3.17359zM61.425,89.775c-1.79128,0.11276 -3.57401,0.35025 -5.3375,0.7125c-7.05394,1.44897 -13.77256,4.89756 -19.2375,10.3625l-12.8,12.8c-14.94384,14.94385 -14.94384,39.35616 0,54.30001c14.94384,14.94384 39.35616,14.94384 54.3,0l12.8,-12.8c10.92988,-10.92989 13.803,-26.86717 8.725,-40.475c-0.74993,-2.2086 -2.64191,-3.83442 -4.9382,-4.2435c-2.2963,-0.40908 -4.63333,0.46335 -6.09983,2.2771c-1.4665,1.81375 -1.83027,4.28165 -0.94947,6.4414c3.39559,9.09936 1.54821,19.61428 -5.7875,26.95l-12.8,12.8c-10.05456,10.05456 -26.14544,10.05456 -36.2,0c-10.05456,-10.05456 -10.05456,-26.14544 0,-36.2l12.8,-12.8c7.33571,-7.33571 17.86313,-9.17059 26.9625,-5.775c2.14368,0.79974 4.55118,0.39498 6.31548,-1.06179c1.7643,-1.45677 2.61732,-3.74418 2.23767,-6.00046c-0.37965,-2.25628 -1.93426,-4.13858 -4.07815,-4.93775c-5.10294,-1.90425 -10.53864,-2.68829 -15.9125,-2.35zM140.8,115.2c-2.30807,-0.03264 -4.45492,1.18 -5.61848,3.17359c-1.16356,1.99358 -1.16356,4.45924 0,6.45283c1.16356,1.99358 3.31041,3.20623 5.61848,3.17359h19.2c2.30807,0.03264 4.45492,-1.18 5.61848,-3.17359c1.16356,-1.99358 1.16356,-4.45924 0,-6.45283c-1.16356,-1.99358 -3.31041,-3.20623 -5.61848,-3.17359zM121.5,134.3125c-3.5297,0.05517 -6.34834,2.9577 -6.3,6.4875v19.2c-0.03264,2.30807 1.18,4.45492 3.17359,5.61848c1.99358,1.16356 4.45924,1.16356 6.45283,0c1.99358,-1.16356 3.20623,-3.31041 3.17359,-5.61848v-19.2c0.02369,-1.72992 -0.65393,-3.39575 -1.87846,-4.61793c-1.22453,-1.22218 -2.89166,-1.89659 -4.62154,-1.86957z"/></g></g></svg>
