<svg xmlns="http://www.w3.org/2000/svg" viewBox="0 0 24 24"><defs><style>.cls-1{fill:none;}</style></defs><title>Asset 66</title><g id="Layer_2" data-name="Layer 2"><g id="Layer_1-2" data-name="Layer 1"><path d="M20.88,13.38A9,9,0,0,0,21,12a9,9,0,0,0-.12-1.38L23.3,9.46a.51.51,0,0,0,.28-.58A12.42,12.42,0,0,0,22.39,6a.5.5,0,0,0-.6-.22l-2.53.89a9.29,9.29,0,0,0-2-1.95l.9-2.53a.5.5,0,0,0-.22-.6A12,12,0,0,0,15.12.42a.51.51,0,0,0-.58.28L13.38,3.12A9,9,0,0,0,12,3a9,9,0,0,0-1.38.12L9.46.7A.51.51,0,0,0,8.88.42,12,12,0,0,0,6,1.61a.5.5,0,0,0-.22.6l.9,2.53a9.29,9.29,0,0,0-2,2L2.21,5.8a.5.5,0,0,0-.6.22A12.42,12.42,0,0,0,.42,8.88a.51.51,0,0,0,.28.58l2.42,1.16A9,9,0,0,0,3,12a9,9,0,0,0,.12,1.38L.7,14.54a.51.51,0,0,0-.28.58A12.42,12.42,0,0,0,1.61,18a.5.5,0,0,0,.6.22l2.53-.89a9.48,9.48,0,0,0,2,2L5.8,21.79a.5.5,0,0,0,.22.6,12.42,12.42,0,0,0,2.86,1.19.51.51,0,0,0,.58-.28l1.16-2.42A9,9,0,0,0,12,21a9,9,0,0,0,1.38-.12l1.16,2.42a.51.51,0,0,0,.58.28A12.42,12.42,0,0,0,18,22.39a.5.5,0,0,0,.22-.6l-.89-2.53a9.48,9.48,0,0,0,2-2l2.53.89a.5.5,0,0,0,.6-.22,12.42,12.42,0,0,0,1.19-2.86.51.51,0,0,0-.28-.58ZM12,17a5,5,0,1,1,5-5A5,5,0,0,1,12,17Z"/><rect class="cls-1" width="24" height="24"/></g></g></svg>