<?xml version="1.0" encoding="UTF-8"?>
<svg width="24px" height="24px" viewBox="0 0 24 24" version="1.1" xmlns="http://www.w3.org/2000/svg" xmlns:xlink="http://www.w3.org/1999/xlink">
    <!-- Generator: Sketch 50 (54983) - http://www.bohemiancoding.com/sketch -->
    <title>Page 1</title>
    <desc>Created with Sketch.</desc>
    <defs></defs>
    <g id="Page-1" stroke="none" stroke-width="1" fill="none" fill-rule="evenodd">
        <path d="M23,2 C23,1.447 22.553,1 22,1 C21.447,1 21,1.447 21,2 C21,2.553 21.447,3 22,3 C22.553,3 23,2.553 23,2 Z M22.5,15.5 C22.5,14.397 21.603,13.5 20.5,13.5 C19.397,13.5 18.5,14.397 18.5,15.5 C18.5,16.603 19.397,17.5 20.5,17.5 C21.603,17.5 22.5,16.603 22.5,15.5 Z M7,15 L17,15 L17,14 L7,14 L7,15 Z M7,17 L17,17 L17,16 L7,16 L7,17 Z M7,19 L17,19 L17,18 L7,18 L7,19 Z M5.5,15.5 C5.5,14.397 4.603,13.5 3.5,13.5 C2.397,13.5 1.5,14.397 1.5,15.5 C1.5,16.603 2.397,17.5 3.5,17.5 C4.603,17.5 5.5,16.603 5.5,15.5 Z M2,3 C2.553,3 3,2.553 3,2 C3,1.447 2.553,1 2,1 C1.447,1 1,1.447 1,2 C1,2.553 1.447,3 2,3 Z M4,2 C4,2.553 4.447,3 5,3 C5.553,3 6,2.553 6,2 C6,1.447 5.553,1 5,1 C4.447,1 4,1.447 4,2 Z M8,3 L16,3 L16,1 L8,1 L8,3 Z M2,12 L22,12 L22,4 L2,4 L2,12 Z M18,2 C18,2.553 18.447,3 19,3 C19.553,3 20,2.553 20,2 C20,1.447 19.553,1 19,1 C18.447,1 18,1.447 18,2 Z M24,2 L24,9 L24,21 L0,21 L0,9 L0,2 C0,0.896 0.896,0 2,0 L22,0 C23.104,0 24,0.896 24,2 Z M20,24 L24,24 L24,22 L20,22 L20,24 Z M0,24 L4,24 L4,22 L0,22 L0,24 Z" fill="#999999"></path>
    </g>
</svg>