<svg xmlns="http://www.w3.org/2000/svg" viewBox="0 0 24 24"><defs><style>.cls-1{fill:#fff;}</style></defs><title>data_source</title><g id="Layer_2" data-name="Layer 2"><g id="Layer_1-2" data-name="Layer 1"><path class="cls-1" d="M1.13,6.4A6.27,6.27,0,0,0,2,7C4.18,8.21,7.84,9,12,9s7.82-.79,10-2a6.27,6.27,0,0,0,.89-.6A2.54,2.54,0,0,0,24,4.5C24,2,18.63,0,12,0S0,2,0,4.5A2.54,2.54,0,0,0,1.13,6.4Z"/><path class="cls-1" d="M0,16.71V19.5C0,22,5.37,24,12,24s12-2,12-4.5V16.71C21.91,18.86,16.84,20,12,20S2.09,18.86,0,16.71Z"/><path class="cls-1" d="M22.87,12.6C20.39,14.17,16.12,15,12,15s-8.39-.83-10.87-2.4A6.68,6.68,0,0,1,.31,12c-.12-.1-.21-.21-.31-.31V14.5C0,17,5.37,19,12,19s12-2,12-4.5V11.69c-.1.1-.19.21-.31.31A6.68,6.68,0,0,1,22.87,12.6Z"/><path class="cls-1" d="M22.87,7.6a15.76,15.76,0,0,1-5.38,1.9A29.9,29.9,0,0,1,12,10a29.9,29.9,0,0,1-5.49-.5A15.76,15.76,0,0,1,1.13,7.6,6.68,6.68,0,0,1,.31,7C.19,6.9.1,6.79,0,6.69V9.5a2.54,2.54,0,0,0,1.13,1.9A6.27,6.27,0,0,0,2,12c2.16,1.21,5.82,2,10,2s7.82-.79,10-2a6.27,6.27,0,0,0,.89-.6A2.54,2.54,0,0,0,24,9.5V6.69c-.1.1-.19.21-.31.31A6.68,6.68,0,0,1,22.87,7.6Z"/></g></g></svg>