<?xml version="1.0" encoding="UTF-8"?>
<svg width="24px" height="24px" viewBox="0 0 24 24" version="1.1" xmlns="http://www.w3.org/2000/svg" xmlns:xlink="http://www.w3.org/1999/xlink">
    <!-- Generator: Sketch 50.2 (55047) - http://www.bohemiancoding.com/sketch -->
    <title>Page 1</title>
    <desc>Created with Sketch.</desc>
    <defs></defs>
    <g id="UI-Wireframes" stroke="none" stroke-width="1" fill="none" fill-rule="evenodd">
        <g id="iPhone-8-Copy-7" transform="translate(-18.000000, -139.000000)" fill="#FFFFFF">
            <path d="M18,139 L18,145 L19,145 L19,140 L41,140 L41,145 L42,145 L42,139 L18,139 Z M35,151.001 L42,151.001 L42,147 L35,147 L35,151.001 Z M18,151.001 L33,151.001 L33,147 L18,147 L18,151.001 Z M35,157 L42,157 L42,153 L35,153 L35,157 Z M18,157 L33,157 L33,153 L18,153 L18,157 Z M35,163 L42,163 L42,159 L35,159 L35,163 Z M18,163 L33,163 L33,159 L18,159 L18,163 Z" id="Page-1"></path>
        </g>
    </g>
</svg>