<svg xmlns="http://www.w3.org/2000/svg" xmlns:xlink="http://www.w3.org/1999/xlink" viewBox="0 0 24 24"><defs><style>.a{fill:#fff;}.b{clip-path:url(#a);}</style><clipPath id="a"><path d="M-173,105.88A5.32,5.32,0,0,1-175.91,99,5.28,5.28,0,0,1-169,96.1a5.25,5.25,0,0,1,2.86,6.91A5.29,5.29,0,0,1-173,105.88Zm12.85,1.21,1.14-2.76a.73.73,0,0,0-.35-.94l-2.56-1.26a8.32,8.32,0,0,0,0-2.23l2.56-1.29a.73.73,0,0,0,.35-.94l-1.14-2.76a.73.73,0,0,0-.91-.43l-2.7.91a8.82,8.82,0,0,0-1.6-1.57l.91-2.71a.71.71,0,0,0-.43-.91l-2.76-1.14a.71.71,0,0,0-.93.35L-169.89,92a8.25,8.25,0,0,0-2.22,0l-1.29-2.56a.73.73,0,0,0-.94-.35l-2.76,1.14a.78.78,0,0,0-.43.91l.91,2.71a9.71,9.71,0,0,0-1.57,1.57l-2.7-.91a.71.71,0,0,0-.91.43l-1.14,2.76a.73.73,0,0,0,.35.94l2.56,1.26a8.33,8.33,0,0,0,0,2.23l-2.56,1.29a.73.73,0,0,0-.35.94l1.14,2.76a.76.76,0,0,0,.91.43l2.7-.91a8.82,8.82,0,0,0,1.6,1.57l-.91,2.71a.7.7,0,0,0,.43.91l2.76,1.14a.71.71,0,0,0,.93-.35l1.27-2.56a8.25,8.25,0,0,0,2.22,0l1.29,2.56a.73.73,0,0,0,.94.35l2.76-1.14a.78.78,0,0,0,.43-.91l-.91-2.71a9.71,9.71,0,0,0,1.57-1.57l2.7.91A.76.76,0,0,0-160.2,107.09Z"/></clipPath></defs><title>icon-Log Out</title><polygon class="a" points="24 23.18 10 20.85 10 15 12 15 12 19.15 22 20.82 22 3.18 12 4.85 12 9 10 9 10 3.15 24 0.82 24 23.18"/><polygon class="a" points="17 11 4.41 11 6.71 8.71 5.29 7.29 0.59 12 5.29 16.71 6.71 15.29 4.41 13 17 13 17 11"/><path d="M-173,105.88A5.32,5.32,0,0,1-175.91,99,5.28,5.28,0,0,1-169,96.1a5.25,5.25,0,0,1,2.86,6.91A5.29,5.29,0,0,1-173,105.88Zm12.85,1.21,1.14-2.76a.73.73,0,0,0-.35-.94l-2.56-1.26a8.32,8.32,0,0,0,0-2.23l2.56-1.29a.73.73,0,0,0,.35-.94l-1.14-2.76a.73.73,0,0,0-.91-.43l-2.7.91a8.82,8.82,0,0,0-1.6-1.57l.91-2.71a.71.71,0,0,0-.43-.91l-2.76-1.14a.71.71,0,0,0-.93.35L-169.89,92a8.25,8.25,0,0,0-2.22,0l-1.29-2.56a.73.73,0,0,0-.94-.35l-2.76,1.14a.78.78,0,0,0-.43.91l.91,2.71a9.71,9.71,0,0,0-1.57,1.57l-2.7-.91a.71.71,0,0,0-.91.43l-1.14,2.76a.73.73,0,0,0,.35.94l2.56,1.26a8.33,8.33,0,0,0,0,2.23l-2.56,1.29a.73.73,0,0,0-.35.94l1.14,2.76a.76.76,0,0,0,.91.43l2.7-.91a8.82,8.82,0,0,0,1.6,1.57l-.91,2.71a.7.7,0,0,0,.43.91l2.76,1.14a.71.71,0,0,0,.93-.35l1.27-2.56a8.25,8.25,0,0,0,2.22,0l1.29,2.56a.73.73,0,0,0,.94.35l2.76-1.14a.78.78,0,0,0,.43-.91l-.91-2.71a9.71,9.71,0,0,0,1.57-1.57l2.7.91A.76.76,0,0,0-160.2,107.09Z"/><g class="b"><rect x="-201" y="-230" width="1440" height="900"/></g></svg>