<svg xmlns="http://www.w3.org/2000/svg" xmlns:xlink="http://www.w3.org/1999/xlink" viewBox="0 0 24 24"><defs><style>.a{clip-path:url(#a);}.b{fill:#fff;}</style><clipPath id="a"><path d="M-129-44.12A5.32,5.32,0,0,1-131.91-51,5.28,5.28,0,0,1-125-53.9,5.25,5.25,0,0,1-122.14-47,5.29,5.29,0,0,1-129-44.12Zm12.85,1.21,1.14-2.76a.73.73,0,0,0-.35-.94L-118-47.87a8.32,8.32,0,0,0,0-2.23l2.56-1.29a.73.73,0,0,0,.35-.94l-1.14-2.76a.73.73,0,0,0-.91-.43l-2.7.91a8.82,8.82,0,0,0-1.6-1.57l.91-2.71a.71.71,0,0,0-.43-.91l-2.76-1.14a.71.71,0,0,0-.93.35L-125.89-58a8.25,8.25,0,0,0-2.22,0l-1.29-2.56a.73.73,0,0,0-.94-.35l-2.76,1.14a.78.78,0,0,0-.43.91l.91,2.71a9.71,9.71,0,0,0-1.57,1.57l-2.7-.91a.71.71,0,0,0-.91.43l-1.14,2.76a.73.73,0,0,0,.35.94l2.56,1.26a8.33,8.33,0,0,0,0,2.23l-2.56,1.29a.73.73,0,0,0-.35.94l1.14,2.76a.76.76,0,0,0,.91.43l2.7-.91a8.82,8.82,0,0,0,1.6,1.57l-.91,2.71a.7.7,0,0,0,.43.91l2.76,1.14a.71.71,0,0,0,.93-.35l1.27-2.56a8.25,8.25,0,0,0,2.22,0l1.29,2.56a.73.73,0,0,0,.94.35l2.76-1.14a.78.78,0,0,0,.43-.91l-.91-2.71a9.71,9.71,0,0,0,1.57-1.57l2.7.91A.76.76,0,0,0-116.2-42.91Z"/></clipPath></defs><title>icon-ellipsis</title><path d="M-129-44.12A5.32,5.32,0,0,1-131.91-51,5.28,5.28,0,0,1-125-53.9,5.25,5.25,0,0,1-122.14-47,5.29,5.29,0,0,1-129-44.12Zm12.85,1.21,1.14-2.76a.73.73,0,0,0-.35-.94L-118-47.87a8.32,8.32,0,0,0,0-2.23l2.56-1.29a.73.73,0,0,0,.35-.94l-1.14-2.76a.73.73,0,0,0-.91-.43l-2.7.91a8.82,8.82,0,0,0-1.6-1.57l.91-2.71a.71.71,0,0,0-.43-.91l-2.76-1.14a.71.71,0,0,0-.93.35L-125.89-58a8.25,8.25,0,0,0-2.22,0l-1.29-2.56a.73.73,0,0,0-.94-.35l-2.76,1.14a.78.78,0,0,0-.43.91l.91,2.71a9.71,9.71,0,0,0-1.57,1.57l-2.7-.91a.71.71,0,0,0-.91.43l-1.14,2.76a.73.73,0,0,0,.35.94l2.56,1.26a8.33,8.33,0,0,0,0,2.23l-2.56,1.29a.73.73,0,0,0-.35.94l1.14,2.76a.76.76,0,0,0,.91.43l2.7-.91a8.82,8.82,0,0,0,1.6,1.57l-.91,2.71a.7.7,0,0,0,.43.91l2.76,1.14a.71.71,0,0,0,.93-.35l1.27-2.56a8.25,8.25,0,0,0,2.22,0l1.29,2.56a.73.73,0,0,0,.94.35l2.76-1.14a.78.78,0,0,0,.43-.91l-.91-2.71a9.71,9.71,0,0,0,1.57-1.57l2.7.91A.76.76,0,0,0-116.2-42.91Z"/><g class="a"><rect x="-157" y="-380" width="1440" height="900"/></g><circle class="b" cx="12" cy="12" r="3"/><circle class="b" cx="3" cy="12" r="3"/><circle class="b" cx="21" cy="12" r="3"/></svg>