<?xml version="1.0" encoding="utf-8"?>
<!-- Generator: Adobe Illustrator 22.0.1, SVG Export Plug-In . SVG Version: 6.00 Build 0)  -->
<svg version="1.1" id="Layer_1" xmlns="http://www.w3.org/2000/svg" xmlns:xlink="http://www.w3.org/1999/xlink" x="0px" y="0px"
	 viewBox="0 0 24 24" style="enable-background:new 0 0 24 24;" xml:space="preserve">
<style type="text/css">
	.st0{fill:#FFFFFF;}
</style>
<title>icon-Settings</title>
<path class="st0" d="M21.1,13.5c-0.1-0.1-0.2-0.2-0.2-0.4c0.1-0.7,0.1-1.5,0-2.2c0-0.2,0.1-0.3,0.2-0.4l2.3-1.1
	c0.2-0.1,0.2-0.2,0.2-0.4c-0.3-1.1-0.7-2.1-1.3-3.1c-0.1-0.2-0.3-0.2-0.5-0.2l-2.4,0.8c-0.2,0-0.3,0-0.4-0.1c-0.5-0.6-1-1.1-1.6-1.6
	c-0.1-0.1-0.2-0.3-0.1-0.4l0.8-2.4c0.1-0.2,0-0.4-0.2-0.5c-1-0.6-2-1-3.1-1.3c-0.2,0-0.4,0-0.4,0.2l-1.1,2.3
	c-0.1,0.1-0.2,0.2-0.4,0.2c-0.7-0.1-1.5-0.1-2.2,0c-0.2,0-0.3-0.1-0.4-0.2L9.4,0.6C9.3,0.4,9.2,0.4,9,0.4C7.9,0.7,6.9,1.1,5.9,1.7
	C5.8,1.8,5.7,1.9,5.8,2.1l0.8,2.4c0,0.2,0,0.3-0.1,0.4c-0.6,0.5-1.1,1-1.6,1.6C4.8,6.6,4.6,6.7,4.5,6.6L2.1,5.8
	c-0.2-0.1-0.4,0-0.5,0.2c-0.6,1-1,2-1.3,3.1c0,0.2,0,0.4,0.2,0.4l2.3,1.1c0.1,0.1,0.2,0.2,0.2,0.4c-0.1,0.7-0.1,1.5,0,2.2
	c0,0.2-0.1,0.3-0.2,0.4l-2.3,1.1c-0.2,0.1-0.2,0.2-0.2,0.4c0.3,1.1,0.7,2.1,1.3,3c0.1,0.2,0.3,0.2,0.4,0.2l2.4-0.8
	c0.2,0,0.3,0,0.4,0.1c0.5,0.6,1,1.1,1.6,1.6c0.1,0.1,0.2,0.3,0.1,0.4l-0.8,2.4c-0.1,0.2,0,0.4,0.2,0.5c1,0.6,2,1,3.1,1.3
	c0.2,0,0.4,0,0.4-0.2l1.1-2.3c0.1-0.1,0.2-0.2,0.4-0.2c0.7,0.1,1.5,0.1,2.2,0c0.2,0,0.3,0.1,0.4,0.2l1.1,2.3
	c0.1,0.2,0.3,0.2,0.4,0.2c1.1-0.3,2.1-0.7,3.1-1.3c0.2-0.1,0.2-0.3,0.2-0.5l-0.8-2.4c0-0.2,0-0.3,0.1-0.4c0.6-0.5,1.1-1,1.6-1.6
	c0.1-0.1,0.3-0.2,0.4-0.1l2.4,0.8c0.2,0.1,0.4,0,0.5-0.2c0.6-1,1-2,1.2-3.1c0-0.2,0-0.4-0.2-0.4L21.1,13.5z M12,17c-2.8,0-5-2.2-5-5
	s2.2-5,5-5s5,2.2,5,5S14.8,17,12,17z"/>
</svg>
