<svg xmlns="http://www.w3.org/2000/svg" viewBox="0 0 24 24"><defs><style>.cls-1{fill:#fff;}</style></defs><title>map_canvas</title><g id="Layer_2" data-name="Layer 2"><g id="Layer_1-2" data-name="Layer 1"><polygon class="cls-1" points="15.5 20.12 13.12 22.5 14.62 24 19.38 24 15.5 20.12"/><polygon class="cls-1" points="5.29 11.29 5.98 10.6 0 4.62 0 16.59 5.29 11.29"/><path class="cls-1" d="M16.21,18,24,10.21V8.81h0L15.5,17.29,9,10.76l-.8.62L14.79,18,11,21.79l-.15-.14-.56-.56L8.35,19.15h0a1.46,1.46,0,0,0,.16-.66A1.5,1.5,0,1,0,7,20a1.46,1.46,0,0,0,.66-.16h0l1.94,1.94.56.56.14.15L8.79,24h1.42l.79-.79.21.2.5.5.08.09h1.42l-.8-.79-.5-.5-.2-.21,3.79-3.79,5.22,5.22a4.2,4.2,0,0,0,1.05-.36ZM7,19a.5.5,0,1,1,.5-.5A.5.5,0,0,1,7,19Z"/><path class="cls-1" d="M7.4,9.19l-7-7a4.2,4.2,0,0,0-.36,1L6.69,9.9Z"/><path class="cls-1" d="M13,6.44a17.35,17.35,0,0,1,11,.27V4a4,4,0,0,0-4-4h-.59Z"/><path class="cls-1" d="M8.1,8.48,16.59,0H4A4,4,0,0,0,1,1.38Z"/><path class="cls-1" d="M7.34,21c-.11,0-.22,0-.34,0a2.5,2.5,0,1,1,2.5-2.5c0,.12,0,.23,0,.34L11,20.38,13.38,18l-6-6c-.24.23-.48.45-.7.68L0,19.41V20a4,4,0,0,0,4,4H7.38l1.5-1.5Z"/><path class="cls-1" d="M24,20V11.62L17.62,18l5,5A4,4,0,0,0,24,20Z"/><path class="cls-1" d="M22.93,8.45A15.08,15.08,0,0,0,9.81,10.18l5.69,5.7Z"/></g></g></svg>