<svg xmlns="http://www.w3.org/2000/svg" viewBox="0 0 24 24"><defs><style>.cls-1{fill:#fff;}.cls-2{fill:none;}</style></defs><title>message_center</title><g id="Layer_2" data-name="Layer 2"><g id="Layer_1-2" data-name="Layer 1"><path class="cls-1" d="M0,23.08V6A4,4,0,0,1,4,2H20a4,4,0,0,1,4,4v8a4,4,0,0,1-4,4H6.35ZM2,6V18.92L5.65,16H20a2,2,0,0,0,2-2V6a2,2,0,0,0-2-2H4A2,2,0,0,0,2,6Z"/><rect class="cls-2" width="24" height="24"/><rect class="cls-1" x="6" y="7" width="12" height="2" rx="1" ry="1"/><rect class="cls-1" x="6" y="11" width="9" height="2" rx="1" ry="1"/></g></g></svg>