<svg xmlns="http://www.w3.org/2000/svg" viewBox="0 0 24 24"><defs><style>.cls-1{fill:#fff;}</style></defs><title>pending_approvals</title><g id="Layer_2" data-name="Layer 2"><g id="Layer_1-2" data-name="Layer 1"><path class="cls-1" d="M24,16.3V23a1,1,0,0,1-1,1H1a1,1,0,0,1-1-1V16.3a1,1,0,0,1,.17-.55l3.53-5.3A1,1,0,0,1,4.54,10H6v1H4.54L1.2,16H7.11a1,1,0,0,1,1,.83,4,4,0,0,0,7.82,0,1,1,0,0,1,1-.83H22.8l-3.34-5H18V10h1.46a1,1,0,0,1,.84.45l3.53,5.3A1,1,0,0,1,24,16.3Zm-8.46-9L13,9.83V0H11V9.83L8.46,7.29,7.05,8.71,11.29,13a1,1,0,0,0,1.42,0L17,8.71Z"/></g></g></svg>