<?xml version="1.0" encoding="UTF-8"?>
<svg width="24px" height="24px" viewBox="0 0 24 24" version="1.1" xmlns="http://www.w3.org/2000/svg" xmlns:xlink="http://www.w3.org/1999/xlink">
    <!-- Generator: Sketch 50.2 (55047) - http://www.bohemiancoding.com/sketch -->
    <title>Page 1</title>
    <desc>Created with Sketch.</desc>
    <defs></defs>
    <g id="UI-Wireframes" stroke="none" stroke-width="1" fill="none" fill-rule="evenodd">
        <g id="iPhone-8-Copy-7" transform="translate(-18.000000, -205.000000)" fill="#FFFFFF">
            <path d="M41,207 C41,206.447 40.553,206 40,206 C39.447,206 39,206.447 39,207 C39,207.553 39.447,208 40,208 C40.553,208 41,207.553 41,207 Z M40.5,220.5 C40.5,219.397 39.603,218.5 38.5,218.5 C37.397,218.5 36.5,219.397 36.5,220.5 C36.5,221.603 37.397,222.5 38.5,222.5 C39.603,222.5 40.5,221.603 40.5,220.5 Z M25,220 L35,220 L35,219 L25,219 L25,220 Z M25,222 L35,222 L35,221 L25,221 L25,222 Z M25,224 L35,224 L35,223 L25,223 L25,224 Z M23.5,220.5 C23.5,219.397 22.603,218.5 21.5,218.5 C20.397,218.5 19.5,219.397 19.5,220.5 C19.5,221.603 20.397,222.5 21.5,222.5 C22.603,222.5 23.5,221.603 23.5,220.5 Z M20,208 C20.553,208 21,207.553 21,207 C21,206.447 20.553,206 20,206 C19.447,206 19,206.447 19,207 C19,207.553 19.447,208 20,208 Z M22,207 C22,207.553 22.447,208 23,208 C23.553,208 24,207.553 24,207 C24,206.447 23.553,206 23,206 C22.447,206 22,206.447 22,207 Z M26,208 L34,208 L34,206 L26,206 L26,208 Z M20,217 L40,217 L40,209 L20,209 L20,217 Z M36,207 C36,207.553 36.447,208 37,208 C37.553,208 38,207.553 38,207 C38,206.447 37.553,206 37,206 C36.447,206 36,206.447 36,207 Z M42,207 L42,214 L42,226 L18,226 L18,214 L18,207 C18,205.896 18.896,205 20,205 L40,205 C41.104,205 42,205.896 42,207 Z M21.5,219.5 C20.948,219.5 20.5,219.948 20.5,220.5 C20.5,221.052 20.948,221.5 21.5,221.5 C22.052,221.5 22.5,221.052 22.5,220.5 C22.5,219.948 22.052,219.5 21.5,219.5 Z M38.5,219.5 C37.948,219.5 37.5,219.948 37.5,220.5 C37.5,221.052 37.948,221.5 38.5,221.5 C39.052,221.5 39.5,221.052 39.5,220.5 C39.5,219.948 39.052,219.5 38.5,219.5 Z M38,229 L42,229 L42,227 L38,227 L38,229 Z M18,229 L22,229 L22,227 L18,227 L18,229 Z" id="Page-1"></path>
        </g>
    </g>
</svg>