<svg xmlns="http://www.w3.org/2000/svg" viewBox="0 0 24 24"><defs><style>.cls-1{fill:none;}.cls-2{fill:#fff;}</style></defs><title>settings</title><g id="Layer_2" data-name="Layer 2"><g id="Layer_1-2" data-name="Layer 1"><rect class="cls-1" width="24" height="24"/><path class="cls-2" d="M23.94,10.89a.25.25,0,0,0-.23-.23l-1.82-.06a9.53,9.53,0,0,0-.62-2.33l1.53-1A.27.27,0,0,0,22.9,7a11.79,11.79,0,0,0-1.12-1.91A.25.25,0,0,0,21.46,5l-1.59.84a9.88,9.88,0,0,0-1.71-1.71L19,2.54a.25.25,0,0,0-.07-.32A11.79,11.79,0,0,0,17,1.1a.27.27,0,0,0-.33.1l-1,1.53a9.53,9.53,0,0,0-2.33-.62L13.34.3A.26.26,0,0,0,13.1.06c-.54,0-1.66,0-2.2,0a.26.26,0,0,0-.24.24L10.6,2.11a9.53,9.53,0,0,0-2.33.62l-1-1.53A.27.27,0,0,0,7,1.1,11.79,11.79,0,0,0,5.07,2.22.25.25,0,0,0,5,2.54l.84,1.59A9.88,9.88,0,0,0,4.13,5.84L2.54,5a.25.25,0,0,0-.32.07A11.79,11.79,0,0,0,1.1,7a.27.27,0,0,0,.1.33l1.53,1a9.53,9.53,0,0,0-.62,2.33L.3,10.66a.26.26,0,0,0-.24.24c0,.54,0,1.66,0,2.2a.26.26,0,0,0,.24.24l1.81.06a9.53,9.53,0,0,0,.62,2.33l-1.53,1a.27.27,0,0,0-.1.33,11.79,11.79,0,0,0,1.12,1.91.25.25,0,0,0,.32.07l1.59-.84a9.88,9.88,0,0,0,1.71,1.71L5,21.46a.25.25,0,0,0,.07.32A11.79,11.79,0,0,0,7,22.9a.27.27,0,0,0,.33-.1l1-1.53a9.53,9.53,0,0,0,2.33.62l.06,1.81a.26.26,0,0,0,.24.24c.54,0,1.66,0,2.2,0a.26.26,0,0,0,.24-.24l.06-1.81a9.53,9.53,0,0,0,2.33-.62l1,1.53a.27.27,0,0,0,.33.1,11.79,11.79,0,0,0,1.91-1.12.25.25,0,0,0,.07-.32l-.84-1.59a9.88,9.88,0,0,0,1.71-1.71l1.59.84a.25.25,0,0,0,.32-.07A11.79,11.79,0,0,0,22.9,17a.27.27,0,0,0-.1-.33l-1.53-1a9.53,9.53,0,0,0,.62-2.33l1.82-.06a.25.25,0,0,0,.23-.23C24,12.56,24,11.44,23.94,10.89ZM7.17,18.37a8,8,0,0,1,0-12.74l2.56,4.43a2.94,2.94,0,0,0,0,3.88ZM12,20a8,8,0,0,1-3.1-.62L11.45,15A3.31,3.31,0,0,0,12,15a3,3,0,0,0,2.82-2h5.11A8,8,0,0,1,12,20Zm-1-8a1,1,0,1,1,1,1A1,1,0,0,1,11,12Zm3.82-1A3,3,0,0,0,12,9a3.31,3.31,0,0,0-.55.05L8.9,4.62a8,8,0,0,1,11,6.38Z"/></g></g></svg>