<?xml version="1.0" encoding="utf-8"?>
<!-- Generator: Adobe Illustrator 22.1.0, SVG Export Plug-In . SVG Version: 6.00 Build 0)  -->
<svg version="1.1" id="Layer_1" xmlns="http://www.w3.org/2000/svg" xmlns:xlink="http://www.w3.org/1999/xlink" x="0px" y="0px"
	 viewBox="0 0 82.1 37" style="enable-background:new 0 0 82.1 37;" xml:space="preserve">
<style type="text/css">
	.st0{fill:#FFFFFF;}
	.st1{fill:#8DC63F;}
</style>
<title>Layer 2</title>
<g id="Layer_2_1_">
	<g id="Layer_1-2">
		<g id="Layer_2-2">
			<g id="Layer_1-2-2">
				<path class="st0" d="M3.6,27.9c0,0.6,0.3,1,0.8,1c0.4,0,0.8-0.3,1-0.6c0.1-0.1,0.1-0.1,0.2-0.1c0.1,0,0.1,0.1,0.1,0.1
					c0,0,0,0,0,0c0,0,0,0,0,0c-0.3,1.1-1.2,1.8-2.3,1.8c-1.4,0-2.2-0.5-2.2-2.9V15.5c0-0.1,0-0.3-0.1-0.4l-1-0.8
					C0.1,14.2,0,14.2,0,14.1s0.1-0.2,0.5-0.2c1.5-0.2,1.7-2.5,1.7-3.6c0-0.1,0.1-0.3,0.2-0.3c0,0,0,0,0,0h1c0.1,0,0.2,0.1,0.2,0.2
					v3.3c0,0.1,0,0.3,0.3,0.3h0.8c0.2,0,0.2,0.2,0,0.3L3.9,15c-0.1,0.1-0.2,0.3-0.3,0.5L3.6,27.9z"/>
				<path class="st0" d="M9.5,28.6c0,0.1,0,0.2,0,0.3l1.1,1c0.1,0,0.1,0.1,0.1,0.2c0,0.1-0.1,0.1-0.2,0.1H6.1c-0.1,0-0.2,0-0.2-0.1
					c0-0.1,0.1-0.2,0.1-0.2l1-1c0.1-0.1,0.1-0.1,0.1-0.3V15.4c0-0.1,0-0.2-0.1-0.2l-1-0.8C6,14.3,6,14.2,6,14.1C6,14,6,14,6.2,14
					h3.2c0.1,0,0.2,0.1,0.2,0.1c0,0,0,0,0,0v1h0.1c0.5-0.6,1.1-1.2,1.9-1.2c1.1,0,1.8,1.5,1.8,2.5c0,0.1,0,0.3-0.2,0.3
					c-0.1,0-0.2-0.1-0.3-0.3c-0.3-0.7-1-1.1-1.8-1.1c-1,0-1.6,1.2-1.6,2.7L9.5,28.6z"/>
				<path class="st0" d="M14.7,15.4c0-0.1,0-0.2-0.1-0.2l-1-0.8c-0.1-0.1-0.1-0.1-0.1-0.2c0-0.1,0.1-0.1,0.2-0.1h3.2
					c0.1,0,0.2,0.1,0.2,0.1c0,0,0,0,0,0v14.4c0,0.1,0,0.2,0.1,0.3l1,1c0.1,0.1,0.1,0.1,0.1,0.2c0,0.1-0.1,0.1-0.2,0.1h-4.4
					c-0.1,0-0.2,0-0.2-0.1c0-0.1,0.1-0.2,0.1-0.2l1-1c0.1-0.1,0.1-0.1,0.1-0.3L14.7,15.4z M17,9.9c0,0.8-0.5,1.5-1.2,1.5
					s-1.2-0.8-1.2-1.5c0-0.8,0.5-1.5,1.2-1.5C16.5,8.4,17,9.1,17,9.9L17,9.9z"/>
				<path class="st0" d="M19.8,15.3c0-0.1,0-0.2-0.1-0.2l-1-0.7c-0.1-0.1-0.1-0.1-0.1-0.2c0-0.1,0.1-0.1,0.2-0.1h3.2
					c0.1,0,0.2,0.1,0.2,0.1c0,0,0,0,0,0v0.9h0.1c0.6-0.6,1.4-1,2.2-1c1.4,0,3.1,0.8,3.1,7.2c-0.1,8.2-1.6,8.9-3.1,8.9
					c-0.9,0-1.7-0.4-2.2-1.1h-0.1v3.3c0,0.1,0,0.2,0,0.2l1,1c0.1,0.1,0.2,0.1,0.2,0.2S23.4,34,23.3,34h-4.5c-0.1,0-0.2,0-0.2-0.1
					c0-0.1,0.1-0.2,0.1-0.2l1-1c0.1,0,0.1-0.1,0.1-0.2L19.8,15.3z M22.2,26.8c0,1.2,0.9,2.2,1.7,2.2s1.1-0.7,1.1-7.7
					c0-5.4-0.4-6-1.2-6c-0.5,0-1.5,0.8-1.5,2.2V26.8z"/>
				<path class="st1" d="M30.3,17.1c-0.6,0-1.1-0.5-1.1-1.1c0-0.6,0.5-1.1,1.1-1.1l8-0.2c0.6,0,1.1,0.5,1.1,1c0,0.6-0.5,1.1-1,1.1
					L30.3,17.1z"/>
				<path class="st1" d="M34.4,37c-0.1,0-0.3,0-0.4-0.1c-1.2-0.5-1.9-2.1-1.9-26.8V6.3C32,3.9,33.7,1,42.2,0.2h0.2
					C43,0.1,44,0.1,45.4,0c0.6,0,1.1,0.4,1.1,1c0,0.6-0.4,1.1-1,1.1c-1.2,0.1-2.3,0.1-2.9,0.2h-0.2c-5.3,0.5-8.3,1.9-8.3,3.9v3.9
					c0,5.7,0,22.9,0.9,25.1c0.4,0.4,0.5,1.1,0.1,1.5C34.9,36.9,34.6,37,34.4,37z"/>
				<path class="st0" d="M41.1,15.5c0-0.1,0-0.2-0.1-0.2l-1-0.8c-0.1-0.1-0.1-0.1-0.1-0.2c0-0.1,0.1-0.1,0.2-0.1h3.2
					c0.1,0,0.2,0.1,0.2,0.1c0,0,0,0,0,0v14.4c0,0.1,0,0.2,0.1,0.3l1,1c0.1,0.1,0.1,0.1,0.1,0.2c0,0.1-0.1,0.1-0.2,0.1h-4.5
					c-0.1,0-0.2,0-0.2-0.1c0-0.1,0.1-0.2,0.1-0.2l1-1c0.1-0.1,0.1-0.1,0.1-0.3V15.5z"/>
				<path class="st0" d="M48.7,15.1L48.7,15.1c0.7-0.7,1.5-1,2.4-1c1.7,0,2.8,1,2.8,3v11.6c0,0.1,0,0.2,0.1,0.3l1,1
					c0.1,0.1,0.1,0.1,0.1,0.2c0,0.1-0.1,0.1-0.2,0.1h-4.5c-0.1,0-0.2,0-0.2-0.1c0-0.1,0.1-0.2,0.1-0.2l1-1c0.1-0.1,0.1-0.1,0.1-0.3
					V17c0-1.1-0.4-1.7-1.1-1.7c-0.8,0-1.7,1-1.7,2.5v10.8c0,0.1,0,0.2,0,0.3l1,1c0.1,0,0.1,0.1,0.2,0.2c0,0.1-0.1,0.1-0.2,0.1h-4.4
					c-0.1,0-0.2,0-0.2-0.1c0-0.1,0.1-0.2,0.1-0.2l1-1c0.1-0.1,0.1-0.1,0.1-0.3V15.5c0-0.1,0-0.2-0.1-0.2l-1-0.8
					c-0.1-0.1-0.1-0.1-0.1-0.2c0-0.1,0.1-0.1,0.2-0.1h3.2c0.1,0,0.2,0.1,0.2,0.2L48.7,15.1z"/>
				<path class="st0" d="M61.5,9.8c0-0.1,0-0.2-0.1-0.2l-1-0.8c-0.1,0-0.1-0.1-0.2-0.2c0-0.1,0.1-0.1,0.2-0.1h3.2
					c0.1,0,0.2,0.1,0.2,0.2v20c0,0.1,0,0.2,0,0.3l1,1c0.1,0,0.1,0.1,0.2,0.2c0,0.1-0.1,0.1-0.2,0.1h-3.1c-0.1,0-0.2-0.1-0.2-0.1v-1
					h-0.1c-0.6,0.7-1.4,1.1-2.3,1.1c-1.5,0-3-0.7-3-8.9c0-6.5,1.7-7.2,3.1-7.2c0.9,0,1.7,0.4,2.2,1h0.1L61.5,9.8z M61.5,17.5
					c0-1.4-1-2.2-1.5-2.2c-0.8,0-1.2,0.6-1.2,6c0,7,0.3,7.7,1.2,7.7c0.9,0,1.5-0.9,1.5-2.3V17.5z"/>
				<path class="st0" d="M68.8,23.9c0,3.7,0.6,5.1,2.1,5.1c1.1,0,1.7-0.5,2.4-1.4c0.1-0.1,0.1-0.1,0.2-0.1c0.1,0,0.1,0.1,0.1,0.2
					c-0.4,1.4-1.4,2.6-3.1,2.6c-3.1,0-4.4-2.6-4.4-9.1c0-4.4,1.5-7,3.8-7c2,0,3.6,1.2,3.6,5.5v1.8c0,0.2-0.1,0.3-0.3,0.3h-4.6
					L68.8,23.9z M71.3,20.6v-2.9c0-1.5-0.5-2.4-1.3-2.4c-0.9,0-1.2,0.8-1.2,2.4v2.9H71.3z"/>
				<path class="st0" d="M78.4,28.6c0,0.1,0,0.2,0,0.3l1.1,1c0.1,0,0.1,0.1,0.1,0.2c0,0.1-0.1,0.1-0.2,0.1h-4.5
					c-0.1,0-0.2,0-0.2-0.1c0-0.1,0.1-0.2,0.1-0.2l1-1c0.1-0.1,0.1-0.1,0.1-0.3V15.5c0-0.1,0-0.2-0.1-0.2l-1-0.8
					c-0.1-0.1-0.1-0.1-0.1-0.2c0-0.1,0.1-0.1,0.2-0.1h3.2c0.1,0,0.2,0.1,0.2,0.1v1h0.1c0.5-0.6,1.1-1.2,1.9-1.2
					c1.1,0,1.8,1.5,1.8,2.5c0,0.1,0,0.3-0.2,0.3c-0.1,0-0.2-0.1-0.3-0.3c-0.3-0.7-1-1.1-1.7-1.1c-1,0-1.6,1.2-1.6,2.7L78.4,28.6z"/>
				<path class="st1" d="M43.5,10c0,0.8-0.5,1.5-1.2,1.5c-0.7,0-1.2-0.8-1.2-1.5c0-0.8,0.5-1.5,1.2-1.5C43,8.4,43.5,9.2,43.5,10z"/>
			</g>
		</g>
	</g>
</g>
</svg>
