<?xml version="1.0" encoding="UTF-8"?><svg id="a" xmlns="http://www.w3.org/2000/svg" viewBox="0 0 24 24"><defs><style>.b{fill:#fff;}</style></defs><polygon class="b" points="16.74 16.15 16.74 14.83 15.7 14.83 15.7 16.15 14.38 16.15 14.38 17.18 15.7 17.18 15.7 18.5 16.74 18.5 16.74 17.18 18.05 17.18 18.05 16.15 16.74 16.15"/><path class="b" d="M16.88,12.24v-1.42L8.65,2.9,3.26,7.65v9.72H11.9c.35,2.11,2.17,3.73,4.38,3.73,2.46,0,4.46-2,4.46-4.46,0-2.25-1.69-4.1-3.86-4.4Zm-4.99,3.84H4.56v-7.84l4.06-3.57,6.97,6.71v.89c-1.93,.31-3.44,1.86-3.7,3.81Zm4.38,4.3c-2.05,0-3.72-1.66-3.72-3.72s1.66-3.72,3.72-3.72,3.72,1.66,3.72,3.72-1.66,3.72-3.72,3.72Z"/></svg>