<svg width="64" height="64" xmlns="http://www.w3.org/2000/svg">

 <g>
  <title>background</title>
  <rect fill="none" id="canvas_background" height="402" width="582" y="-1" x="-1"/>
 </g>
 <g>
  <title>Layer 1</title>
  <circle id="svg_1" fill="#ffffff" r="4" cy="36" cx="46"/>
  <circle id="svg_2" fill="#ffffff" r="4" cy="22" cx="19"/>
  <path id="svg_3" fill="#ffffff" d="m24,22c0,-2.757 -2.243,-5 -5,-5s-5,2.243 -5,5s2.243,5 5,5s5,-2.243 5,-5zm-8,0c0,-1.654 1.346,-3 3,-3s3,1.346 3,3s-1.346,3 -3,3s-3,-1.346 -3,-3z"/>
  <path id="svg_4" fill="#ffffff" d="m51,36c0,-2.757 -2.243,-5 -5,-5s-5,2.243 -5,5s2.243,5 5,5s5,-2.243 5,-5zm-8,0c0,-1.654 1.346,-3 3,-3s3,1.346 3,3s-1.346,3 -3,3s-3,-1.346 -3,-3z"/>
  <path id="svg_5" fill="#ffffff" d="m58,36c0,-6.617 -5.383,-12 -12,-12s-12,5.383 -12,12c0,6.63 4.75,13.654 8.499,17l-22.499,0c-1.103,0 -2,-0.897 -2,-2s0.897,-2 2,-2l4,0c2.206,0 4,-1.794 4,-4s-1.794,-4 -4,-4l-1.475,0c3.991,-3.365 9.475,-10.621 9.475,-19c0,-7.168 -5.832,-13 -13,-13s-13,5.832 -13,13c0,8.379 5.484,15.635 9.475,19l-9.475,0l0,2l18,0c1.103,0 2,0.897 2,2s-0.897,2 -2,2l-4,0c-2.206,0 -4,1.794 -4,4s1.794,4 4,4l38,0l0,-2l-8.499,0c3.749,-3.346 8.499,-10.37 8.499,-17zm-50,-14c0,-6.065 4.935,-11 11,-11s11,4.935 11,11c0,10.671 -9.59,18.805 -10.973,19l-0.005,0c-1.432,-0.195 -11.022,-8.329 -11.022,-19zm28,14c0,-5.514 4.486,-10 10,-10s10,4.486 10,10c0,8.507 -8.512,16.773 -9.971,17l-0.005,0c-1.512,-0.227 -10.024,-8.493 -10.024,-17z"/>
 </g>
</svg>