<?xml version="1.0" encoding="UTF-8"?><svg id="a" xmlns="http://www.w3.org/2000/svg" viewBox="0 0 24 24"><defs><style>.b{fill:#fff;}</style></defs><rect class="b" x="14.52" y="15.95" width="3.5" height="1.29"/><path class="b" d="M16.91,12.25v-1.44L8.68,2.9,3.28,7.65v9.72H11.88c.35,2.11,2.17,3.73,4.38,3.73,2.46,0,4.46-2,4.46-4.46,0-2.24-1.66-4.08-3.81-4.39Zm-5.04,3.82H4.58v-7.84l4.06-3.57,6.97,6.71v.89c-1.96,.29-3.49,1.85-3.74,3.81Zm4.4,4.25c-2.04,0-3.69-1.65-3.69-3.69s1.65-3.69,3.69-3.69,3.69,1.65,3.69,3.69-1.65,3.69-3.69,3.69Z"/></svg>