<svg xmlns="http://www.w3.org/2000/svg" viewBox="0 0 24 24"><defs><style>.cls-1{fill:none;}</style></defs><title>optimize-alt</title><g id="Layer_2" data-name="Layer 2"><g id="Layer_1-2" data-name="Layer 1"><circle cx="12" cy="12" r="2"/><path d="M20.19,12c.26-.27.5-.53.73-.8,2.19-2.61,2-4.27,1.47-5.2C22,5.32,21.09,4.5,19,4.5a12.46,12.46,0,0,0-2.9.41C15.28,2,13.9,0,12,0S8.72,2,7.9,4.91A12.46,12.46,0,0,0,5,4.5H5C2.91,4.5,2,5.32,1.61,6c-.54.93-.72,2.59,1.47,5.2.23.27.47.53.73.8-.26.27-.5.53-.73.8-2.19,2.61-2,4.27-1.47,5.2.39.68,1.3,1.5,3.39,1.5a12.46,12.46,0,0,0,2.9-.41C8.72,22,10.1,24,12,24s3.28-2,4.1-4.91a12.46,12.46,0,0,0,2.9.41c2.09,0,3-.82,3.39-1.5.54-.93.72-2.59-1.47-5.2C20.69,12.53,20.45,12.27,20.19,12ZM19,5.5a2.74,2.74,0,0,1,2.53,1c.63,1.1-.22,2.9-2.05,4.8a25,25,0,0,0-2.61-2.11,25.2,25.2,0,0,0-.52-3.31A11,11,0,0,1,19,5.5Zm-5,10c-.67.39-1.34.73-2,1.05-.66-.32-1.33-.66-2-1.05s-1.31-.79-1.91-1.2C8,13.53,8,12.77,8,12s0-1.53.09-2.26c.6-.41,1.24-.82,1.91-1.2s1.34-.73,2-1c.66.32,1.33.66,2,1s1.31.79,1.91,1.2c.06.73.09,1.49.09,2.26s0,1.53-.09,2.26C15.31,14.67,14.67,15.08,14,15.46Zm1.78.08a21.29,21.29,0,0,1-.4,2.31,22,22,0,0,1-2.2-.8q.66-.35,1.32-.72C14.94,16.08,15.37,15.81,15.78,15.54Zm-5,1.51a22,22,0,0,1-2.2.8,21.29,21.29,0,0,1-.4-2.31c.41.27.84.54,1.28.79S10.38,16.82,10.82,17.05ZM7,13.51c-.66-.5-1.26-1-1.8-1.51.54-.5,1.14-1,1.8-1.51,0,.5,0,1,0,1.51S7,13,7,13.51Zm1.18-5a21.29,21.29,0,0,1,.4-2.31,22,22,0,0,1,2.2.8q-.66.34-1.32.72C9.06,7.92,8.63,8.19,8.22,8.46Zm5-1.51a22,22,0,0,1,2.2-.8,21.29,21.29,0,0,1,.4,2.31c-.41-.27-.84-.54-1.28-.79S13.62,7.18,13.18,7ZM17,10.49c.66.5,1.26,1,1.8,1.51-.54.5-1.14,1-1.8,1.51,0-.5,0-1,0-1.51S17,11,17,10.49ZM12,1c1.27,0,2.4,1.64,3.13,4.18A25.18,25.18,0,0,0,12,6.38a24.59,24.59,0,0,0-3.13-1.2C9.6,2.64,10.73,1,12,1ZM2.47,6.5A2.75,2.75,0,0,1,5,5.5a11,11,0,0,1,2.65.38,25.2,25.2,0,0,0-.52,3.31A25,25,0,0,0,4.52,11.3C2.69,9.4,1.84,7.6,2.47,6.5ZM5,18.5a2.74,2.74,0,0,1-2.53-1c-.63-1.1.22-2.9,2-4.8a25,25,0,0,0,2.61,2.11,25.2,25.2,0,0,0,.52,3.31A11,11,0,0,1,5,18.5ZM12,23c-1.27,0-2.4-1.64-3.13-4.18A24.59,24.59,0,0,0,12,17.62a24.59,24.59,0,0,0,3.13,1.2C14.4,21.36,13.27,23,12,23Zm9.53-5.5a2.75,2.75,0,0,1-2.53,1,11,11,0,0,1-2.65-.38,25.2,25.2,0,0,0,.52-3.31,25,25,0,0,0,2.61-2.11C21.31,14.6,22.16,16.4,21.53,17.5Z"/><rect class="cls-1" width="24" height="24"/></g></g></svg>