<?xml version="1.0" encoding="UTF-8"?>
<svg width="22px" height="22px" viewBox="0 0 22 22" version="1.1" xmlns="http://www.w3.org/2000/svg" xmlns:xlink="http://www.w3.org/1999/xlink">
    <!-- Generator: Sketch 43.2 (39069) - http://www.bohemiancoding.com/sketch -->
    <title>Categories</title>
    <desc>Created with Sketch.</desc>
    <defs></defs>
    <g id="Page-1" stroke="none" stroke-width="1" fill="none" fill-rule="evenodd">
        <g id="Categories" fill-rule="nonzero" fill="#000000">
            <rect id="Rectangle-5" x="0" y="0" width="10" height="10" rx="1"></rect>
            <path d="M0,12.9953976 C0,12.4456547 0.4556644,12 0.99539757,12 L9.0046024,12 C9.5543453,12 10,12.4556644 10,12.9953976 L10,21.0046024 C10,21.5543453 9.5443356,22 9.0046024,22 L0.99539757,22 C0.44565467,22 0,21.5443356 0,21.0046024 L0,12.9953976 Z M4.94974747,12 L0,16.9497475 L4.94974747,21.8994949 L9.8994949,16.9497475 L4.94974747,12 Z" id="Combined-Shape"></path>
            <path d="M13,1.49754465 L13,8.50245535 C13,8.77741743 13.2226295,9 13.4975446,9 L20.5024554,9 C20.7774174,9 21,8.77737048 21,8.50245535 L21,1.49754465 C21,1.22258257 20.7773705,1 20.5024554,1 L13.4975446,1 C13.2225826,1 13,1.22262952 13,1.49754465 Z M12,1.49754465 C12,0.670391974 12.6702506,0 13.4975446,0 L20.5024554,0 C21.329608,0 22,0.670250599 22,1.49754465 L22,8.50245535 C22,9.32960803 21.3297494,10 20.5024554,10 L13.4975446,10 C12.670392,10 12,9.3297494 12,8.50245535 L12,1.49754465 Z" id="Rectangle-5-Copy"></path>
            <path d="M13,13.4975446 L13,20.5024554 C13,20.7774174 13.2226295,21 13.4975446,21 L20.5024554,21 C20.7774174,21 21,20.7773705 21,20.5024554 L21,13.4975446 C21,13.2225826 20.7773705,13 20.5024554,13 L13.4975446,13 C13.2225826,13 13,13.2226295 13,13.4975446 Z M12,13.4975446 C12,12.670392 12.6702506,12 13.4975446,12 L20.5024554,12 C21.329608,12 22,12.6702506 22,13.4975446 L22,20.5024554 C22,21.329608 21.3297494,22 20.5024554,22 L13.4975446,22 C12.670392,22 12,21.3297494 12,20.5024554 L12,13.4975446 Z" id="Rectangle-5-Copy-3"></path>
            <rect id="Rectangle-7" x="3" y="15" width="4" height="4"></rect>
            <polygon id="Line" points="17.1464466 12.1464466 12.1464466 17.1464466 12.8535534 17.8535534 17.8535534 12.8535534"></polygon>
            <polygon id="Line-Copy" points="21.1464466 16.1464466 16.1464466 21.1464466 16.8535534 21.8535534 21.8535534 16.8535534"></polygon>
            <polygon id="Line-Copy-2" points="21.1464466 12.1464466 12.6317534 20.6611398 13.3388602 21.3682466 21.8535534 12.8535534"></polygon>
        </g>
    </g>
</svg>