<svg id="Layer_1" data-name="Layer 1" xmlns="http://www.w3.org/2000/svg" viewBox="0 0 30 30"><title>51</title><path d="M24.53,8.72h0a2.13,2.13,0,0,0,0-.25c0-2.62-4.2-4.67-9.55-4.67s-9.34,2-9.53,4.49h0V21.53c0,2.62,4.2,4.67,9.55,4.67s9.55-2.05,9.55-4.67c0-.66,0-4,0-4h0a2.13,2.13,0,0,0,0-.25c0-.66,0-4,0-4h0a2.2,2.2,0,0,0,.05-.44C24.55,12.1,24.53,8.72,24.53,8.72ZM15,4.55c4.77,0,8.8,1.79,8.8,3.92s-4,3.92-8.8,3.92-8.8-1.8-8.8-3.92S10.23,4.55,15,4.55ZM6.2,10.31C7.64,12,11,13.14,15,13.14s7.34-1.15,8.79-2.82c0,1,0,2.09,0,2.44,0,2.13-4,3.92-8.8,3.92s-8.8-1.79-8.8-3.92ZM23.8,21.53c0,2.13-4,3.92-8.8,3.92s-8.8-1.79-8.8-3.92V19.08c1.44,1.68,4.8,2.83,8.8,2.83s7.34-1.15,8.79-2.82C23.79,20.06,23.8,21.18,23.8,21.53Zm0-4.29c0,2.12-4,3.92-8.8,3.92s-8.8-1.8-8.8-3.92V14.61c1.44,1.68,4.8,2.82,8.8,2.82s7.34-1.14,8.78-2.81C23.79,15.63,23.8,16.87,23.8,17.24Z"/></svg>