<svg id="Layer_1" data-name="Layer 1" xmlns="http://www.w3.org/2000/svg" viewBox="0 0 30 30"><title>29</title><path d="M19.69,17.29H25.1v.55H19.69Z"/><rect x="19.28" y="16.88" width="6.22" height="1.37"/><path d="M4.9,17.29h5.41v.55H4.9Z"/><rect x="4.49" y="16.88" width="6.22" height="1.37"/><path d="M12.12,10.55h1.1l3.49,5.37h0V10.55h1.16v7.56h-1.1L13.3,12.74h0v5.37H12.12Z"/><path d="M15,28.16A13.16,13.16,0,1,1,28.16,15,13.17,13.17,0,0,1,15,28.16Zm0-24.7A11.54,11.54,0,1,0,26.54,15,11.56,11.56,0,0,0,15,3.46Z"/><rect x="3.14" y="14.64" width="24.65" height="1.62" transform="translate(-6.4 15.7) rotate(-45.63)"/></svg>