<?xml version="1.0" encoding="utf-8"?>
<!-- Generator: Adobe Illustrator 27.2.0, SVG Export Plug-In . SVG Version: 6.00 Build 0)  -->
<svg version="1.1" id="Layer_1" xmlns="http://www.w3.org/2000/svg" xmlns:xlink="http://www.w3.org/1999/xlink" x="0px" y="0px"
	 viewBox="0 0 24 24" style="enable-background:new 0 0 24 24;" xml:space="preserve">
<path d="M19,3h-1V1h-2v2H8V1H6v2H5C3.9,3,3,3.9,3,5v14c0,1.1,0.9,2,2,2h14c1.1,0,2-0.9,2-2V5C21,3.9,20.1,3,19,3z M19,19H5V9h14V19z
	 M19,7H5V5h14V7z"/>
<g>
	<polygon points="11,11 11,12 12,12 12,17 13,17 13,11 12,11 	"/>
	<polygon points="13.4,11 15.4,14 15.4,17 16.4,17 16.4,14 18.4,11 17.2,11 15.9,12.8 14.7,11 	"/>
	<polygon points="6.3,13.7 5.3,14.7 6.3,15.7 8.3,17.7 8.3,15.7 10.7,15.7 10.7,13.7 8.3,13.7 8.3,11.7 	"/>
</g>
</svg>
