<?xml version="1.0" encoding="UTF-8"?><svg id="Layer_1" xmlns="http://www.w3.org/2000/svg" viewBox="0 0 24 24"><defs><style>.cls-1{fill:none;stroke:#000;stroke-miterlimit:10;stroke-width:2px;}</style></defs><path d="m16.33,14.76c-.6,0-1,.5-1,1,0,.2.1.5.2.6l2,2.4-2,2.4c-.4.4-.3,1,.1,1.4.4.4,1,.3,1.4-.1h0l1.7-2.1,1.7,2.1c.3.4,1,.5,1.4.2s.5-1,.2-1.4h0l-2-2.4,2-2.4c.4-.4.3-1.1-.1-1.4-.2-.2-.4-.2-.7-.2s-.6.1-.8.4l-1.7,2.1-1.7-2.1c-.1-.3-.4-.5-.7-.5Z"/><path class="cls-1" d="m12.31,21.98c-5.37,0-9.72-4.35-9.72-9.72S6.94,2.54,12.31,2.54s9.72,4.35,9.72,9.72"/><polyline class="cls-1" points="11.76 6.97 11.76 12.57 16.03 12.57"/></svg>