<?xml version="1.0" encoding="UTF-8"?><svg id="Layer_1" xmlns="http://www.w3.org/2000/svg" viewBox="0 0 24 24"><path d="m19,3h-1V1h-2v2h-8V1h-2v2h-1c-1.1,0-2,.9-2,2v14c0,1.1.9,2,2,2h7.2c.5,0,1-.4,1-1s-.4-1-1-1h-7.2v-10h14v3.1c0,.6.4,1,1,1s1-.4,1-1v-7.1c0-1.1-.9-2-2-2Zm0,4H5v-2h14v2Z"/><path d="m15.6,14.2c-.6,0-1,.5-1,1,0,.2.1.5.2.6l2,2.4-2,2.4c-.4.4-.3,1,.1,1.4.4.4,1,.3,1.4-.1h0l1.7-2.1,1.7,2.1c.3.4,1,.5,1.4.2s.5-1,.2-1.4h0l-2-2.4,2-2.4c.4-.4.3-1.1-.1-1.4-.2-.2-.4-.2-.7-.2s-.6.1-.8.4l-1.7,2.1-1.7-2.1c-.1-.3-.4-.5-.7-.5Z"/><polygon points="6.61 10.88 6.61 11.88 7.61 11.88 7.61 16.88 8.61 16.88 8.61 10.88 7.61 10.88 6.61 10.88"/><polygon points="9.61 10.88 11.61 13.88 11.61 16.88 12.61 16.88 12.61 13.88 14.61 10.88 13.41 10.88 12.11 12.68 10.81 10.88 9.61 10.88"/></svg>