<?xml version="1.0" encoding="utf-8"?>
<!-- Generator: Adobe Illustrator 27.2.0, SVG Export Plug-In . SVG Version: 6.00 Build 0)  -->
<svg version="1.1" id="Layer_1" xmlns="http://www.w3.org/2000/svg" xmlns:xlink="http://www.w3.org/1999/xlink" x="0px" y="0px"
	 viewBox="0 0 24 24" style="enable-background:new 0 0 24 24;" xml:space="preserve">
<path d="M6,1v2H5C3.9,3,3,3.9,3,5v14c0,1.1,0.9,2,2,2h7.2c0.5,0,1-0.4,1-1v0c0-0.6-0.4-1-1-1H5V9h14v3.1c0,0.6,0.4,1,1,1h0
	c0.6,0,1-0.4,1-1V5c0-1.1-0.9-2-2-2h-1V1h-2v2H8V1H6z M5,5h14v2H5V5z M7,11v2h10v-2H7z M7,15v2h6v-2H7z"/>
<path d="M15.6,14.2c-0.6,0-1,0.5-1,1c0,0.2,0.1,0.5,0.2,0.6l2,2.4l-2,2.4c-0.4,0.4-0.3,1,0.1,1.4c0.4,0.4,1,0.3,1.4-0.1c0,0,0,0,0,0
	l1.7-2.1l1.7,2.1c0.3,0.4,1,0.5,1.4,0.2s0.5-1,0.2-1.4c0,0,0,0,0,0l-2-2.4l2-2.4c0.4-0.4,0.3-1.1-0.1-1.4c-0.2-0.2-0.4-0.2-0.7-0.2
	c-0.3,0-0.6,0.1-0.8,0.4l-1.7,2.1l-1.7-2.1C16.2,14.4,15.9,14.2,15.6,14.2z"/>
</svg>
