<?xml version="1.0" encoding="utf-8"?>
<!-- Generator: Adobe Illustrator 27.2.0, SVG Export Plug-In . SVG Version: 6.00 Build 0)  -->
<svg version="1.1" id="Layer_1" xmlns="http://www.w3.org/2000/svg" xmlns:xlink="http://www.w3.org/1999/xlink" x="0px" y="0px"
	 viewBox="0 0 24 24" style="enable-background:new 0 0 24 24;" xml:space="preserve">
<path d="M19,4h-1V2h-2v2H8V2H6v2H5C3.9,4,3,4.9,3,6v14c0,1.1,0.9,2,2,2h14c1.1,0,2-0.9,2-2V6C21,4.9,20.1,4,19,4z M19,20H5V10h14V20
	z M19,8H5V6h14V8z"/>
<g>
	<rect x="5.9" y="10.9" width="1.9" height="1.9"/>
	<rect x="8.4" y="10.9" width="1.9" height="1.9"/>
	<rect x="11" y="10.9" width="1.9" height="1.9"/>
	<rect x="13.5" y="10.9" width="1.9" height="1.9"/>
	<rect x="16.1" y="10.9" width="1.9" height="1.9"/>
</g>
<polygon points="15.1,13.4 15.1,15.4 5.9,15.4 5.9,17.4 15.1,17.4 15.1,19.4 17.1,17.4 18.1,16.4 17.1,15.4 "/>
</svg>
