<svg id="Layer_1" data-name="Layer 1" xmlns="http://www.w3.org/2000/svg" viewBox="0 0 30 30"><title>25</title><path d="M9.45,17.33a1.59,1.59,0,0,0,.26-.41,1.55,1.55,0,0,0,.1-.74,1.27,1.27,0,0,0-.45-.82,1.33,1.33,0,0,0-1-.23,1.27,1.27,0,0,1,.28-.49A2.77,2.77,0,0,1,9.54,14L9,13a3.58,3.58,0,0,0-1.5,1.07,3,3,0,0,0-.6,1.52,2.06,2.06,0,0,0,.62,1.87A1.4,1.4,0,0,0,9.45,17.33Z"/><path d="M12.84,17.33a1.5,1.5,0,0,0,.35-1.15,1.31,1.31,0,0,0-.44-.82,1.36,1.36,0,0,0-1-.23,1.44,1.44,0,0,1,.29-.49,2.61,2.61,0,0,1,.9-.61l-.53-1a3.62,3.62,0,0,0-1.51,1.07,3.11,3.11,0,0,0-.6,1.52,2.09,2.09,0,0,0,.62,1.87A1.42,1.42,0,0,0,12.84,17.33Z"/><path d="M23.3,13.33a1.4,1.4,0,0,0-1.93.16,1.31,1.31,0,0,0-.26.4,1.55,1.55,0,0,0-.1.74,1.28,1.28,0,0,0,.44.82,1.36,1.36,0,0,0,1,.23,1.42,1.42,0,0,1-.28.49,2.63,2.63,0,0,1-.91.61l.54,1a3.58,3.58,0,0,0,1.5-1.07,3.11,3.11,0,0,0,.6-1.52A2.06,2.06,0,0,0,23.3,13.33Z"/><path d="M18,13.49a1.5,1.5,0,0,0-.25.4,1.34,1.34,0,0,0-.1.74,1.24,1.24,0,0,0,.44.82,1.36,1.36,0,0,0,1,.23,1.44,1.44,0,0,1-.29.49,2.57,2.57,0,0,1-.9.61l.53,1a3.58,3.58,0,0,0,1.5-1.07,3,3,0,0,0,.61-1.52,2.09,2.09,0,0,0-.62-1.87A1.42,1.42,0,0,0,18,13.49Z"/><path d="M15,3.18A11.82,11.82,0,1,0,26.82,15,11.83,11.83,0,0,0,15,3.18ZM4.64,15A10.36,10.36,0,0,1,20.82,6.43l-11.89,17A10.34,10.34,0,0,1,4.64,15ZM15,25.36a10.2,10.2,0,0,1-4.83-1.2L22,7.34a10.35,10.35,0,0,1-7,18Z"/></svg>