<?xml version="1.0" encoding="utf-8"?>
<!-- Generator: Adobe Illustrator 27.2.0, SVG Export Plug-In . SVG Version: 6.00 Build 0)  -->
<svg version="1.1" id="Layer_1" xmlns="http://www.w3.org/2000/svg" xmlns:xlink="http://www.w3.org/1999/xlink" x="0px" y="0px"
	 viewBox="0 0 24 24" style="enable-background:new 0 0 24 24;" xml:space="preserve">
<path d="M1.2,12c0,5.9,4.8,10.8,10.8,10.8c5.9,0,10.8-4.8,10.8-10.8c0-5.9-4.8-10.8-10.8-10.8C6.1,1.2,1.2,6.1,1.2,12z M21.2,12
	c0,5.1-4.1,9.2-9.2,9.2c-5.1,0-9.2-4.1-9.2-9.2c0-5.1,4.1-9.2,9.2-9.2C17.1,2.8,21.2,6.9,21.2,12z M9.5,6.5c-0.3,0.3-0.3,0.8,0,1.1
	l4.5,4.5l-4.5,4.5c-0.3,0.3-0.3,0.8,0,1.1s0.8,0.3,1.1,0l5-5c0.3-0.3,0.3-0.8,0-1.1l-5-5c-0.1-0.1-0.3-0.2-0.5-0.2S9.6,6.3,9.5,6.5z
	"/>
</svg>
