<svg xmlns="http://www.w3.org/2000/svg"  viewBox="0 0 24 24" width="24px" height="24px"><path d="M 12 1.25 C 6.06294 1.25 1.25 6.06294 1.25 12 C 1.25 17.9371 6.06294 22.75 12 22.75 C 17.9371 22.75 22.75 17.9371 22.75 12 C 22.75 6.06294 17.9371 1.25 12 1.25 z M 12 2.75 C 17.1086 2.75 21.25 6.89137 21.25 12 C 21.25 17.1086 17.1086 21.25 12 21.25 C 6.89137 21.25 2.75 17.1086 2.75 12 C 2.75 6.89137 6.89137 2.75 12 2.75 z M 14 6.25 C 13.808075 6.25 13.6152 6.322305 13.46875 6.46875 L 8.46875 11.46875 C 8.17586 11.76165 8.17586 12.23835 8.46875 12.53125 L 13.46875 17.53125 C 13.76165 17.82415 14.23835 17.82415 14.53125 17.53125 C 14.82415 17.23835 14.82415 16.76165 14.53125 16.46875 L 10.060547 12 L 14.53125 7.53125 C 14.82415 7.23836 14.82415 6.76164 14.53125 6.46875 C 14.3848 6.322305 14.191925 6.25 14 6.25 z"/></svg>