<?xml version="1.0"?><svg xmlns="http://www.w3.org/2000/svg"  viewBox="0 0 24 24" width="24px" height="24px">    <path d="M 6 2 L 6 4 L 5 4 C 3.897 4 3 4.897 3 6 L 3 20 C 3 21.103 3.897 22 5 22 L 19 22 C 20.103 22 21 21.103 21 20 L 21 6 C 21 4.897 20.103 4 19 4 L 18 4 L 18 2 L 16 2 L 16 4 L 8 4 L 8 2 L 6 2 z M 5 6 L 19 6 L 19 8 L 5 8 L 5 6 z M 5 10 L 19 10 L 19.001953 20 L 5 20 L 5 10 z M 14.800781 11.300781 L 11.5 14.599609 L 9.6992188 12.800781 L 8.3007812 14.199219 L 11.5 17.400391 L 16.199219 12.699219 L 14.800781 11.300781 z"/></svg>