<?xml version="1.0" encoding="utf-8"?>
<!-- Generator: Adobe Illustrator 27.2.0, SVG Export Plug-In . SVG Version: 6.00 Build 0)  -->
<svg version="1.1" id="Layer_1" xmlns="http://www.w3.org/2000/svg" xmlns:xlink="http://www.w3.org/1999/xlink" x="0px" y="0px"
	 viewBox="0 0 24 24" style="enable-background:new 0 0 24 24;" xml:space="preserve">
<path d="M6,1v2H5C3.9,3,3,3.9,3,5v14c0,1.1,0.9,2,2,2h14c1.1,0,2-0.9,2-2V5c0-1.1-0.9-2-2-2h-1V1h-2v2H8V1H6z M5,5h14v2H5V5z M5,9
	h14v10H5V9z M10,11v1h1v5h1v-6h-1H10z M16,11v2h-1c-1.1,0-2,0.9-2,2s0.9,2,2,2h1h1v-6H16z M7,13v1H6v1h1v1h1v-1h1v-1H8v-1H7z M15,14
	h1v2h-1c-0.6,0-1-0.4-1-1S14.4,14,15,14z"/>
</svg>
