<?xml version="1.0" encoding="utf-8"?>
<!-- Generator: Adobe Illustrator 27.2.0, SVG Export Plug-In . SVG Version: 6.00 Build 0)  -->
<svg version="1.1" id="Layer_1" xmlns="http://www.w3.org/2000/svg" xmlns:xlink="http://www.w3.org/1999/xlink" x="0px" y="0px"
	 viewBox="0 0 24 24" style="enable-background:new 0 0 24 24;" xml:space="preserve">
<path d="M19,3h-1V1h-2v2H8V1H6v2H5C3.9,3,3,3.9,3,5v14c0,1.1,0.9,2,2,2h14c1.1,0,2-0.9,2-2V5C21,3.9,20.1,3,19,3z M19,19H5V9h14V19z
	 M19,7H5V5h14V7z"/>
<polygon points="10,11 10,12 11,12 11,17 12,17 12,11 11,11 "/>
<rect x="6" y="14" width="3" height="1"/>
<path d="M16,11v2h-1c-1.1,0-2,0.9-2,2s0.9,2,2,2h1h1v-6H16z M16,16h-1c-0.6,0-1-0.4-1-1s0.4-1,1-1h1V16z"/>
</svg>
