<svg xmlns="http://www.w3.org/2000/svg" viewBox="0 0 24 24"><defs><style>.cls-1{fill:none;}.cls-2{fill:#fff;}</style></defs><title>apps</title><g id="Layer_2" data-name="Layer 2"><g id="Layer_1-2" data-name="Layer 1"><rect class="cls-1" width="24" height="24"/><path class="cls-2" d="M18,17H4V6H18ZM20,2V18a1,1,0,0,1-1,1H1a1,1,0,0,1-1-1V2A1,1,0,0,1,1,1H19A1,1,0,0,1,20,2ZM14,3a1,1,0,1,0,1-1A1,1,0,0,0,14,3ZM11,3a1,1,0,1,0,1-1A1,1,0,0,0,11,3Zm8,2H1V18H19Zm0-2a1,1,0,1,0-1,1A1,1,0,0,0,19,3Zm2,0V18.5A1.5,1.5,0,0,1,19.5,20H2a1,1,0,0,0,1,1H20a2,2,0,0,0,2-2V4A1,1,0,0,0,21,3Zm2,2V19.5A2.5,2.5,0,0,1,20.5,22H4a1,1,0,0,0,1,1H21a3,3,0,0,0,3-3V6A1,1,0,0,0,23,5ZM3,6H2V7H3ZM3,8H2V9H3Zm0,2H2v1H3Zm0,6H2v1H3Z"/></g></g></svg>