<svg xmlns="http://www.w3.org/2000/svg" id="Layer_1" data-name="Layer 1" viewBox="14.74 11.42 379.3 162.1"><defs><style>.cls-1{fill:#fff;}.cls-2{fill:#00b4e0;}</style></defs><path class="cls-1" d="M220.1,78.94a1.16,1.16,0,0,0-.44-1l-4.41-3.55a2.44,2.44,0,0,1-.59-1c0-.38.44-.51.88-.51h14.11a.68.68,0,0,1,.73.76v62.71c0,.51,0,.89.3,1.14l4.55,4.44a1.53,1.53,0,0,1,.59.88c0,.38-.29.51-.88.51h-19.4c-.44,0-.88-.13-.88-.51a1.58,1.58,0,0,1,.59-.88l4.55-4.44c.3-.25.3-.63.3-1.14Z"/><path class="cls-1" d="M256,77.29h.3c2.64-2.4,5.14-4.43,10.14-4.43,7.34,0,12.19,4.43,12.19,12.92v50.55c0,.51,0,.89.3,1.14l4.55,4.44a1.53,1.53,0,0,1,.59.88c0,.38-.44.51-.88.51H263.8c-.59,0-.88-.13-.88-.51a1.53,1.53,0,0,1,.59-.88l4.55-4.44c.3-.25.3-.63.3-1.14V85.65c0-4.81-1.62-7.34-5-7.34-3.53,0-7.35,4.18-7.35,11v47a2.39,2.39,0,0,0,.15,1.14l4.56,4.44a1.31,1.31,0,0,1,.73.88c0,.38-.44.51-.88.51h-19.4c-.59,0-.88-.13-.88-.51a1.07,1.07,0,0,1,.59-.88l4.55-4.44c.3-.25.3-.63.3-1.14V78.94a1.16,1.16,0,0,0-.44-1l-4.41-3.55a2.33,2.33,0,0,1-.59-1c0-.38.44-.51.88-.51h14.11c.59,0,.73.25.73.76Z"/><path class="cls-1" d="M310,54.36a1,1,0,0,0-.59-1l-4.26-3.68a1.31,1.31,0,0,1-.73-.88c0-.38.44-.51,1-.51h14c.59,0,.89.25.89.76v87.29a2.55,2.55,0,0,0,.14,1.14l4.56,4.44a1.31,1.31,0,0,1,.73.88c0,.38-.44.51-1,.51H311c-.59,0-1-.25-1-.51v-4.3h-.29c-2.5,2.53-5.15,4.81-9.85,4.81-6.47,0-13.23-3.17-13.23-38.89,0-28.26,7.35-31.55,13.38-31.55,4.26,0,7.2,2,9.7,4.43H310Zm0,33.45c0-6.21-4.41-9.5-6.46-9.5-3.68,0-5.44,2.66-5.44,26.1,0,30.53,1.47,33.44,5.29,33.44,3.52,0,6.61-3.92,6.61-10.13Z"/><path class="cls-1" d="M338.74,115.81c0,16,2.5,22,9.26,22,4.85,0,7.2-2,10.29-5.95a1.28,1.28,0,0,1,1-.64c.44,0,.59.26.44.77-1.76,6.08-6.31,11.27-13.52,11.27-13.37,0-19-11.4-19-39.78,0-19.26,6.46-30.66,16.75-30.66,8.52,0,15.87,5.32,15.87,23.82v7.85c0,.89-.29,1.52-1.32,1.52H338.74Zm10.88-14.57V88.57c0-6.72-2.06-10.26-5.59-10.26-3.82,0-5.29,3.54-5.29,10.26v12.67Z"/><path class="cls-2" d="M222.8,11.45c-7-.29-29.28,1.31-40.28,12a20.36,20.36,0,0,0-6.41,15.16c0,2.21.43,17.73,1,37.37l-8,.19a5.25,5.25,0,1,0,.25,10.49l8.08-.19c1.12,35.46,2.77,78.36,4.19,83.29a5.2,5.2,0,0,0,6.43,3.56,5.29,5.29,0,0,0,3.66-6.46V167c-1-4.51-2.66-45.55-3.81-80.7l16.29-.39A5.25,5.25,0,1,0,204,75.39l-16.39.39c-.52-16.73-.9-30.92-1-37.3A9.7,9.7,0,0,1,189.85,31c7.65-7.47,25.54-9.35,32.52-9.06a5.25,5.25,0,0,0,.43-10.49Z"/><path class="cls-2" d="M219.66,55c0-3.43,2.35-6.72,5.43-6.72s5.29,3.29,5.29,6.72-2.35,6.71-5.29,6.71-5.43-3.42-5.43-6.71"/><path class="cls-1" d="M377.58,136.33a2.39,2.39,0,0,0,.15,1.14l5,4.44a1.07,1.07,0,0,1,.59.88c0,.38-.3.51-.88.51H362.74c-.59,0-.89-.13-.89-.51a1.07,1.07,0,0,1,.59-.88l4.56-4.44c.29-.25.29-.63.29-1.14V78.94a1,1,0,0,0-.59-1l-4.26-3.55a1.45,1.45,0,0,1-.59-1c0-.38.3-.51.89-.51h14.1a.68.68,0,0,1,.74.76v4.31h.29c2.35-2.54,4.85-5.07,8.23-5.07,4.85,0,7.94,6.71,7.94,10.77,0,.63-.15,1.14-.74,1.14s-.88-.51-1.17-1.14a8.08,8.08,0,0,0-7.64-4.82c-4.27,0-6.91,5.2-6.91,11.66Z"/><path class="cls-1" d="M126.91,135.09c0,1.65.59,3.17,1.91,3.17a5.36,5.36,0,0,0,4.26-2.16c.29-.25.44-.5.74-.5s.44.25.44.63c-.59,3.67-4,7.48-7.65,7.48-4.55,0-6.9-2.54-8.67-4.82-2.35,2.28-6.17,4.82-10.13,4.82-5.73,0-12.79-3.17-12.79-20.53,0-14.19,2.5-18,18.66-29.14,2.94-2,2.94-3.17,2.94-8.36,0-5.58-1.47-7-6.17-7-4.26,0-10.43,2.91-13.08,5.2a1.83,1.83,0,0,1-1.17.38c-.3,0-.44-.26-.44-.64,0-1.52,8.37-10.39,16.6-10.39,5.29,0,14.55,2.79,14.55,15.84Zm-10.29-37.5h-.29c-8.08,6-10.43,10.39-10.43,23.31,0,14.44,1.61,17.36,4.85,17.36s5.87-3.93,5.87-7.48Z"/><path class="cls-1" d="M34,71.52c8.3,0,12.39,6.59,14,13.06.16.52,0,1-.48,1a1.47,1.47,0,0,1-1-.65c-4.41-5.32-7.34-7.89-11.74-7.89-5.71,0-7.33,5.43-7.33,27.55,0,26.66,2.78,33.26,8.15,33.26,4.4,0,8.16-3.23,10.76-6.86a2.06,2.06,0,0,1,1.46-1c.49,0,.66.38.49.91-2,6-5.87,12.54-14.34,12.54-13,0-19.23-11.65-19.23-38.82C14.77,83.16,21.94,71.52,34,71.52Z"/><path class="cls-1" d="M150.72,133.37c0,2.67,1.47,4.57,3.53,4.57a6.37,6.37,0,0,0,4.56-2.66,1.53,1.53,0,0,1,.88-.51.55.55,0,0,1,.44.76c-1,3.55-4,7.85-10.14,7.85s-9.55-2.4-9.55-12.79V79.28a2.21,2.21,0,0,0-.44-1.65l-4.26-3.55c-.3-.25-.74-.5-.74-.76s.59-.76,2.06-.89c6.46-1,7.2-10.64,7.2-15.71a1.11,1.11,0,0,1,1.17-1.14h4.41c.59,0,.88.26.88.89V71c0,.63.15,1.14,1.18,1.14h3.38c.73,0,.88.89,0,1.52L151.9,77a4.4,4.4,0,0,0-1.18,2.28Z"/><path class="cls-1" d="M64.74,81.38H65c2.66-2.25,5.16-4.14,10.17-4.14,7.37,0,12.24,4.14,12.24,12.05v47.15c0,.47,0,.83.29,1.06l4.57,4.14a1.44,1.44,0,0,1,.59.83c0,.35-.44.47-.88.47H72.55c-.59,0-.88-.12-.88-.47a1.44,1.44,0,0,1,.59-.83l4.57-4.14c.29-.23.29-.59.29-1.06V89.18c0-4.49-1.62-6.86-5-6.86-3.54,0-7.37,3.9-7.37,10.28v43.84a2.22,2.22,0,0,0,.14,1.06l4.57,4.14c.45.24.74.59.74.83s-.44.47-.88.47H49.85c-.59,0-.89-.12-.89-.47a1,1,0,0,1,.59-.83l4.57-4.14c.3-.23.3-.59.3-1.06V60a.93.93,0,0,0-.59-1l-4.28-3.42a1,1,0,0,1-.59-.83c0-.35.3-.47.89-.47h14c.59,0,.89.23.89.71Z"/></svg>