<?xml version="1.0" encoding="utf-8"?>
<!-- Generator: Adobe Illustrator 22.1.0, SVG Export Plug-In . SVG Version: 6.00 Build 0)  -->
<svg version="1.1" id="Layer_1" xmlns="http://www.w3.org/2000/svg" xmlns:xlink="http://www.w3.org/1999/xlink" x="0px" y="0px"
	 viewBox="0 0 99.4 38" style="enable-background:new 0 0 99.4 38;" xml:space="preserve">
<style type="text/css">
	.st0{fill:#FFFFFF;}
	.st1{fill:#2472B9;}
	.st2{fill:#2573B9;}
</style>
<path class="st0" d="M57.2,16.5c0-0.1-0.1-0.2-0.1-0.3l-1-0.8C56,15.4,56,15.2,56,15.2c0-0.1,0.1-0.1,0.2-0.1h3.3
	c0.1,0,0.2,0.1,0.2,0.2v14.6c0,0.1,0,0.2,0.1,0.3l1.1,1.1c0.1,0.1,0.1,0.1,0.1,0.2c0,0.1-0.1,0.1-0.2,0.1h-4.5c-0.1,0-0.2,0-0.2-0.1
	c0-0.1,0.1-0.1,0.1-0.2l1.1-1.1c0.1-0.1,0.1-0.1,0.1-0.3L57.2,16.5L57.2,16.5z"/>
<path class="st0" d="M64.9,16.1L64.9,16.1c0.7-0.5,1.3-1.1,2.5-1.1c1.7,0,2.9,1.1,2.9,3v11.8c0,0.1,0,0.2,0.1,0.3l1.1,1.1
	c0.1,0.1,0.1,0.1,0.1,0.2c0,0.1-0.1,0.1-0.2,0.1h-4.5c-0.1,0-0.2,0-0.2-0.1c0-0.1,0.1-0.1,0.1-0.2l1.1-1.1c0.1-0.1,0.1-0.1,0.1-0.3
	V18c0-1.1-0.4-1.7-1.2-1.7c-0.8,0-1.7,1-1.7,2.6v11c0,0.1,0,0.2,0.1,0.3l1.1,1.1c0.1,0.1,0.2,0.1,0.2,0.2c0,0.1-0.1,0.1-0.2,0.1
	h-4.6c-0.1,0-0.2,0-0.2-0.1c0-0.1,0.1-0.1,0.1-0.2l1.1-1.1c0.1-0.1,0.1-0.1,0.1-0.3V16.5c0-0.1-0.1-0.2-0.1-0.3l-1-0.8
	c-0.1-0.1-0.1-0.2-0.1-0.3c0-0.1,0.1-0.1,0.2-0.1h3.3c0.1,0,0.2,0.1,0.2,0.2C64.9,15.2,64.9,16.1,64.9,16.1z"/>
<path class="st0" d="M77.9,10.8c0-0.1-0.1-0.2-0.1-0.3l-1-0.9c-0.1-0.1-0.2-0.1-0.2-0.2c0-0.1,0.1-0.1,0.3-0.1h3.3
	c0.1,0,0.2,0.1,0.2,0.2v20.3c0,0.1,0,0.2,0.1,0.3l1.1,1.1c0.1,0.1,0.2,0.1,0.2,0.2c0,0.1-0.1,0.1-0.3,0.1h-3.2
	c-0.1,0-0.3-0.1-0.3-0.1v-1h-0.1c-0.6,0.6-1.2,1.1-2.3,1.1c-1.5,0-3.1-0.7-3.1-9c0-6.6,1.7-7.4,3.1-7.4c1,0,1.7,0.5,2.3,1.1h0.1
	L77.9,10.8L77.9,10.8z M77.9,18.6c0-1.5-1-2.2-1.5-2.2c-0.9,0-1.3,0.6-1.3,6c0,7.1,0.3,7.8,1.3,7.8c0.8,0,1.5-0.9,1.5-2.4V18.6z"/>
<path class="st0" d="M85.3,25.1c0,3.7,0.6,5.1,2.1,5.1c1.1,0,1.7-0.5,2.4-1.4c0.1-0.1,0.1-0.1,0.3-0.1s0.1,0.1,0.1,0.2
	c-0.4,1.4-1.5,2.7-3.1,2.7c-3.1,0-4.4-2.7-4.4-9.2c0-4.5,1.5-7.1,3.9-7.1c2,0,3.7,1.3,3.7,5.5v1.9c0,0.2-0.1,0.3-0.3,0.3h-4.7
	L85.3,25.1L85.3,25.1z M87.8,21.7v-3c0-1.6-0.5-2.4-1.3-2.4c-0.9,0-1.3,0.8-1.3,2.4v2.9L87.8,21.7L87.8,21.7z"/>
<path class="st0" d="M95.4,29.9c0,0.1,0,0.2,0.1,0.3l1.2,1.1c0.1,0.1,0.1,0.1,0.1,0.2c0,0.1-0.1,0.1-0.2,0.1h-4.9
	c-0.1,0-0.2,0-0.2-0.1c0-0.1,0.1-0.1,0.1-0.2l1.1-1.1c0.1-0.1,0.1-0.1,0.1-0.3V16.5c0-0.1-0.1-0.2-0.1-0.3l-1.1-0.8
	c-0.1-0.1-0.1-0.2-0.1-0.3c0-0.1,0.1-0.1,0.2-0.1h3.5c0.1,0,0.2,0.1,0.2,0.2v1h0.1c0.6-0.6,1.2-1.2,2-1.2c1.2,0,1.9,1.6,1.9,2.5
	c0,0.1-0.1,0.3-0.2,0.3c-0.1,0-0.2-0.1-0.3-0.3c-0.4-0.8-1.1-1.1-1.9-1.1c-1.1,0-1.7,1.2-1.7,2.7L95.4,29.9L95.4,29.9z"/>
<path class="st0" d="M4.2,29.5c0,0.1,0,0.2,0.1,0.3l1.4,1.1c0.1,0.1,0.1,0.1,0.1,0.2c0,0.1-0.1,0.1-0.2,0.1H0.4
	c-0.1,0-0.2,0-0.2-0.1c0-0.1,0.1-0.1,0.1-0.2l1.2-1.1c0.1-0.1,0.1-0.1,0.1-0.3V16.4c0-0.2-0.2-0.4-0.3-0.5l-1.1-0.9
	c-0.2-0.1-0.2-0.3,0-0.3h1.2c0.2,0,0.3-0.1,0.3-0.3v-2.5c0-2.1,1.5-3,3.3-3c1.7,0,2.9,1.4,2.9,2.5c0,0.1-0.1,0.2-0.1,0.2
	c-0.1,0-0.3-0.1-0.4-0.3c-0.6-0.6-1.3-1.2-2.1-1.2c-0.7,0-0.9,0.6-0.9,1.3v3c0,0.2,0.1,0.3,0.3,0.3h0.9c0.2,0,0.2,0.2,0,0.3
	l-1.1,0.9c-0.1,0.1-0.3,0.3-0.3,0.5L4.2,29.5L4.2,29.5z"/>
<path class="st0" d="M12.8,29.5c0,0.1,0,0.2,0.1,0.3l1.2,1.1c0.1,0.1,0.1,0.1,0.1,0.2c0,0.1-0.1,0.1-0.2,0.1H8.9
	c-0.1,0-0.2,0-0.2-0.1c0-0.1,0.1-0.1,0.1-0.2l1.2-1.1c0.1-0.1,0.1-0.1,0.1-0.3V10.2c0-0.1-0.1-0.2-0.1-0.3L8.9,9.1
	C8.8,9,8.7,8.9,8.7,8.9c0-0.1,0.1-0.1,0.2-0.1h3.7c0.1,0,0.2,0.1,0.2,0.2C12.8,8.9,12.8,29.5,12.8,29.5z"/>
<path class="st0" d="M18.3,24.6c0,3.8,0.7,5.2,2.4,5.2c1.3,0,1.9-0.5,2.7-1.4c0.1-0.1,0.1-0.1,0.3-0.1c0.1,0,0.1,0.1,0.1,0.2
	c-0.5,1.5-1.6,2.7-3.5,2.7c-3.5,0-4.9-2.7-4.9-9.4c0-4.5,1.7-7.2,4.3-7.2c2.2,0,4.1,1.3,4.1,5.6V22c0,0.2-0.1,0.3-0.3,0.3h-5.1
	L18.3,24.6L18.3,24.6z M21.1,21.2v-3c0-1.6-0.5-2.4-1.5-2.4c-1,0-1.3,0.9-1.3,2.4v3H21.1z"/>
<path class="st0" d="M28.7,24.6c0,3.8,0.7,5.2,2.4,5.2c1.3,0,1.9-0.5,2.7-1.4c0.1-0.1,0.1-0.1,0.3-0.1s0.1,0.1,0.1,0.2
	c-0.5,1.5-1.6,2.7-3.5,2.7c-3.5,0-4.9-2.7-4.9-9.4c0-4.5,1.7-7.2,4.3-7.2c2.2,0,4.1,1.3,4.1,5.6V22c0,0.2-0.1,0.3-0.3,0.3h-5.1
	L28.7,24.6L28.7,24.6z M31.5,21.2v-3c0-1.6-0.5-2.4-1.5-2.4c-1,0-1.3,0.9-1.3,2.4v3H31.5z"/>
<path class="st0" d="M39.3,28.7c0,0.6,0.4,1.1,0.9,1.1c0.5,0,0.9-0.3,1.2-0.6c0.1-0.1,0.1-0.1,0.2-0.1c0.1,0,0.1,0.1,0.1,0.2
	c-0.3,0.9-1,1.9-2.6,1.9c-1.6,0-2.5-0.6-2.5-3V16c0-0.1,0-0.3-0.1-0.4l-1.1-0.9c-0.1-0.1-0.2-0.1-0.2-0.2c0-0.1,0.1-0.2,0.5-0.2
	c1.7-0.3,1.9-2.5,1.9-3.7c0-0.1,0.1-0.3,0.3-0.3h1.1c0.1,0,0.2,0.1,0.2,0.2V14c0,0.1,0.1,0.3,0.3,0.3h0.9c0.2,0,0.2,0.2,0,0.3
	l-0.9,0.8c-0.1,0.1-0.3,0.3-0.3,0.5L39.3,28.7L39.3,28.7z"/>
<path class="st1" d="M58.3,1.1c-0.1-0.7-0.7-1.2-1.3-1.1l-0.2,0C47.8,0.9,46,3.9,46,6.4c0,0.7,0,2.1,0,3.9c0,1.7,0,3.4,0,4.9l-1.7,0
	c-0.7,0-1.2,0.6-1.2,1.2c0,0.7,0.6,1.2,1.2,1.2c0,0,0,0,0,0l1.6,0c0.1,18.5,0.8,19.8,2,20.3c0.2,0.1,0.3,0.1,0.5,0.1
	c0.5,0,0.9-0.3,1.1-0.8c0.2-0.5,0.1-1-0.3-1.4c-0.7-1.7-0.8-11-0.9-18.3l4.2-0.1c0.7,0,1.2-0.6,1.2-1.2c0-0.7-0.6-1.2-1.2-1.2
	l-4.2,0.1c0-1.9,0-3.6,0-4.8c0-1.8,0-3.3,0-4c0-1.9,3.1-3.3,8.5-3.9l0.3,0C57.8,2.4,58.3,1.8,58.3,1.1z"/>
<path class="st2" d="M58.6,10.7c0,0.8-0.5,1.6-1.3,1.6S56,11.5,56,10.7s0.5-1.6,1.3-1.6C58,9.1,58.6,9.9,58.6,10.7z"/>
</svg>
