<svg id="Layer_1" data-name="Layer 1" xmlns="http://www.w3.org/2000/svg" viewBox="0 0 323.22 137"><defs><style>.cls-1{fill:#fff;}.cls-2{fill:#478ab8;}.cls-3{isolation:isolate;}.cls-4,.cls-5{fill:none;stroke:#478ab8;stroke-linecap:round;stroke-miterlimit:10;}.cls-4{stroke-width:8.89px;}.cls-5{stroke-width:8.99px;}</style></defs><path class="cls-1" d="M176.52,57.9a1,1,0,0,0-.4-.9l-3.6-3a2.84,2.84,0,0,1-.5-.9c0-.3.4-.4.7-.4h11.5c.4,0,.6.2.6.7v53.4a1.52,1.52,0,0,0,.2,1l3.7,3.8c.2.2.5.5.5.8s-.2.4-.7.4h-15.7c-.4,0-.7-.1-.7-.4a1.45,1.45,0,0,1,.5-.8l3.7-3.8c.2-.2.2-.5.2-1Z"/><path class="cls-1" d="M205.22,56.4h.2c2.1-2,4.1-3.8,8.2-3.8,5.9,0,9.8,3.8,9.8,11v43a1.52,1.52,0,0,0,.2,1l3.7,3.8c.2.2.5.5.5.8s-.4.4-.7.4h-15.7c-.5,0-.7-.1-.7-.4a1.45,1.45,0,0,1,.5-.8l3.7-3.8c.2-.2.2-.5.2-1v-43c0-4.1-1.3-6.3-4-6.3-2.9,0-5.9,3.6-5.9,9.4v40a2.8,2.8,0,0,0,.1,1l3.7,3.8a.94.94,0,0,1,.6.8c0,.3-.4.4-.7.4h-15.7c-.5,0-.7-.1-.7-.4a1,1,0,0,1,.5-.8l3.7-3.8c.2-.2.2-.5.2-1V57.9a1,1,0,0,0-.4-.9l-3.6-3a2.84,2.84,0,0,1-.5-.9c0-.3.4-.4.7-.4h11.4c.5,0,.6.2.6.7l.1,3Z"/><path class="cls-1" d="M250.42,36.9a.86.86,0,0,0-.5-.9l-3.4-3.1a.94.94,0,0,1-.6-.8c0-.3.4-.4.8-.4H258c.5,0,.7.2.7.7v74.3a2.8,2.8,0,0,0,.1,1l3.7,3.8a.94.94,0,0,1,.6.8c0,.3-.4.4-.8.4h-11c-.5,0-.8-.2-.8-.4v-3.7h-.2c-2,2.2-4.1,4.1-8,4.1-5.2,0-10.7-2.7-10.7-33.1,0-24,5.9-26.8,10.8-26.8,3.4,0,5.8,1.7,7.8,3.8h.2V36.9Zm0,28.5c0-5.3-3.6-8.1-5.2-8.1-3,0-4.4,2.3-4.4,22.2,0,26,1.2,28.5,4.3,28.5,2.9,0,5.3-3.3,5.3-8.6v-34Z"/><path class="cls-1" d="M275.72,89.2c0,13.6,2,18.8,7.5,18.8,3.9,0,5.8-1.7,8.3-5.1a1,1,0,0,1,.8-.5c.4,0,.5.2.4.7-1.4,5.2-5.1,9.6-10.9,9.6-10.8,0-15.3-9.7-15.3-33.9,0-16.4,5.2-26.1,13.5-26.1,6.9,0,12.8,4.5,12.8,20.3v6.7c0,.8-.2,1.3-1.1,1.3h-16v8.2Zm8.8-12.4V66.1c0-5.7-1.7-8.7-4.5-8.7-3.1,0-4.3,3-4.3,8.7V76.9h8.8Z"/><path class="cls-1" d="M309.22,106.7a2.8,2.8,0,0,0,.1,1l4,3.8a.81.81,0,0,1,.5.8c0,.3-.2.4-.7.4h-15.9c-.5,0-.7-.1-.7-.4a1,1,0,0,1,.5-.8l3.7-3.8c.2-.2.2-.5.2-1V57.9a.86.86,0,0,0-.5-.9L297,54a1.2,1.2,0,0,1-.5-.9c0-.3.2-.4.7-.4h11.4c.4,0,.6.2.6.7V57h.2c1.9-2.2,3.9-4.3,6.6-4.3,3.9,0,6.4,5.7,6.4,9.2,0,.5-.1,1-.6,1s-.7-.4-1-1a6.54,6.54,0,0,0-6.2-4.1c-3.4,0-5.6,4.4-5.6,9.9l.2,39Z"/><ellipse class="cls-2" cx="179.52" cy="37.6" rx="5.2" ry="7.1"/><g class="cls-3"><path class="cls-1" d="M17.71,107.65a2.28,2.28,0,0,0,.12,1l4.1,3.89a1.35,1.35,0,0,1,.45.78c0,.33-.34.44-.67.44H6.5c-.44,0-.67-.11-.67-.44a1,1,0,0,1,.45-.78l3.44-3.89c.22-.22.22-.55.22-1V58.8a3.74,3.74,0,0,0-1-2L5.61,53.36C5,52.81,5.06,52,5.61,52H9.05c.67,0,.89-.33.89-1V41.71c0-7.66,4.55-11.22,9.77-11.22s8.55,5.22,8.55,9.44c0,.33-.22.67-.44.67-.45,0-.78-.45-1.11-.89-1.78-2.33-4-4.44-6.22-4.44-2,0-2.78,2.11-2.78,4.66V51c0,.67.12,1,.89,1h3.33c.56,0,.67.78,0,1.33L18.6,56.81a3.63,3.63,0,0,0-.89,2Z"/><path class="cls-1" d="M52.68,80.23c0,27.42-6,33.53-13.21,33.53s-13.1-6.11-13.1-33.53c0-21.87,6-28.2,13.1-28.2S52.68,58.36,52.68,80.23Zm-8.66,0c0-19.32-1.55-23.42-4.55-23.42S35,60.91,35,80.23c0,25,1.56,28.76,4.44,28.76S44,105.21,44,80.23Z"/><path class="cls-1" d="M68,107.65a2.47,2.47,0,0,0,.11,1l3.78,3.89a1,1,0,0,1,.44.78c0,.33-.22.44-.66.44H56.79c-.44,0-.67-.11-.67-.44a.94.94,0,0,1,.45-.78L60,108.65c.22-.22.22-.55.22-1V57.36a.91.91,0,0,0-.44-.89l-3.22-3.11a1.29,1.29,0,0,1-.45-.88c0-.34.23-.45.67-.45H67.45c.33,0,.55.22.55.67v3.77h.23C70,54.25,71.89,52,74.44,52c3.67,0,6,5.89,6,9.44,0,.55-.11,1-.56,1s-.66-.45-.89-1c-1.22-3-3.44-4.22-5.77-4.22C70,57.25,68,61.8,68,67.46Z"/><path class="cls-1" d="M84.88,57.36a1.08,1.08,0,0,0-.34-.89l-3.33-3.11a2.17,2.17,0,0,1-.44-.88c0-.34.33-.45.67-.45H92.09c.45,0,.56.22.56.67v3.22h.22c2-2.11,3.89-3.89,7.66-3.89a8.3,8.3,0,0,1,7.11,3.89A11.26,11.26,0,0,1,116.07,52c5,0,8.77,3.89,8.77,11.33v44.29c0,.45,0,.78.23,1l3.44,3.89a1,1,0,0,1,.44.78c0,.33-.22.44-.66.44H113.63c-.33,0-.66-.11-.66-.44a1.13,1.13,0,0,1,.55-.78l3.33-3.89c.22-.22.22-.55.22-1V63.24c0-4.21-.88-6.43-3.11-6.43s-5.21,3.66-5.21,9.65v41.19c0,.45,0,.78.22,1l2.66,3.89a1.21,1.21,0,0,1,.34.78c0,.33-.23.44-.67.44H98.42c-.33,0-.66-.11-.66-.44a1.39,1.39,0,0,1,.44-.78l2.55-3.89c.23-.22.23-.55.23-1V63.24c0-4.21-.89-6.43-3.11-6.43-2.45,0-5.22,3.66-5.22,9.65v41.19c0,.45,0,.78.22,1l3.44,3.89a1.41,1.41,0,0,1,.45.78c0,.33-.23.44-.67.44H81.44c-.34,0-.67-.11-.67-.44a1.39,1.39,0,0,1,.44-.78l3.44-3.89c.23-.22.23-.55.23-1Z"/></g><path class="cls-4" d="M134.4,59.27h28.9"/><path class="cls-5" d="M175.6,5.17s-5.9.7-8.9,1.1a45.38,45.38,0,0,0-14.2,5.3c-6.8,4.2-9.7,8.4-9.6,15.3.2,9.1,1.1,32,1.3,36.8s1.6,31,2.5,43.7c.8,12.1,2.1,23.4,2.1,23.9"/></svg>