<svg xmlns="http://www.w3.org/2000/svg" xmlns:xlink="http://www.w3.org/1999/xlink" version="1.1" id="Layer_1" x="0px" y="0px" style="enable-background:new 0 0 475 190;" xml:space="preserve" viewBox="3 7.9 467.5 178.5">
<style type="text/css">
	.st0{fill:#FFFFFF;}
	.st1{fill:#E31837;}
	.st2{fill:none;stroke:#E31837;stroke-width:10;stroke-linecap:round;}
</style>
<g>
	<path class="st0" d="M271.4,82.1c0-0.6-0.2-0.8-0.5-1.1l-4.9-4c-0.3-0.4-0.7-0.8-0.7-1.1c0-0.4,0.5-0.6,1-0.6H282   c0.5,0,0.8,0.3,0.8,0.8v70c0,0.6,0,1,0.3,1.3l5.1,4.9c0.3,0.3,0.6,0.7,0.6,1c0,0.4-0.3,0.6-1,0.6h-21.6c-0.5,0-1-0.1-1-0.6   c0-0.3,0.3-0.7,0.7-1l5.1-4.9c0.3-0.3,0.3-0.7,0.3-1.3L271.4,82.1L271.4,82.1z"/>
	<path class="st0" d="M308.1,80.3h0.3c3-2.7,5.7-4.9,11.3-4.9c8.2,0,13.6,4.9,13.6,14.4v56.4c0,0.6,0,1,0.3,1.3l5.1,4.9   c0.3,0.3,0.7,0.7,0.7,1c0,0.4-0.5,0.6-1,0.6h-21.6c-0.7,0-1-0.1-1-0.6c0-0.3,0.3-0.7,0.6-1l5.1-4.9c0.3-0.3,0.3-0.7,0.3-1.3V89.6   c0-5.4-1.8-8.2-5.6-8.2c-3.9,0-8.2,4.7-8.2,12.3v52.4c0,0.6,0,1,0.2,1.3l5.1,4.9c0.5,0.3,0.8,0.7,0.8,1c0,0.4-0.5,0.6-1,0.6h-21.6   c-0.6,0-1-0.1-1-0.6c0-0.3,0.2-0.7,0.6-1l5.1-4.9c0.3-0.3,0.3-0.7,0.3-1.3v-64c0-0.6-0.2-0.8-0.5-1.1l-4.9-4   c-0.3-0.4-0.6-0.8-0.6-1.1c0-0.4,0.5-0.6,1-0.6h15.8c0.6,0,0.8,0.3,0.8,0.8L308.1,80.3L308.1,80.3z"/>
	<path class="st0" d="M370.6,54.7c0-0.6-0.2-0.8-0.7-1.1l-4.8-4.1c-0.5-0.3-0.8-0.7-0.8-1c0-0.4,0.5-0.6,1.1-0.6h15.6   c0.6,0,1,0.3,1,0.8v97.4c0,0.6,0,1,0.2,1.3l5.1,4.9c0.5,0.3,0.8,0.7,0.8,1c0,0.4-0.5,0.6-1.1,0.6h-15.3c-0.7,0-1.1-0.3-1.1-0.6   v-4.8h-0.3c-2.8,2.8-5.7,5.4-11,5.4c-7.2,0-14.8-3.5-14.8-43.4c0-31.5,8.2-35.2,14.9-35.2c4.8,0,8,2.3,10.8,4.9h0.3V54.7z    M370.6,92c0-6.9-4.9-10.6-7.2-10.6c-4.1,0-6.1,3-6.1,29.1c0,34.1,1.6,37.3,5.9,37.3c3.9,0,7.4-4.4,7.4-11.3L370.6,92L370.6,92z"/>
	<path class="st0" d="M406,123.3c0,17.8,2.8,24.6,10.3,24.6c5.4,0,8-2.3,11.5-6.6c0.3-0.4,0.7-0.7,1.2-0.7c0.5,0,0.6,0.3,0.5,0.9   c-2,6.8-7,12.6-15.1,12.6c-14.9,0-21.2-12.7-21.2-44.4c0-21.5,7.2-34.2,18.7-34.2c9.5,0,17.7,5.9,17.7,26.6v8.8   c0,1-0.3,1.7-1.5,1.7H406L406,123.3L406,123.3z M418.2,107V92.9c0-7.5-2.3-11.5-6.2-11.5c-4.3,0-5.9,4-5.9,11.5V107L418.2,107   L418.2,107z"/>
	<path class="st0" d="M452.3,146.2c0,0.6,0,1,0.2,1.3l5.6,4.9c0.5,0.3,0.6,0.7,0.6,1c0,0.4-0.3,0.6-1,0.6h-22c-0.7,0-1-0.1-1-0.6   c0-0.3,0.2-0.7,0.6-1l5.1-4.9c0.3-0.3,0.3-0.7,0.3-1.3V82.1c0-0.6-0.2-0.8-0.7-1.1l-4.8-4c-0.5-0.4-0.6-0.8-0.6-1.1   c0-0.4,0.3-0.6,1-0.6h15.7c0.5,0,0.8,0.3,0.8,0.8V81h0.3c2.6-2.8,5.4-5.7,9.2-5.7c5.4,0,8.9,7.5,8.9,12c0,0.7-0.2,1.3-0.8,1.3   c-0.6,0-1-0.6-1.3-1.3c-1.8-3.8-5.1-5.4-8.5-5.4c-4.8,0-7.7,5.8-7.7,13L452.3,146.2L452.3,146.2z"/>
</g>
<path class="st1" d="M282.7,55.4c0,3.7-2.6,7.5-5.9,7.5c-3.5,0-6.1-3.8-6.1-7.5c0-3.8,2.6-7.5,6.1-7.5  C280.1,47.9,282.7,51.6,282.7,55.4z"/>
<g>
	<path class="st0" d="M20.6,145.9c0,0.6,0,1,0.2,1.3l5.6,4.9c0.5,0.3,0.7,0.7,0.7,1c0,0.4-0.3,0.6-1,0.6H4c-0.7,0-1-0.1-1-0.6   c0-0.3,0.2-0.7,0.6-1l5.1-4.9c0.3-0.3,0.3-0.7,0.3-1.3v-64c0-0.6-0.2-0.8-0.6-1.1l-4.8-3.9C3.2,76.4,3,76,3,75.7   c0-0.4,0.3-0.6,1-0.6h15.8c0.5,0,0.8,0.3,0.8,0.8v4.8h0.3c2.6-2.8,5.4-5.6,9.2-5.6c5.4,0,8.9,7.5,8.9,12c0,0.7-0.2,1.3-0.8,1.3   c-0.7,0-1-0.6-1.3-1.3c-1.8-3.8-5.1-5.4-8.5-5.4c-4.8,0-7.7,5.8-7.7,13L20.6,145.9L20.6,145.9z"/>
	<path class="st0" d="M80.8,111c0,34.9-8.9,42.7-19.5,42.7c-10.5,0-19.3-7.8-19.3-42.7c0-27.9,8.8-35.9,19.3-35.9   C71.9,75.1,80.8,83.2,80.8,111z M67.9,111c0-24.6-2.3-29.8-6.7-29.8c-4.3,0-6.6,5.2-6.6,29.8c0,31.8,2.3,36.6,6.6,36.6   C65.7,147.6,67.9,142.8,67.9,111z"/>
	<path class="st0" d="M128.6,145.9c0,0.6,0,1,0.2,1.3l5.1,4.9c0.5,0.3,0.8,0.7,0.8,1c0,0.4-0.5,0.6-1.1,0.6h-15.3   c-0.6,0-1.1-0.3-1.1-0.6v-4.8h-0.3c-2.8,2.8-5.7,5.4-11,5.4c-9.5,0-13.9-4.8-13.9-14.4V81.9c0-0.6-0.2-0.8-0.5-1.1l-4.9-3.9   c-0.3-0.4-0.7-0.8-0.7-1.1c0-0.4,0.5-0.6,1-0.6h15.8c0.5,0,0.8,0.3,0.8,0.8v63.5c0,5.4,2.1,8.2,6.4,8.2c3.9,0,7.4-4.4,7.4-11.3   V81.9c0-0.6-0.2-0.8-0.5-1.1l-4.8-3.9c-0.5-0.4-0.8-0.8-0.8-1.1c0-0.4,0.5-0.6,1-0.6h15.8c0.6,0,0.8,0.3,0.8,0.8L128.6,145.9   L128.6,145.9z"/>
	<path class="st0" d="M153.9,142.6c0,3,1.6,5.1,3.9,5.1c2,0,4.1-1.6,5.1-3c0.3-0.3,0.7-0.6,1-0.6s0.6,0.4,0.5,0.8   c-1.1,4-4.4,8.8-11.3,8.8s-10.7-2.7-10.7-14.3V82.2c0-0.6,0-1.4-0.5-1.8l-4.8-3.9c-0.3-0.3-0.8-0.6-0.8-0.8c0-0.4,0.7-0.8,2.3-1   c7.2-1.1,8-11.9,8-17.5c0-0.7,0.5-1.3,1.3-1.3h4.9c0.7,0,1,0.3,1,1V73c0,0.7,0.2,1.3,1.3,1.3h3.8c0.8,0,1,1,0,1.7l-3.8,3.7   c-0.5,0.7-1.3,1.6-1.3,2.5L153.9,142.6L153.9,142.6z"/>
	<path class="st0" d="M181.4,123c0,17.8,2.8,24.6,10.3,24.6c5.4,0,8-2.3,11.5-6.6c0.3-0.4,0.7-0.7,1.1-0.7c0.5,0,0.6,0.3,0.5,0.9   c-2,6.8-7.1,12.6-15.1,12.6c-14.9,0-21.1-12.7-21.1-44.4c0-21.5,7.2-34.2,18.7-34.2c9.5,0,17.7,5.9,17.7,26.6v8.8   c0,1-0.3,1.7-1.5,1.7h-22.1L181.4,123L181.4,123z M193.6,106.8V92.6c0-7.5-2.3-11.4-6.2-11.4c-4.3,0-5.9,4-5.9,11.4v14.1   L193.6,106.8L193.6,106.8z"/>
</g>
<line class="st2" x1="218.8" y1="84.9" x2="257.5" y2="84"/>
<path class="st2" d="M278,12.9c-17.7,0-46.2,3.4-45.8,24.3c0.3,19.1-1.5,140.9,5.9,144.2"/>
</svg>