<?xml version="1.0" encoding="utf-8"?>
<!-- Generator: Adobe Illustrator 23.0.3, SVG Export Plug-In . SVG Version: 6.00 Build 0)  -->
<svg version="1.1" id="Layer_1" xmlns="http://www.w3.org/2000/svg" xmlns:xlink="http://www.w3.org/1999/xlink" x="0px" y="0px"
	 viewBox="0 0 315 137" style="enable-background:new 0 0 315 137;" xml:space="preserve">
<style type="text/css">
	.st0{fill:#FFFFFF;}
	.st1{fill:none;stroke:#FF0000;stroke-width:8.8862;stroke-linecap:round;stroke-miterlimit:10;}
	.st2{fill:#FF0000;}
	.st3{fill:none;stroke:#FF0000;stroke-width:8.9861;stroke-linecap:round;stroke-miterlimit:10;}
	.st4{fill:#FEFEFE;}
</style>
<g>
	<path class="st0" d="M168.3,57.9c0-0.4-0.1-0.7-0.4-0.9l-3.6-3c-0.2-0.3-0.5-0.7-0.5-0.9c0-0.3,0.4-0.4,0.7-0.4H176
		c0.4,0,0.6,0.2,0.6,0.7v53.4c0,0.4,0,0.8,0.2,1l3.7,3.8c0.2,0.2,0.5,0.5,0.5,0.8c0,0.3-0.2,0.4-0.7,0.4h-15.7
		c-0.4,0-0.7-0.1-0.7-0.4c0-0.2,0.2-0.5,0.5-0.8l3.7-3.8c0.2-0.2,0.2-0.5,0.2-1L168.3,57.9L168.3,57.9z"/>
	<path class="st0" d="M197,56.4h0.2c2.1-2,4.1-3.8,8.2-3.8c5.9,0,9.8,3.8,9.8,11v43c0,0.4,0,0.8,0.2,1l3.7,3.8
		c0.2,0.2,0.5,0.5,0.5,0.8c0,0.3-0.4,0.4-0.7,0.4h-15.7c-0.5,0-0.7-0.1-0.7-0.4c0-0.2,0.2-0.5,0.5-0.8l3.7-3.8
		c0.2-0.2,0.2-0.5,0.2-1V63.6c0-4.1-1.3-6.3-4-6.3c-2.9,0-5.9,3.6-5.9,9.4v40c0,0.4,0,0.8,0.1,1l3.7,3.8c0.4,0.2,0.6,0.5,0.6,0.8
		c0,0.3-0.4,0.4-0.7,0.4H185c-0.5,0-0.7-0.1-0.7-0.4c0-0.2,0.1-0.5,0.5-0.8l3.7-3.8c0.2-0.2,0.2-0.5,0.2-1V57.9
		c0-0.4-0.1-0.7-0.4-0.9l-3.6-3c-0.2-0.3-0.5-0.7-0.5-0.9c0-0.3,0.4-0.4,0.7-0.4h11.4c0.5,0,0.6,0.2,0.6,0.7L197,56.4L197,56.4z"/>
	<path class="st0" d="M242.2,36.9c0-0.4-0.1-0.7-0.5-0.9l-3.4-3.1c-0.4-0.2-0.6-0.5-0.6-0.8c0-0.3,0.4-0.4,0.8-0.4h11.3
		c0.5,0,0.7,0.2,0.7,0.7v74.3c0,0.4,0,0.8,0.1,1l3.7,3.8c0.4,0.2,0.6,0.5,0.6,0.8c0,0.3-0.4,0.4-0.8,0.4h-11c-0.5,0-0.8-0.2-0.8-0.4
		v-3.7h-0.2c-2,2.2-4.1,4.1-8,4.1c-5.2,0-10.7-2.7-10.7-33.1c0-24,5.9-26.8,10.8-26.8c3.4,0,5.8,1.7,7.8,3.8h0.2L242.2,36.9
		L242.2,36.9z M242.2,65.4c0-5.3-3.6-8.1-5.2-8.1c-3,0-4.4,2.3-4.4,22.2c0,26,1.2,28.5,4.3,28.5c2.9,0,5.3-3.3,5.3-8.6L242.2,65.4
		L242.2,65.4z"/>
	<path class="st0" d="M267.5,89.2c0,13.6,2,18.8,7.5,18.8c3.9,0,5.8-1.7,8.3-5.1c0.2-0.3,0.5-0.5,0.8-0.5c0.4,0,0.5,0.2,0.4,0.7
		c-1.4,5.2-5.1,9.6-10.9,9.6c-10.8,0-15.3-9.7-15.3-33.9c0-16.4,5.2-26.1,13.5-26.1c6.9,0,12.8,4.5,12.8,20.3v6.7
		c0,0.8-0.2,1.3-1.1,1.3h-16L267.5,89.2L267.5,89.2z M276.3,76.8V66.1c0-5.7-1.7-8.7-4.5-8.7c-3.1,0-4.3,3-4.3,8.7v10.8H276.3z"/>
	<path class="st0" d="M301,106.7c0,0.4,0,0.8,0.1,1l4,3.8c0.4,0.2,0.5,0.5,0.5,0.8c0,0.3-0.2,0.4-0.7,0.4H289
		c-0.5,0-0.7-0.1-0.7-0.4c0-0.2,0.1-0.5,0.5-0.8l3.7-3.8c0.2-0.2,0.2-0.5,0.2-1V57.9c0-0.4-0.1-0.7-0.5-0.9l-3.4-3
		c-0.4-0.3-0.5-0.7-0.5-0.9c0-0.3,0.2-0.4,0.7-0.4h11.4c0.4,0,0.6,0.2,0.6,0.7V57h0.2c1.9-2.2,3.9-4.3,6.6-4.3
		c3.9,0,6.4,5.7,6.4,9.2c0,0.5-0.1,1-0.6,1c-0.5,0-0.7-0.4-1-1c-1.3-2.9-3.7-4.1-6.2-4.1c-3.4,0-5.6,4.4-5.6,9.9L301,106.7
		L301,106.7z"/>
</g>
<path class="st1" d="M126.6,59.4c10,0,18.9,0,28.9,0"/>
<ellipse class="st2" cx="171.3" cy="37.6" rx="5.2" ry="7.1"/>
<path class="st3" d="M167.8,5.3c0,0-5.9,0.7-8.9,1.1c-2.6,0.4-9.4,2.3-14.2,5.3c-6.8,4.2-9.7,8.4-9.6,15.3c0.2,9.1,1.1,32,1.3,36.8
	c0.2,4.8,1.6,31,2.5,43.7c0.8,12.1,2.1,23.4,2.1,23.9"/>
<path class="st0" d="M40.2,104.4c0,2.4,1.3,4.2,3.1,4.2c1.5,0,3.2-1.3,3.9-2.4c0.3-0.2,0.5-0.5,0.8-0.5c0.3,0,0.5,0.3,0.4,0.7
	c-0.9,3.2-3.4,7.2-8.8,7.2s-8.3-2.2-8.3-11.7V55c0-0.5,0-1.2-0.4-1.5l-3.7-3.2c-0.3-0.2-0.6-0.5-0.6-0.7c0-0.3,0.5-0.7,1.8-0.8
	c5.6-0.9,6.2-9.7,6.2-14.4c0-0.6,0.4-1,1-1h3.8c0.5,0,0.8,0.2,0.8,0.8v13.3c0,0.6,0.1,1,1,1h2.9c0.6,0,0.8,0.8,0,1.4l-2.9,3
	c-0.4,0.6-1,1.3-1,2.1L40.2,104.4L40.2,104.4z"/>
<path class="st0" d="M91.2,57.3c0-0.3-0.1-0.7-0.5-0.8L87.3,54c-0.4-0.3-0.5-0.7-0.5-0.9c0-0.3,0.2-0.4,0.7-0.4h11.4
	c0.4,0,0.6,0.2,0.6,0.7v3.1h0.2c2-2,4.4-3.8,7.8-3.8c5.1,0,10.8,2.8,10.8,26.9c-0.2,30.4-5.7,33.1-10.9,33.1c-3.8,0-5.9-1.9-7.7-4.1
	h-0.2v12.5c0,0.3,0,0.8,0.1,0.9l3.7,3.8c0.4,0.3,0.6,0.5,0.6,0.9c0,0.2-0.4,0.3-0.7,0.3H87.6c-0.5,0-0.7-0.1-0.7-0.3
	c0-0.3,0.1-0.5,0.5-0.9L91,122c0.2-0.1,0.2-0.5,0.2-0.9L91.2,57.3L91.2,57.3z M99.5,100.1c0,4.5,3.2,8,5.8,8s3.8-2.5,3.8-28.5
	c0-19.9-1.4-22.2-4.4-22.2c-1.7,0-5.2,2.8-5.2,8.1V100.1z"/>
<g>
	<path class="st0" d="M22.1,74.4c0,0.4-0.2,0.9-0.7,0.9c-0.4,0-0.6-0.4-0.7-1c-0.7-3.4-1.6-6.7-3.6-11.4c-1.6-3.5-3.3-5.5-5.6-5.5
		c-2.5,0-3,2.6-3,5.9c0,4.6,2.5,10.9,7.4,17.9c4.6,6.7,7.8,14.4,7.8,21.5c0,6.8-5.3,11-10.4,11c-3.4,0-5.4-1.4-7.3-3.5l-3.1,3
		c-0.4,0.2-0.7,0.6-1.2,0.6c-0.2,0-0.4-0.3-0.4-0.8V91.8c0-0.3,0.1-0.8,0.5-0.8c0.6,0,0.6,0.4,0.7,1C4.4,101,7.2,109,11.7,109
		c2.7,0,3.9-1.9,3.9-4.7c0-6.8-3.9-14.1-7.7-19.8c-4.3-6.6-6.9-13.4-6.9-20.1c0-7.1,4.8-11.8,9.2-11.8c2.9,0,5.1,1.3,7.1,3.5
		l3.5-2.8c0.2-0.2,0.5-0.7,0.8-0.7c0.2,0,0.5,0.5,0.5,1.1L22.1,74.4L22.1,74.4z"/>
</g>
<path class="st4" d="M81.7,80.4c0,27.4-6.9,33.5-15.3,33.5c-8.2,0-15.2-6.1-15.2-33.5c0-21.9,6.9-28.2,15.2-28.2
	C74.7,52.2,81.7,58.5,81.7,80.4z M71.7,80.4c0-19.3-1.8-23.4-5.3-23.4c-3.3,0-5.2,4.1-5.2,23.4c0,25,1.8,28.8,5.2,28.8
	C69.9,109.1,71.7,105.4,71.7,80.4z"/>
</svg>
