<?xml version="1.0" encoding="utf-8"?>
<!-- Generator: Adobe Illustrator 24.1.1, SVG Export Plug-In . SVG Version: 6.00 Build 0)  -->
<svg version="1.1" id="Layer_1" xmlns="http://www.w3.org/2000/svg" xmlns:xlink="http://www.w3.org/1999/xlink" x="0px" y="0px"
	 viewBox="0 0 424.5 121" style="enable-background:new 0 0 424.5 121;" xml:space="preserve">
<style type="text/css">
	.st0{fill:#FFFFFF;}
</style>
<g>
	<path class="st0" d="M268.1,94.7c0,0.4,0,0.6,0.1,0.8l3.6,3.2c0.3,0.2,0.4,0.4,0.4,0.6c0,0.3-0.2,0.3-0.6,0.3h-14.2
		c-0.4,0-0.6-0.1-0.6-0.3c0-0.2,0.1-0.4,0.4-0.6l3.3-3.2c0.2-0.2,0.2-0.4,0.2-0.8V54c0-0.4-0.1-0.5-0.4-0.7l-3.1-2.5
		c-0.3-0.3-0.4-0.5-0.4-0.7c0-0.3,0.2-0.4,0.6-0.4h10.2c0.3,0,0.5,0.2,0.5,0.5v3h0.2c1.7-1.8,3.5-3.6,5.9-3.6c3.5,0,5.7,4.8,5.7,7.6
		c0,0.5-0.1,0.8-0.5,0.8s-0.6-0.4-0.9-0.8c-1.2-2.4-3.3-3.4-5.5-3.4c-3.1,0-5,3.7-5,8.3V94.7z"/>
	<path class="st0" d="M124.2,54.2c0-0.4-0.1-0.5-0.3-0.7l-3.2-2.5c-0.2-0.3-0.4-0.5-0.4-0.7c0-0.3,0.3-0.4,0.6-0.4h10.2
		c0.3,0,0.5,0.2,0.5,0.5v44.4c0,0.4,0,0.6,0.2,0.8l3.3,3.2c0.2,0.2,0.4,0.4,0.4,0.6c0,0.3-0.2,0.3-0.6,0.3h-14
		c-0.3,0-0.6-0.1-0.6-0.3c0-0.2,0.2-0.4,0.4-0.6l3.3-3.2c0.2-0.2,0.2-0.4,0.2-0.8V54.2z"/>
	<path class="st0" d="M153.9,53.1h0.2c1.9-1.7,3.7-3.1,7.3-3.1c5.3,0,8.8,3.1,8.8,9.2v35.8c0,0.4,0,0.6,0.2,0.8l3.3,3.2
		c0.2,0.2,0.4,0.4,0.4,0.6c0,0.3-0.3,0.3-0.6,0.3h-14c-0.4,0-0.6-0.1-0.6-0.3c0-0.2,0.2-0.4,0.4-0.6l3.3-3.2
		c0.2-0.2,0.2-0.4,0.2-0.8V59c0-3.4-1.2-5.2-3.6-5.2c-2.5,0-5.3,3-5.3,7.8v33.3c0,0.4,0,0.6,0.1,0.8l3.3,3.2
		c0.3,0.2,0.5,0.4,0.5,0.6c0,0.3-0.3,0.3-0.6,0.3h-14c-0.4,0-0.6-0.1-0.6-0.3c0-0.2,0.1-0.4,0.4-0.6l3.3-3.2
		c0.2-0.2,0.2-0.4,0.2-0.8V54.2c0-0.4-0.1-0.5-0.3-0.7L143,51c-0.2-0.3-0.4-0.5-0.4-0.7c0-0.3,0.3-0.4,0.6-0.4h10.2
		c0.4,0,0.5,0.2,0.5,0.5L153.9,53.1L153.9,53.1z"/>
	<path class="st0" d="M52.3,36.8c0-0.4-0.1-0.5-0.4-0.7l-3.1-2.6c-0.3-0.2-0.5-0.4-0.5-0.6c0-0.3,0.3-0.3,0.7-0.3h10.1
		c0.4,0,0.6,0.2,0.6,0.5v61.8c0,0.4,0,0.6,0.1,0.8l3.3,3.2c0.3,0.2,0.5,0.4,0.5,0.6c0,0.3-0.3,0.3-0.8,0.3H53
		c-0.4,0-0.7-0.2-0.7-0.3v-3h-0.2c-1.8,1.8-3.7,3.4-7.1,3.4c-4.7,0-9.5-2.2-9.5-27.6c0-20,5.3-22.3,9.6-22.3c3.1,0,5.2,1.4,7,3.1
		h0.2L52.3,36.8L52.3,36.8z M52.3,60.5c0-4.4-3.2-6.7-4.7-6.7c-2.7,0-3.9,1.9-3.9,18.5c0,21.6,1.1,23.7,3.8,23.7
		c2.5,0,4.8-2.8,4.8-7.2C52.3,88.8,52.3,60.5,52.3,60.5z"/>
	<path class="st0" d="M131.6,39.3c0,2.3-1.7,4.8-3.8,4.8c-2.2,0-3.9-2.4-3.9-4.8c0-2.4,1.7-4.8,3.9-4.8
		C129.9,34.5,131.6,36.8,131.6,39.3z"/>
	<g>
		<path class="st0" d="M24.1,93.6c0,1.2,0.4,2.3,1.2,2.3c0.9,0,2-0.5,2.7-1.6c0.2-0.2,0.3-0.4,0.5-0.4s0.3,0.2,0.3,0.5
			c-0.4,2.7-2.5,5.5-4.9,5.5c-2.9,0-4.4-1.9-5.5-3.6c-1.5,1.7-3.9,3.6-6.4,3.6c-3.6,0-8.1-2.3-8.1-15.1c0-10.5,1.6-13.3,11.9-21.5
			c1.9-1.5,1.9-2.3,1.9-6.2c0-4.1-0.9-5.1-3.9-5.1c-2.7,0-6.6,2.2-8.3,3.8c-0.2,0.2-0.5,0.3-0.8,0.3c-0.2,0-0.3-0.2-0.3-0.5
			c0-1.1,5.3-7.7,10.6-7.7c3.4,0,9.2,2.1,9.2,11.7L24.1,93.6L24.1,93.6z M17.6,65.9h-0.2c-5.1,4.4-6.6,7.7-6.6,17.2
			c0,10.7,1,12.8,3.1,12.8c2.1,0,3.7-2.9,3.7-5.5C17.6,90.4,17.6,65.9,17.6,65.9z"/>
	</g>
	<g>
		<path class="st0" d="M74.7,53.2c0-0.4-0.1-0.5-0.3-0.7l-2.9-2.6c-0.2-0.3-0.4-0.5-0.4-0.7c0-0.3,0.3-0.4,0.6-0.4H81
			c0.4,0,0.5,0.2,0.5,0.5V52h0.2c1.8-1.7,3.4-3.2,6.7-3.2c3,0,5,1.5,6.2,3.2c1.8-1.7,4.1-3.2,7.4-3.2c4.4,0,7.7,3.2,7.7,9.3v36.5
			c0,0.4,0,0.6,0.2,0.8l3,3.2c0.3,0.2,0.4,0.5,0.4,0.6c0,0.3-0.2,0.4-0.6,0.4H99.9c-0.3,0-0.6-0.1-0.6-0.4c0-0.2,0.2-0.5,0.5-0.6
			l2.9-3.2c0.2-0.2,0.2-0.5,0.2-0.8V58c0-3.5-0.8-5.3-2.7-5.3c-2,0-4.6,3-4.6,8v34c0,0.4,0,0.6,0.2,0.8l2.3,3.2
			c0.2,0.2,0.3,0.5,0.3,0.6c0,0.3-0.2,0.4-0.6,0.4H86.6c-0.3,0-0.6-0.1-0.6-0.4c0-0.2,0.2-0.5,0.4-0.6l2.2-3.2
			c0.2-0.2,0.2-0.5,0.2-0.8V58c0-3.5-0.8-5.3-2.7-5.3c-2.1,0-4.6,3-4.6,8v34c0,0.4,0,0.6,0.2,0.8l3,3.2c0.2,0.2,0.4,0.5,0.4,0.6
			c0,0.3-0.2,0.4-0.6,0.4H71.7c-0.3,0-0.6-0.1-0.6-0.4c0-0.2,0.2-0.5,0.4-0.6l3-3.2c0.2-0.2,0.2-0.5,0.2-0.8L74.7,53.2L74.7,53.2z"
			/>
	</g>
	<path class="st0" d="M186.2,54.2c0-0.4-0.1-0.5-0.3-0.7l-3.2-2.5c-0.2-0.3-0.4-0.5-0.4-0.7c0-0.3,0.3-0.4,0.6-0.4h10.2
		c0.3,0,0.5,0.2,0.5,0.5v44.4c0,0.4,0,0.6,0.2,0.8l3.3,3.2c0.2,0.2,0.4,0.4,0.4,0.6c0,0.3-0.2,0.3-0.6,0.3h-14
		c-0.3,0-0.6-0.1-0.6-0.3c0-0.2,0.2-0.4,0.4-0.6l3.3-3.2c0.2-0.2,0.2-0.4,0.2-0.8V54.2z"/>
	<path class="st0" d="M191.6,39.3c0,2.3-1.7,4.8-3.8,4.8c-2.2,0-3.9-2.4-3.9-4.8c0-2.4,1.7-4.8,3.9-4.8
		C189.9,34.5,191.6,36.8,191.6,39.3z"/>
	<path class="st0" d="M224.4,67.6c0,0.4-0.2,0.8-0.6,0.8c-0.3,0-0.5-0.4-0.7-0.8c-0.7-2.9-1.4-5.7-3.3-9.7c-1.4-3-2.9-4.7-5-4.7
		c-2.3,0-2.7,2.2-2.7,5c0,3.9,2.3,9.3,6.6,15.2c4.1,5.7,7,12.2,7,18.3c0,5.8-4.8,9.3-9.3,9.3c-3,0-4.9-1.2-6.5-3l-2.8,2.5
		c-0.3,0.2-0.7,0.5-1.1,0.5c-0.2,0-0.3-0.3-0.3-0.7V82.5c0-0.3,0.1-0.7,0.4-0.7c0.5,0,0.5,0.4,0.6,0.8c1.7,7.6,4.2,14.4,8.2,14.4
		c2.4,0,3.5-1.6,3.5-4c0-5.8-3.5-11.9-6.9-16.8c-3.9-5.6-6.2-11.4-6.2-17.1c0-6.1,4.3-10,8.2-10c2.6,0,4.5,1.1,6.4,3l3.1-2.4
		c0.2-0.2,0.4-0.6,0.8-0.6c0.2,0,0.4,0.5,0.4,0.9L224.4,67.6L224.4,67.6z"/>
	<path class="st0" d="M244.4,93.2c0,1.9,1.1,3.2,2.5,3.2c1.3,0,2.6-1,3.3-1.9c0.2-0.2,0.4-0.4,0.6-0.4c0.2,0,0.4,0.3,0.3,0.5
		c-0.8,2.5-2.9,5.6-7.3,5.6c-4.5,0-6.9-1.7-6.9-9.1V54.9c0-0.4,0-0.9-0.3-1.2l-3.1-2.5c-0.2-0.2-0.5-0.4-0.5-0.5
		c0-0.3,0.4-0.5,1.5-0.6c4.7-0.7,5.2-7.5,5.2-11.1c0-0.5,0.3-0.8,0.9-0.8h3.2c0.4,0,0.6,0.2,0.6,0.6v10.3c0,0.5,0.1,0.8,0.9,0.8h2.4
		c0.5,0,0.6,0.6,0,1.1l-2.4,2.3c-0.3,0.5-0.9,1-0.9,1.6L244.4,93.2L244.4,93.2z"/>
	<g>
		<path class="st0" d="M306.1,93.6c0,1.2,0.4,2.3,1.2,2.3c0.9,0,2-0.5,2.7-1.6c0.2-0.2,0.3-0.4,0.5-0.4s0.3,0.2,0.3,0.5
			c-0.4,2.7-2.5,5.5-4.9,5.5c-2.9,0-4.4-1.9-5.5-3.6c-1.5,1.7-3.9,3.6-6.5,3.6c-3.6,0-8.1-2.3-8.1-15.1c0-10.5,1.6-13.3,11.9-21.5
			c1.9-1.5,1.9-2.3,1.9-6.2c0-4.1-0.9-5.1-3.9-5.1c-2.7,0-6.6,2.2-8.3,3.8c-0.2,0.2-0.5,0.3-0.8,0.3c-0.2,0-0.3-0.2-0.3-0.5
			c0-1.1,5.3-7.7,10.6-7.7c3.4,0,9.3,2.1,9.3,11.7L306.1,93.6L306.1,93.6z M299.6,65.9h-0.2c-5.1,4.4-6.6,7.7-6.6,17.2
			c0,10.7,1,12.8,3.1,12.8c2.1,0,3.7-2.9,3.7-5.5L299.6,65.9L299.6,65.9z"/>
	</g>
	<path class="st0" d="M326.4,93.2c0,1.9,1.1,3.2,2.5,3.2c1.3,0,2.6-1,3.3-1.9c0.2-0.2,0.4-0.4,0.6-0.4c0.2,0,0.4,0.3,0.3,0.5
		c-0.8,2.5-2.9,5.6-7.3,5.6c-4.5,0-6.9-1.7-6.9-9.1V54.9c0-0.4,0-0.9-0.3-1.2l-3.1-2.5c-0.2-0.2-0.5-0.4-0.5-0.5
		c0-0.3,0.4-0.5,1.5-0.6c4.7-0.7,5.2-7.5,5.2-11.1c0-0.5,0.3-0.8,0.9-0.8h3.2c0.4,0,0.6,0.2,0.6,0.6v10.3c0,0.5,0.1,0.8,0.9,0.8h2.4
		c0.5,0,0.6,0.6,0,1.1l-2.4,2.3c-0.3,0.5-0.9,1-0.9,1.6L326.4,93.2L326.4,93.2z"/>
	<path class="st0" d="M340.2,54.2c0-0.4-0.1-0.5-0.3-0.7l-3.2-2.5c-0.2-0.3-0.4-0.5-0.4-0.7c0-0.3,0.3-0.4,0.6-0.4h10.2
		c0.3,0,0.5,0.2,0.5,0.5v44.4c0,0.4,0,0.6,0.2,0.8l3.3,3.2c0.2,0.2,0.4,0.4,0.4,0.6c0,0.3-0.2,0.3-0.6,0.3h-14
		c-0.3,0-0.6-0.1-0.6-0.3c0-0.2,0.2-0.4,0.4-0.6l3.3-3.2c0.2-0.2,0.2-0.4,0.2-0.8V54.2z"/>
	<path class="st0" d="M347.6,39.3c0,2.3-1.7,4.8-3.8,4.8c-2.2,0-3.9-2.4-3.9-4.8c0-2.4,1.7-4.8,3.9-4.8
		C345.9,34.5,347.6,36.8,347.6,39.3z"/>
	<path class="st0" d="M382.7,72.9c0,22.4-5.7,27.3-12.5,27.3c-6.7,0-12.4-5-12.4-27.3c0-17.8,5.7-23,12.4-23
		C377.1,49.9,382.7,55.1,382.7,72.9z M374.6,72.9c0-15.8-1.5-19.1-4.3-19.1c-2.7,0-4.2,3.3-4.2,19.1c0,20.4,1.5,23.4,4.2,23.4
		C373.1,96.4,374.6,93.3,374.6,72.9z"/>
	<path class="st0" d="M399.9,53.1h0.2c1.9-1.7,3.7-3.1,7.3-3.1c5.3,0,8.8,3.1,8.8,9.2v35.8c0,0.4,0,0.6,0.2,0.8l3.3,3.2
		c0.2,0.2,0.4,0.4,0.4,0.6c0,0.3-0.3,0.3-0.6,0.3h-14c-0.4,0-0.6-0.1-0.6-0.3c0-0.2,0.2-0.4,0.4-0.6l3.3-3.2
		c0.2-0.2,0.2-0.4,0.2-0.8V59c0-3.4-1.2-5.2-3.6-5.2c-2.5,0-5.3,3-5.3,7.8v33.3c0,0.4,0,0.6,0.1,0.8l3.3,3.2
		c0.3,0.2,0.5,0.4,0.5,0.6c0,0.3-0.3,0.3-0.6,0.3h-14c-0.4,0-0.6-0.1-0.6-0.3c0-0.2,0.1-0.4,0.4-0.6l3.3-3.2
		c0.2-0.2,0.2-0.4,0.2-0.8V54.2c0-0.4-0.1-0.5-0.3-0.7L389,51c-0.2-0.3-0.4-0.5-0.4-0.7c0-0.3,0.3-0.4,0.6-0.4h10.2
		c0.4,0,0.5,0.2,0.5,0.5L399.9,53.1L399.9,53.1z"/>
</g>
</svg>
