<?xml version="1.0" encoding="utf-8"?>
<!-- Generator: Adobe Illustrator 22.1.0, SVG Export Plug-In . SVG Version: 6.00 Build 0)  -->
<svg version="1.1" id="Layer_1" xmlns="http://www.w3.org/2000/svg" xmlns:xlink="http://www.w3.org/1999/xlink" x="0px" y="0px"
	 viewBox="0 0 87.9 38" style="enable-background:new 0 0 87.9 38;" xml:space="preserve">
<style type="text/css">
	.st0{fill:#FFFFFF;}
	.st1{fill:#80BC00;}
</style>
<g>
	<path class="st0" d="M3.8,29.3c0,0.6,0.3,1.1,0.9,1.1c0.4,0,0.9-0.3,1.1-0.6c0.1-0.1,0.1-0.1,0.2-0.1C6,29.6,6,29.7,6,29.8
		c-0.3,0.9-0.9,1.9-2.5,1.9c-1.5,0-2.3-0.5-2.3-3V16.5c0-0.1,0-0.3-0.1-0.4l-1-0.9C0.1,15.2,0,15.1,0,15c0-0.1,0.1-0.2,0.5-0.2
		c1.5-0.3,1.7-2.5,1.7-3.7c0-0.1,0.1-0.3,0.3-0.3h1.1c0.1,0,0.2,0.1,0.2,0.2v3.5c0,0.1,0.1,0.3,0.3,0.3h0.8c0.2,0,0.2,0.2,0,0.3
		L4,15.9c-0.1,0.1-0.3,0.3-0.3,0.5L3.8,29.3L3.8,29.3z"/>
	<path class="st0" d="M10.7,30c0,0.1,0,0.2,0.1,0.3l1.2,1.1c0.1,0.1,0.1,0.1,0.1,0.2c0,0.1-0.1,0.1-0.2,0.1H7.2
		c-0.1,0-0.2,0-0.2-0.1c0-0.1,0.1-0.1,0.1-0.2l1.1-1.1c0.1-0.1,0.1-0.1,0.1-0.3V16.4c0-0.1-0.1-0.2-0.1-0.3l-1-0.9
		C7,15.2,7,15.1,7,15C7,15,7,14.9,7.2,14.9h3.4c0.1,0,0.2,0.1,0.2,0.2v1h0.1c0.5-0.6,1.1-1.2,2-1.2c1.2,0,1.9,1.6,1.9,2.5
		c0,0.1-0.1,0.3-0.2,0.3s-0.2-0.1-0.3-0.3c-0.4-0.8-1.1-1.1-1.9-1.1c-1,0-1.7,1.2-1.7,2.7L10.7,30L10.7,30z"/>
	<path class="st0" d="M16.7,16.4c0-0.1-0.1-0.2-0.1-0.3l-1.1-0.9c-0.1-0.1-0.1-0.2-0.1-0.3c0-0.1,0.1-0.1,0.2-0.1h3.4
		c0.1,0,0.2,0.1,0.2,0.2v14.8c0,0.1,0,0.2,0.1,0.3l1.1,1.1c0.1,0.1,0.1,0.1,0.1,0.2c0,0.1-0.1,0.1-0.2,0.1h-4.7
		c-0.1,0-0.2,0-0.2-0.1c0-0.1,0.1-0.1,0.1-0.2l1.1-1.1c0.1-0.1,0.1-0.1,0.1-0.3L16.7,16.4L16.7,16.4z M19.1,10.9
		c0,0.8-0.5,1.6-1.3,1.6c-0.7,0-1.3-0.8-1.3-1.6c0-0.8,0.5-1.6,1.3-1.6C18.6,9.3,19.1,10.1,19.1,10.9z"/>
	<path class="st0" d="M22.1,16.3c0-0.1,0-0.2-0.1-0.2l-1-0.7c-0.1-0.1-0.1-0.2-0.1-0.3c0-0.1,0.1-0.1,0.2-0.1h3.4
		c0.1,0,0.2,0.1,0.2,0.2v0.9h0.1c0.6-0.6,1.3-1.1,2.3-1.1c1.5,0,3.2,0.8,3.2,7.4c-0.1,8.4-1.7,9.2-3.3,9.2c-1.1,0-1.7-0.5-2.3-1.1
		h-0.1V34c0,0.1,0,0.2,0.1,0.3l1.1,1.1c0.1,0.1,0.2,0.1,0.2,0.3c0,0.1-0.1,0.1-0.2,0.1h-4.7c-0.1,0-0.2,0-0.2-0.1s0.1-0.1,0.1-0.3
		l1.1-1.1c0.1,0,0.1-0.1,0.1-0.3C22.1,34,22.1,16.3,22.1,16.3z M24.6,28.1c0,1.3,0.9,2.2,1.7,2.2c0.8,0,1.1-0.7,1.1-7.8
		c0-5.5-0.4-6.1-1.3-6.1c-0.5,0-1.5,0.8-1.5,2.3V28.1z"/>
	<path class="st1" d="M47,1.1c-0.1-0.7-0.7-1.2-1.3-1.1l-0.2,0c-8.9,0.9-10.7,3.9-10.7,6.3c0,0.7,0,2.1,0,3.9c0,1.7,0,3.4,0,4.9
		l-1.7,0c-0.7,0-1.2,0.6-1.2,1.2c0,0.7,0.6,1.2,1.2,1.2c0,0,0,0,0,0l1.7,0c0.1,18.5,0.8,19.8,2,20.3c0.2,0.1,0.3,0.1,0.5,0.1
		c0.5,0,0.9-0.3,1.1-0.8c0.2-0.5,0.1-1-0.3-1.4c-0.7-1.7-0.8-11-0.9-18.3l4.2-0.1c0.7,0,1.2-0.6,1.2-1.2c0-0.7-0.6-1.2-1.2-1.2
		l-4.1,0.1c0-1.9,0-3.6,0-4.8c0-1.8,0-3.3,0-4c0-1.9,3.1-3.3,8.5-3.9l0.3,0C46.6,2.4,47.1,1.8,47,1.1z"/>
	<path class="st0" d="M45.7,16.5c0-0.1,0-0.2-0.1-0.3l-1.1-0.8c-0.1-0.1-0.1-0.2-0.1-0.3c0-0.1,0.1-0.1,0.2-0.1h3.4
		c0.1,0,0.2,0.1,0.2,0.2V30c0,0.1,0,0.2,0.1,0.3l1.1,1.1c0.1,0.1,0.1,0.1,0.1,0.2c0,0.1-0.1,0.1-0.2,0.1h-4.7c-0.1,0-0.2,0-0.2-0.1
		c0-0.1,0.1-0.1,0.1-0.2l1.1-1.1c0.1-0.1,0.1-0.1,0.1-0.3L45.7,16.5L45.7,16.5z"/>
	<path class="st0" d="M53.5,16.1L53.5,16.1c0.7-0.6,1.3-1.1,2.5-1.1c1.7,0,2.9,1.1,2.9,3.1V30c0,0.1,0,0.2,0.1,0.3l1.1,1.1
		c0.1,0.1,0.1,0.1,0.1,0.2c0,0.1-0.1,0.1-0.2,0.1h-4.7c-0.1,0-0.2,0-0.2-0.1c0-0.1,0.1-0.1,0.1-0.2l1.1-1.1c0.1-0.1,0.1-0.1,0.1-0.3
		V18.1c0-1.1-0.4-1.7-1.2-1.7c-0.9,0-1.8,1-1.8,2.6v11c0,0.1,0,0.2,0.1,0.3l1.1,1.1c0.1,0.1,0.2,0.1,0.2,0.2c0,0.1-0.1,0.1-0.2,0.1
		h-4.7c-0.1,0-0.2,0-0.2-0.1c0-0.1,0.1-0.1,0.1-0.2l1.1-1.1C51,30.2,51,30.1,51,30V16.5c0-0.1,0-0.2-0.1-0.3l-0.9-0.8
		c-0.1-0.1-0.1-0.2-0.1-0.3c0-0.1,0.1-0.1,0.2-0.1h3.4c0.1,0,0.2,0.1,0.2,0.2L53.5,16.1L53.5,16.1z"/>
	<path class="st0" d="M66.9,10.7c0-0.1-0.1-0.2-0.1-0.3l-1-0.9c-0.1-0.1-0.2-0.1-0.2-0.2c0-0.1,0.1-0.1,0.3-0.1h3.3
		c0.1,0,0.2,0.1,0.2,0.2V30c0,0.1,0,0.2,0.1,0.3l1.1,1.1c0.1,0.1,0.2,0.1,0.2,0.2c0,0.1-0.1,0.1-0.3,0.1h-3.3
		c-0.1,0-0.3-0.1-0.3-0.1v-1h-0.1c-0.6,0.6-1.3,1.1-2.3,1.1c-1.5,0-3.2-0.7-3.2-9.2c0-6.6,1.8-7.4,3.2-7.4c1,0,1.7,0.5,2.3,1.1h0.1
		V10.7z M66.9,18.6c0-1.5-1.1-2.3-1.5-2.3c-0.9,0-1.3,0.6-1.3,6.1c0,7.2,0.3,7.8,1.3,7.8c0.9,0,1.6-0.9,1.6-2.4V18.6z"/>
	<path class="st0" d="M73.9,25.2c0,3.8,0.6,5.2,2.2,5.2c1.1,0,1.7-0.5,2.5-1.4c0.1-0.1,0.1-0.1,0.3-0.1c0.1,0,0.1,0.1,0.1,0.2
		c-0.4,1.5-1.5,2.7-3.3,2.7c-3.2,0-4.5-2.7-4.5-9.4c0-4.5,1.5-7.2,4-7.2c2.1,0,3.8,1.3,3.8,5.6v1.9c0,0.2-0.1,0.3-0.3,0.3h-4.7
		L73.9,25.2L73.9,25.2z M76.5,21.8v-3c0-1.6-0.5-2.4-1.3-2.4c-0.9,0-1.3,0.9-1.3,2.4v3H76.5z"/>
	<path class="st0" d="M83.8,30c0,0.1,0,0.2,0.1,0.3l1.2,1.1c0.1,0.1,0.1,0.1,0.1,0.2c0,0.1-0.1,0.1-0.2,0.1h-4.7
		c-0.1,0-0.2,0-0.2-0.1c0-0.1,0.1-0.1,0.1-0.2l1.1-1.1c0.1-0.1,0.1-0.1,0.1-0.3V16.5c0-0.1-0.1-0.2-0.1-0.3l-1-0.9
		c-0.1-0.1-0.1-0.2-0.1-0.3c0-0.1,0.1-0.1,0.2-0.1h3.4c0.1,0,0.2,0.1,0.2,0.2v1H84c0.5-0.6,1.1-1.2,2-1.2c1.1,0,1.9,1.6,1.9,2.5
		c0,0.1-0.1,0.3-0.2,0.3s-0.2-0.1-0.3-0.3c-0.4-0.8-1.1-1.1-1.9-1.1c-1,0-1.7,1.2-1.7,2.7L83.8,30L83.8,30z"/>
	<path class="st1" d="M48.1,10.9c0,0.8-0.5,1.6-1.3,1.6c-0.7,0-1.3-0.8-1.3-1.6c0-0.8,0.5-1.6,1.3-1.6C47.5,9.3,48.1,10.1,48.1,10.9
		z"/>
</g>
</svg>
