<?xml version="1.0" encoding="utf-8"?>
<!-- Generator: Adobe Illustrator 22.1.0, SVG Export Plug-In . SVG Version: 6.00 Build 0)  -->
<svg version="1.1" id="Layer_1" xmlns="http://www.w3.org/2000/svg" xmlns:xlink="http://www.w3.org/1999/xlink" x="0px" y="0px"
	 viewBox="0 0 95.5 38" style="enable-background:new 0 0 95.5 38;" xml:space="preserve">
<style type="text/css">
	.st0{fill:#8D53A0;}
	.st1{fill:#FFFFFF;}
	.st2{fill:#8E53A0;}
</style>
<g>
	<path class="st0" d="M55,10.6c0,0.9-0.6,1.8-1.3,1.8c-0.8,0-1.3-0.9-1.3-1.8c0-0.9,0.6-1.8,1.3-1.8C54.4,8.8,55,9.7,55,10.6"/>
	<path class="st1" d="M5.5,30.9c-0.1,0.3-0.1,0.5-0.4,0.5h-1c-0.3,0-0.4-0.3-0.4-0.5L1.1,16.4C1.1,16.2,1,16,0.9,15.9l-0.7-0.7
		C0.1,15.1,0,15,0,14.9c0-0.1,0.1-0.1,0.2-0.1h4.1c0.1,0,0.2,0,0.2,0.1S4.5,15,4.4,15.1l-1,0.9c-0.1,0.1-0.2,0.3-0.1,0.5l1.5,8.3
		h0.1l1.3-8.3c0.1-0.2,0-0.3-0.1-0.5L5,15.2c-0.1-0.1-0.1-0.1-0.1-0.3c0-0.1,0.1-0.1,0.2-0.1h3.7c0.1,0,0.2,0,0.2,0.1
		c0,0.1-0.1,0.1-0.2,0.3L7.9,16c-0.2,0.1-0.3,0.3-0.3,0.5L5.5,30.9z"/>
	<path class="st1" d="M11.4,16.2c0-0.1-0.1-0.2-0.1-0.3l-1.1-0.9c-0.1-0.1-0.1-0.2-0.1-0.3c0-0.1,0.1-0.1,0.2-0.1h3.5
		c0.1,0,0.2,0.1,0.2,0.2v14.8c0,0.1,0,0.2,0.1,0.3l1.1,1.1c0.1,0.1,0.1,0.1,0.1,0.2c0,0.1-0.1,0.1-0.2,0.1h-4.7
		c-0.1,0-0.2,0-0.2-0.1c0-0.1,0.1-0.1,0.1-0.2l1.1-1.1c0.1-0.1,0.1-0.1,0.1-0.3L11.4,16.2L11.4,16.2z M14,10.6
		c0,0.8-0.6,1.6-1.3,1.6c-0.7,0-1.3-0.8-1.3-1.6C11.4,9.8,12,9,12.7,9C13.4,9,14,9.8,14,10.6"/>
	<path class="st1" d="M18.6,25c0,3.8,0.6,5.2,2.3,5.2c1.2,0,1.8-0.5,2.5-1.4c0.1-0.1,0.1-0.1,0.3-0.1s0.1,0.1,0.1,0.2
		c-0.4,1.5-1.5,2.7-3.3,2.7c-3.3,0-4.7-2.7-4.7-9.4c0-4.5,1.6-7.3,4.1-7.3c2.1,0,3.9,1.3,3.9,5.7v1.9c0,0.2-0.1,0.3-0.3,0.3h-4.9
		C18.6,22.7,18.6,25,18.6,25z M21.2,21.5v-3c0-1.6-0.5-2.4-1.4-2.4c-0.9,0-1.3,0.9-1.3,2.4v3H21.2z"/>
	<path class="st1" d="M25.5,16.4c-0.1-0.2-0.1-0.4-0.3-0.5l-0.7-0.7c-0.1-0.1-0.1-0.2-0.1-0.3c0-0.1,0.1-0.1,0.2-0.1h4.1
		c0.1,0,0.2,0,0.2,0.1c0,0.1-0.1,0.1-0.1,0.3l-0.7,0.7c-0.1,0.2-0.3,0.4-0.2,0.6l1.5,8.3h0.1l1.3-7.9c0.1-0.3-0.1-0.6-0.3-0.9
		l-0.7-0.9c-0.1-0.1-0.1-0.2-0.1-0.3c0-0.1,0.1-0.1,0.2-0.1h3.8c0.1,0,0.3,0,0.3,0.1c0,0.1-0.1,0.1-0.1,0.3l-0.9,0.9
		c-0.2,0.3-0.4,0.5-0.3,0.8l1.5,7.9h0.1l1.3-8.5c0.1-0.2,0-0.3-0.1-0.5l-0.7-0.7c-0.1-0.1-0.1-0.2-0.1-0.3c0-0.1,0.1-0.1,0.3-0.1
		h3.5c0.1,0,0.2,0,0.2,0.1c0,0.1-0.1,0.1-0.1,0.3L37,15.9c-0.2,0.2-0.3,0.4-0.3,0.7L34.5,31c-0.1,0.3-0.2,0.4-0.4,0.4h-0.7
		c-0.3,0-0.3-0.2-0.3-0.3l-1.7-9.4h-0.1L29.7,31c-0.1,0.2-0.1,0.4-0.3,0.4h-0.7c-0.2,0-0.4-0.1-0.4-0.3L25.5,16.4z"/>
	<path class="st1" d="M53.2,16.2c0-0.1-0.1-0.2-0.1-0.3l-1.1-0.8c-0.1-0.1-0.1-0.2-0.1-0.3c0-0.1,0.1-0.1,0.2-0.1h3.7
		c0.1,0,0.2,0.1,0.2,0.2v14.8c0,0.1,0,0.2,0.1,0.3l1.2,1.1c0.1,0.1,0.1,0.1,0.1,0.2c0,0.1-0.1,0.1-0.2,0.1H52c-0.1,0-0.2,0-0.2-0.1
		c0-0.1,0.1-0.1,0.1-0.2l1.2-1.1c0.1-0.1,0.1-0.1,0.1-0.3L53.2,16.2L53.2,16.2z"/>
	<path class="st1" d="M61,15.8L61,15.8c0.7-0.6,1.3-1.1,2.5-1.1c1.7,0,2.9,1.1,2.9,3.1v11.9c0,0.1,0,0.2,0.1,0.3l1.1,1.1
		c0.1,0.1,0.1,0.1,0.1,0.2c0,0.1-0.1,0.1-0.2,0.1h-4.6c-0.1,0-0.2,0-0.2-0.1c0-0.1,0.1-0.1,0.1-0.2l1.1-1.1c0.1-0.1,0.1-0.1,0.1-0.3
		v-12c0-1.1-0.4-1.7-1.2-1.7c-0.8,0-1.7,1-1.7,2.6v11.1c0,0.1,0,0.2,0.1,0.3l1.1,1.1c0.1,0.1,0.2,0.1,0.2,0.2c0,0.1-0.1,0.1-0.2,0.1
		h-4.6c-0.1,0-0.2,0-0.2-0.1c0-0.1,0.1-0.1,0.1-0.2l1.1-1.1c0.1-0.1,0.1-0.1,0.1-0.3V16.2c0-0.1-0.1-0.2-0.1-0.3l-1.1-0.9
		c-0.1-0.1-0.1-0.2-0.1-0.3c0-0.1,0.1-0.1,0.2-0.1h3.3c0.1,0,0.2,0.1,0.2,0.2L61,15.8L61,15.8z"/>
	<path class="st1" d="M74.2,10.4c0-0.1-0.1-0.2-0.1-0.3L73,9.3c-0.1-0.1-0.2-0.1-0.2-0.2c0-0.1,0.1-0.1,0.3-0.1h3.4
		c0.1,0,0.2,0.1,0.2,0.2v20.6c0,0.1,0,0.2,0.1,0.3l1.1,1.1c0.1,0.1,0.2,0.1,0.2,0.2c0,0.1-0.1,0.1-0.3,0.1h-3.3
		c-0.1,0-0.3-0.1-0.3-0.1v-1h-0.1c-0.6,0.6-1.3,1.1-2.4,1.1c-1.6,0-3.3-0.7-3.3-9.2c0-6.7,1.8-7.5,3.3-7.5c1.1,0,1.8,0.5,2.4,1.1
		h0.1C74.2,15.9,74.2,10.4,74.2,10.4z M74.2,18.4c0-1.5-1.1-2.3-1.6-2.3c-0.9,0-1.3,0.6-1.3,6.2c0,7.2,0.3,7.9,1.3,7.9
		c0.9,0,1.6-0.9,1.6-2.4L74.2,18.4L74.2,18.4z"/>
	<path class="st1" d="M81.3,25c0,3.8,0.6,5.2,2.3,5.2c1.2,0,1.8-0.5,2.5-1.4c0.1-0.1,0.1-0.1,0.3-0.1s0.1,0.1,0.1,0.2
		c-0.4,1.5-1.5,2.7-3.3,2.7c-3.3,0-4.7-2.7-4.7-9.4c0-4.5,1.6-7.3,4.1-7.3c2.1,0,3.9,1.3,3.9,5.7v1.9c0,0.2-0.1,0.3-0.3,0.3h-4.9
		L81.3,25L81.3,25z M84,21.5v-3c0-1.6-0.5-2.4-1.4-2.4c-0.9,0-1.3,0.9-1.3,2.4v3H84z"/>
	<path class="st1" d="M91.4,29.8c0,0.1,0,0.2,0.1,0.3l1.2,1.1c0.1,0.1,0.1,0.1,0.1,0.2c0,0.1-0.1,0.1-0.2,0.1h-4.8
		c-0.1,0-0.2,0-0.2-0.1c0-0.1,0.1-0.1,0.1-0.2l1.1-1.1C89,30,89,29.9,89,29.8V16.2c0-0.1-0.1-0.2-0.1-0.3l-1.1-0.9
		c-0.1-0.1-0.1-0.2-0.1-0.3c0-0.1,0.1-0.1,0.2-0.1h3.5c0.1,0,0.2,0.1,0.2,0.2V16h0.1c0.6-0.6,1.2-1.2,2-1.2c1.2,0,1.9,1.6,1.9,2.5
		c0,0.1-0.1,0.3-0.2,0.3s-0.2-0.1-0.3-0.3c-0.4-0.8-1.1-1.1-1.9-1.1c-1.1,0-1.7,1.2-1.7,2.7L91.4,29.8L91.4,29.8z"/>
	<path class="st2" d="M54.3,1.1C54.2,0.4,53.6-0.1,53,0l-0.2,0c-8.6,0.9-10.4,3.9-10.4,6.3c0,0.7,0,2.1,0,3.9c0,1.8,0,3.4,0,4.9
		l-1.6,0c-0.7,0-1.2,0.6-1.2,1.2c0,0.7,0.5,1.2,1.2,1.2c0,0,0,0,0,0l1.6,0c0.1,18.5,0.8,19.8,2,20.3c0.2,0.1,0.3,0.1,0.5,0.1
		c0.5,0,0.9-0.3,1.1-0.7c0.2-0.5,0.1-1-0.3-1.3c-0.7-1.7-0.8-11-0.9-18.4l4.1-0.1c0.7,0,1.2-0.6,1.2-1.2c0-0.7-0.6-1.2-1.2-1.2
		l-4,0.1c0-2,0-3.7,0-4.8c0-1.8,0-3.3,0-4c0-1.9,3-3.4,8.2-3.9l0.3,0C53.9,2.3,54.4,1.7,54.3,1.1z"/>
</g>
</svg>
