<svg xmlns="http://www.w3.org/2000/svg" viewBox="0 0 87.87 38"><defs><style>.a{fill:#fff;}.b{fill:#8f53a1;}.c{fill:#8e53a1;}</style></defs><title>VF Logo</title><path class="a" d="M5.23,30c0,.27-.13.54-.37.54H3.93c-.27,0-.37-.27-.41-.45L1.11,15.47a.88.88,0,0,0-.27-.54l-.71-.72A.6.6,0,0,1,0,14c0-.08.07-.11.2-.11H4.06c.1,0,.2,0,.2.09a.29.29,0,0,1-.13.24l-.84.87a.58.58,0,0,0-.14.48l1.38,8.35H4.6l1.2-8.35a.49.49,0,0,0-.13-.48l-.87-.87c-.07-.09-.14-.15-.14-.24s.1-.09.2-.09H8.35c.1,0,.2,0,.2.11a.4.4,0,0,1-.16.25l-.81.72a.88.88,0,0,0-.27.54Z"/><path class="a" d="M10.77,15.29a.27.27,0,0,0-.1-.24l-1-.84A.6.6,0,0,1,9.53,14c0-.08.1-.11.2-.11H13c.1,0,.17.05.17.18V28.9c0,.13,0,.22.07.28l1,1.05a.37.37,0,0,1,.14.21c0,.09-.07.12-.2.12H9.73c-.1,0-.2,0-.2-.12a.4.4,0,0,1,.13-.21l1-1.05c.07-.06.07-.15.07-.28Zm2.35-5.68c0,.78-.54,1.59-1.21,1.59s-1.24-.81-1.24-1.59S11.21,8,11.91,8s1.21.78,1.21,1.6"/><path class="a" d="M17.42,24c0,3.78.57,5.23,2.12,5.23a2.66,2.66,0,0,0,2.34-1.42.31.31,0,0,1,.24-.15c.1,0,.13.06.1.18a3.27,3.27,0,0,1-3.09,2.68c-3.05,0-4.33-2.71-4.33-9.44,0-4.57,1.48-7.27,3.83-7.27,1.94,0,3.62,1.26,3.62,5.65v1.86c0,.21-.06.36-.3.36H17.42Zm2.48-3.46v-3c0-1.59-.47-2.43-1.27-2.43s-1.21.84-1.21,2.43v3Z"/><path class="a" d="M23.82,15.47a.88.88,0,0,0-.27-.54l-.71-.72a.6.6,0,0,1-.13-.25c0-.08.07-.11.2-.11H26.7c.1,0,.2,0,.2.11a.5.5,0,0,1-.13.25l-.71.72a.83.83,0,0,0-.2.57l1.38,8.39h.07l1.17-8a1.12,1.12,0,0,0-.34-.84l-.7-.87a.5.5,0,0,1-.13-.25c0-.08.1-.11.2-.11H31c.13,0,.23,0,.23.11s-.1.16-.13.25l-.8.9a1.05,1.05,0,0,0-.34.81l1.34,8h.07l1.21-8.54a.51.51,0,0,0-.1-.45l-.71-.69c0-.09-.13-.18-.13-.25s.1-.11.23-.11h3.26c.13,0,.2,0,.2.11a.53.53,0,0,1-.14.25l-.8.75a1.28,1.28,0,0,0-.34.75L32,30.14c0,.27-.2.42-.37.42H31c-.24,0-.31-.21-.34-.33l-1.61-9.5H29l-1.37,9.41c0,.21-.14.42-.27.42h-.7a.42.42,0,0,1-.41-.33Z"/><path class="a" d="M48.37,15.29a.27.27,0,0,0-.1-.24l-1-.84a.53.53,0,0,1-.14-.25c0-.08.1-.11.2-.11h3.22c.1,0,.17.05.17.18V28.9c0,.13,0,.22.07.28l1,1.05a.35.35,0,0,1,.13.21c0,.09-.06.12-.2.12H47.33c-.1,0-.2,0-.2-.12a.37.37,0,0,1,.14-.21l1-1.05c.06-.06.06-.15.06-.28Z"/><path class="b" d="M50.72,9.61c0,.78-.53,1.59-1.21,1.59s-1.24-.81-1.24-1.59S48.81,8,49.51,8s1.21.78,1.21,1.6"/><path class="a" d="M55.89,14.9H56a3,3,0,0,1,2.31-1.05c1.68,0,2.79,1.05,2.79,3.06v12c0,.13,0,.22.06.28l1,1.05a.37.37,0,0,1,.14.21c0,.09-.1.12-.21.12H57.67c-.14,0-.2,0-.2-.12a.35.35,0,0,1,.13-.21l1-1.05c.07-.06.07-.15.07-.28v-12c0-1.14-.37-1.74-1.14-1.74s-1.68,1-1.68,2.61V28.9a.69.69,0,0,0,0,.28l1,1.05a.32.32,0,0,1,.17.21c0,.09-.1.12-.2.12H52.5c-.13,0-.2,0-.2-.12a.25.25,0,0,1,.13-.21l1-1.05c.07-.06.07-.15.07-.28V15.29a.27.27,0,0,0-.1-.24l-1-.84A.6.6,0,0,1,52.3,14c0-.08.1-.11.2-.11h3.22c.14,0,.17.05.17.18Z"/><path class="a" d="M68,9.46a.23.23,0,0,0-.14-.24l-1-.88a.32.32,0,0,1-.17-.21c0-.09.1-.12.24-.12h3.19c.13,0,.2.06.2.18V28.9a.69.69,0,0,0,0,.28l1,1.05a.32.32,0,0,1,.17.21c0,.09-.1.12-.24.12H68.27c-.13,0-.23-.06-.23-.12v-1H68a2.91,2.91,0,0,1-2.25,1.14c-1.47,0-3-.75-3-9.23,0-6.7,1.68-7.48,3.06-7.48A3,3,0,0,1,68,14.9H68Zm0,7.93a2.12,2.12,0,0,0-1.48-2.25c-.84,0-1.24.63-1.24,6.19,0,7.24.34,7.94,1.21,7.94S68,28.33,68,26.86Z"/><path class="a" d="M74.65,24c0,3.78.57,5.23,2.12,5.23a2.66,2.66,0,0,0,2.34-1.42.31.31,0,0,1,.24-.15c.1,0,.13.06.1.18a3.27,3.27,0,0,1-3.09,2.68c-3,0-4.32-2.71-4.32-9.44,0-4.57,1.47-7.27,3.82-7.27,2,0,3.62,1.26,3.62,5.65v1.86c0,.21-.06.36-.3.36H74.65Zm2.49-3.46v-3c0-1.59-.47-2.43-1.28-2.43s-1.21.84-1.21,2.43v3Z"/><path class="a" d="M84.11,28.9a.53.53,0,0,0,0,.28l1.14,1.05a.25.25,0,0,1,.13.21c0,.09-.06.12-.2.12H80.73c-.14,0-.21,0-.21-.12a.26.26,0,0,1,.14-.21l1-1.05c.07-.06.07-.15.07-.28V15.29a.24.24,0,0,0-.14-.24l-1-.84a.36.36,0,0,1-.14-.25c0-.08.07-.11.21-.11H84c.1,0,.16.05.16.18v1h.07a2.75,2.75,0,0,1,1.88-1.2c1.11,0,1.81,1.59,1.81,2.55,0,.15,0,.27-.17.27s-.2-.12-.26-.27a1.84,1.84,0,0,0-1.75-1.14c-1,0-1.58,1.23-1.58,2.76Z"/><path class="c" d="M53,1.25C53,.85,51.78-.2,49.33,0l-.28,0c-7,.66-10.56,2.79-10.5,6.32,0,.71,0,2.08,0,3.87s0,3.39,0,4.92l-1.67,0A1.21,1.21,0,1,0,37,17.63l1.62,0c.11,18.49.8,19.79,2,20.3A1.09,1.09,0,0,0,41,38a1.2,1.2,0,0,0,.85-2.07c-.66-1.66-.83-11-.87-18.4l4.15-.1a1.21,1.21,0,0,0,0-2.41h0l-4.1.1c0-2,0-3.66,0-4.86,0-1.81,0-3.2,0-3.92,0-1.41,1.4-3.23,8.31-3.88l.28,0c2.71-.26,2.59.08,3.42-1.19"/></svg>