<svg xmlns="http://www.w3.org/2000/svg" viewBox="0 0 30 30"><defs><style>.cls-1{fill:#70a130;}</style></defs><title>calendar_active</title><rect class="cls-1" x="4.16" y="5.32" width="21.69" height="3.79"/><path class="cls-1" d="M24.76,26.88H5.24A1.58,1.58,0,0,1,3.66,25.3V6.41A1.59,1.59,0,0,1,5.24,4.82H24.76a1.59,1.59,0,0,1,1.58,1.59V25.3A1.58,1.58,0,0,1,24.76,26.88ZM5.24,5.82a.59.59,0,0,0-.58.59V25.3a.58.58,0,0,0,.58.58H24.76a.58.58,0,0,0,.58-.58V6.41a.59.59,0,0,0-.58-.59Z"/><rect class="cls-1" x="10.34" y="6.09" width="1.56" height="1.56"/><rect class="cls-1" x="18.16" y="6.09" width="1.56" height="1.56"/><rect class="cls-1" x="10.34" y="3.12" width="1.56" height="1.56"/><rect class="cls-1" x="18.16" y="3.12" width="1.56" height="1.56"/><rect class="cls-1" x="8.78" y="10.82" width="3.13" height="3.13"/><rect class="cls-1" x="13.44" y="10.82" width="3.13" height="3.13"/><rect class="cls-1" x="18.16" y="10.82" width="3.13" height="3.13"/><rect class="cls-1" x="8.78" y="15.44" width="3.13" height="3.13"/><rect class="cls-1" x="13.44" y="15.44" width="3.13" height="3.13"/><rect class="cls-1" x="18.16" y="15.44" width="3.13" height="3.13"/><rect class="cls-1" x="8.78" y="20.06" width="3.13" height="3.13"/><rect class="cls-1" x="13.44" y="20.06" width="3.13" height="3.13"/><rect class="cls-1" x="18.16" y="20.06" width="3.13" height="3.13"/><path class="cls-1" d="M25.34,20.43h0a9.16,9.16,0,0,1-5.87,5.45l-.16.06h6Z"/></svg>