<svg id="Layer_1" data-name="Layer 1" xmlns="http://www.w3.org/2000/svg" viewBox="0 0 30 30"><defs><style>.cls-1{fill:#fff;}</style></defs><title>white</title><path class="cls-1" d="M27.2,17.7a12.2,12.2,0,0,0-24.4,0,11.92,11.92,0,0,0,1.4,5.6h0l.7,1.2L8,22.7l-.7-1.2L5.5,22.6a10.44,10.44,0,0,1-1.2-4.9v-.5H6.7V15.9H4.4a10.78,10.78,0,0,1,2.3-5.1l1.6,1.6.9-.9L7.6,9.8A10.55,10.55,0,0,1,14,6.9V9.3h1.3V6.9a10.45,10.45,0,0,1,7,2.8l-1.6,1.6.9.9,1.6-1.6a11,11,0,0,1,2.5,5.2H23.2v1.3h2.6v.5a10.63,10.63,0,0,1-1.3,5l-1.9-1.1L22,22.8l3.1,1.8.7-1.2h0A12.63,12.63,0,0,0,27.2,17.7Z"/><path class="cls-1" d="M15,16.9a1.07,1.07,0,0,0-.6.2l-3.1-1.9-.6.9,3,2.1v.2a1.45,1.45,0,1,0,2.9-.1A1.7,1.7,0,0,0,15,16.9Z"/></svg>