<?xml version="1.0" encoding="utf-8"?>
<!-- Generator: Adobe Illustrator 24.0.3, SVG Export Plug-In . SVG Version: 6.00 Build 0)  -->
<svg version="1.1" id="Layer_1" xmlns="http://www.w3.org/2000/svg" xmlns:xlink="http://www.w3.org/1999/xlink" x="0px" y="0px"
	 viewBox="0 0 30 30" style="enable-background:new 0 0 30 30;" xml:space="preserve">
<g>
	<path d="M27.2,17.7c0-6.7-5.5-12.2-12.2-12.2S2.8,10.9,2.8,17.7c0,2,0.5,3.9,1.4,5.6l0,0l0.7,1.2l3.1-1.8l-0.7-1.2l-1.8,1.1
		c-0.8-1.5-1.2-3.2-1.2-4.9c0-0.2,0-0.3,0-0.5h2.4v-1.3H4.4c0.3-1.9,1.1-3.6,2.3-5.1l1.6,1.6l0.9-0.9L7.6,9.8
		c1.7-1.6,3.9-2.7,6.4-2.9v2.4h1.3V6.9C18,6.9,20.4,8,22.3,9.7l-1.6,1.6l0.9,0.9l1.6-1.6c1.3,1.5,2.1,3.2,2.5,5.2h-2.5v1.3h2.6
		c0,0.2,0,0.3,0,0.5c0,1.8-0.5,3.5-1.3,5l-1.9-1.1L22,22.8l3.1,1.8l0.7-1.2l0,0C26.7,21.6,27.2,19.7,27.2,17.7z"/>
	<path d="M15,16.9c-0.2,0-0.5,0.1-0.6,0.2l-3.1-1.9l-0.6,0.9l3,2.1c0,0.1,0,0.1,0,0.2c0,0.8,0.7,1.4,1.5,1.4c0.8,0,1.4-0.7,1.4-1.5
		C16.4,17.5,15.8,16.9,15,16.9z"/>
</g>
</svg>
