<?xml version="1.0" encoding="utf-8"?>
<!-- Generator: Adobe Illustrator 24.0.3, SVG Export Plug-In . SVG Version: 6.00 Build 0)  -->
<svg version="1.1" id="Layer_1" xmlns="http://www.w3.org/2000/svg" xmlns:xlink="http://www.w3.org/1999/xlink" x="0px" y="0px"
	 viewBox="0 0 30 30" style="enable-background:new 0 0 30 30;" xml:space="preserve">
<title>21</title>
<rect x="6.9" y="12.7" transform="matrix(0.7071 -0.7071 0.7071 0.7071 -6.8905 15.1743)" width="15.9" height="6.3"/>
<path d="M4.8,25.6l1.3-5.4l4.5,4.5l-5.6,1.2C5,25.8,4.9,25.7,4.8,25.6C4.8,25.6,4.8,25.6,4.8,25.6z"/>
<path d="M21.5,5l4.2,4.2c0.1,0.1,0.1,0.2,0,0.2l-2,2l0,0L19.3,7l0,0l2-2C21.3,5,21.4,5,21.5,5L21.5,5z"/>
</svg>
