<?xml version="1.0" standalone="no"?>
<!DOCTYPE svg PUBLIC "-//W3C//DTD SVG 20010904//EN"
 "http://www.w3.org/TR/2001/REC-SVG-20010904/DTD/svg10.dtd">
<svg version="1.0" xmlns="http://www.w3.org/2000/svg"
 width="24.000000pt" height="24.000000pt" viewBox="0 0 24.000000 24.000000"
 preserveAspectRatio="xMidYMid meet">

<g transform="translate(0.000000,24.000000) scale(0.100000,-0.100000)"
fill="#FFFFFF" stroke="none">
<path d="M82 198 c-19 -19 -14 -59 11 -95 12 -18 24 -33 27 -33 3 0 15 15 28
33 24 36 29 76 10 95 -15 15 -61 15 -76 0z m58 -24 c11 -12 10 -18 -3 -32 -16
-15 -18 -15 -34 0 -13 14 -14 20 -3 32 7 9 16 16 20 16 4 0 13 -7 20 -16z"/>
<path d="M20 70 l-20 -40 120 0 120 0 -20 40 c-13 26 -27 40 -40 40 -11 0 -20
-4 -20 -10 0 -5 9 -10 19 -10 17 0 31 -18 31 -41 0 -5 -40 -9 -90 -9 -50 0
-90 4 -90 9 0 23 14 41 31 41 10 0 19 5 19 10 0 6 -9 10 -20 10 -13 0 -27 -14
-40 -40z"/>
</g>
</svg>
