<svg id="Layer_1" data-name="Layer 1" xmlns="http://www.w3.org/2000/svg" viewBox="0 0 30 30"><title>10</title><path d="M24.55,15A9.52,9.52,0,0,1,8.46,21.92l2-1.21a.29.29,0,0,0-.05-.52l-5.3-1.88a.29.29,0,0,0-.39.23L4.51,20l-.08,0s0,.06.06.1l-.57,3.93a.29.29,0,0,0,.44.29l2.18-1.32A11.7,11.7,0,0,0,26.73,15Z"/><path d="M15,5.45A9.58,9.58,0,0,1,21.48,8L19.33,9.56a.28.28,0,0,0,.09.51l5.43,1.48a.3.3,0,0,0,.37-.26L25.3,10l.25-.12c-.06-.13-.15-.25-.21-.38l.26-3.84a.29.29,0,0,0-.46-.25L23.28,6.74A11.7,11.7,0,0,0,3.27,15H5.45A9.56,9.56,0,0,1,15,5.45Z"/></svg>