<?xml version="1.0" encoding="UTF-8"?>
<svg width="12px" height="12px" viewBox="0 0 12 12" version="1.1" xmlns="http://www.w3.org/2000/svg" xmlns:xlink="http://www.w3.org/1999/xlink">
    <!-- Generator: Sketch 43.2 (39069) - http://www.bohemiancoding.com/sketch -->
    <title>Settings Icon</title>
    <desc>Created with Sketch.</desc>
    <defs></defs>
    <g id="Legend" stroke="none" stroke-width="1" fill="none" fill-rule="evenodd">
        <g id="Settings-Icon" fill-rule="nonzero" fill="#8F52A1">
            <path d="M11.4014536,9.04548108 L11.9706934,7.66520067 C12.0465921,7.48791695 11.9706934,7.27264386 11.7935966,7.19666512 L10.5159694,6.56350897 C10.5665685,6.18361528 10.5665685,5.81638472 10.5159694,5.44915415 L11.7935966,4.80333488 C11.9706934,4.71469302 12.0465921,4.51208305 11.9706934,4.33479933 L11.4014536,2.95451892 C11.3255549,2.7772352 11.1231585,2.67593021 10.9460617,2.73924583 L9.59253587,3.19511826 C9.36483993,2.90386643 9.09919468,2.63794085 8.7956001,2.41000463 L9.25099197,1.05505047 C9.31424084,0.865103626 9.22569242,0.675156781 9.03594581,0.599178043 L7.65712042,0.0293375087 C7.48002358,-0.0466412293 7.26497742,0.0293375087 7.18907877,0.206621231 L6.55659006,1.48559665 C6.17709684,1.43494416 5.81025339,1.43494416 5.44340994,1.48559665 L4.79827145,0.206621231 C4.70972303,0.0293375087 4.50732665,-0.0466412293 4.33022981,0.0293375087 L2.95140442,0.599178043 C2.77430758,0.675156781 2.68575916,0.877766749 2.73635826,1.05505047 L3.19175013,2.41000463 C2.90080532,2.63794085 2.63516007,2.90386643 2.40746413,3.19511826 L1.05393829,2.73924583 C0.864191679,2.67593021 0.674445066,2.76457208 0.598546421,2.95451892 L0.0293065826,4.33479933 C-0.0465920626,4.51208305 0.0293065826,4.72735614 0.206403421,4.80333488 L1.48403061,5.43649103 C1.43343152,5.80372159 1.43343152,6.18361528 1.48403061,6.55084585 L0.206403421,7.19666512 C0.0293065826,7.28530698 -0.0465920626,7.48791695 0.0293065826,7.66520067 L0.598546421,9.04548108 C0.674445066,9.2227648 0.876841453,9.31140666 1.05393829,9.26075417 L2.40746413,8.80488174 C2.63516007,9.09613357 2.90080532,9.36205915 3.2043999,9.58999537 L2.74900803,10.9449495 C2.68575916,11.1348964 2.77430758,11.3375063 2.96405419,11.400822 L4.34287958,11.9706625 C4.51997642,12.0466412 4.73502258,11.9706625 4.81092123,11.7933788 L5.44340994,10.5144033 C5.82290316,10.5650558 6.18974661,10.5650558 6.55659006,10.5144033 L7.20172855,11.7933788 C7.29027697,11.9706625 7.49267335,12.0466412 7.66977019,11.9706625 L9.04859558,11.400822 C9.22569242,11.3248432 9.31424084,11.1222333 9.26364174,10.9449495 L8.80824987,9.58999537 C9.09919468,9.36205915 9.36483993,9.09613357 9.59253587,8.80488174 L10.9460617,9.26075417 C11.1231585,9.31140666 11.3255549,9.2227648 11.4014536,9.04548108 Z M4.97536829,8.43765118 C3.63449223,7.88047376 2.98935374,6.33557276 3.54594381,4.9806186 C4.10253387,3.62566444 5.64580632,2.99250829 6.99933216,3.5496857 C8.352858,4.10686311 8.99799648,5.65176412 8.42875664,7.00671828 C7.87216658,8.36167244 6.32889413,8.99482859 4.97536829,8.43765118 Z" id="Shape" transform="translate(6.000000, 6.000000) scale(-1, 1) translate(-6.000000, -6.000000) "></path>
        </g>
    </g>
</svg>