<?xml version="1.0" encoding="utf-8"?>
<!-- Generator: Adobe Illustrator 24.3.0, SVG Export Plug-In . SVG Version: 6.00 Build 0)  -->
<svg version="1.1" id="Layer_1" xmlns="http://www.w3.org/2000/svg" xmlns:xlink="http://www.w3.org/1999/xlink" x="0px" y="0px"
	 viewBox="0 0 539 184" style="enable-background:new 0 0 539 184;" xml:space="preserve">
<style type="text/css">
	.st0{fill:#7F8183;}
	.st1{fill:#00B1B0;}
	.st2{fill-rule:evenodd;clip-rule:evenodd;fill:#00B1B0;}
</style>
<path class="st0" d="M349.1,78.94c0-0.51-0.15-0.76-0.44-1.01l-4.41-3.55c-0.29-0.38-0.59-0.76-0.59-1.01
	c0-0.38,0.44-0.51,0.88-0.51h14.11c0.44,0,0.74,0.25,0.74,0.76v62.71c0,0.51,0,0.89,0.29,1.14l4.55,4.43
	c0.29,0.25,0.59,0.63,0.59,0.89c0,0.38-0.29,0.51-0.88,0.51h-19.4c-0.44,0-0.88-0.13-0.88-0.51c0-0.25,0.29-0.63,0.59-0.89
	l4.56-4.43c0.29-0.25,0.29-0.63,0.29-1.14V78.94z"/>
<path class="st0" d="M385.01,77.29h0.29c2.64-2.41,5.14-4.43,10.14-4.43c7.35,0,12.2,4.43,12.2,12.92v50.55c0,0.51,0,0.89,0.29,1.14
	l4.56,4.43c0.29,0.25,0.59,0.63,0.59,0.89c0,0.38-0.44,0.51-0.88,0.51h-19.4c-0.59,0-0.88-0.13-0.88-0.51
	c0-0.25,0.29-0.63,0.59-0.89l4.56-4.43c0.29-0.25,0.29-0.63,0.29-1.14V85.65c0-4.81-1.62-7.35-5-7.35c-3.53,0-7.35,4.18-7.35,11.02
	v47c0,0.51,0,0.89,0.15,1.14l4.56,4.43c0.44,0.25,0.73,0.63,0.73,0.89c0,0.38-0.44,0.51-0.88,0.51h-19.4
	c-0.59,0-0.88-0.13-0.88-0.51c0-0.25,0.15-0.63,0.59-0.89l4.56-4.43c0.29-0.25,0.29-0.63,0.29-1.14V78.94
	c0-0.51-0.15-0.76-0.44-1.01l-4.41-3.55c-0.29-0.38-0.59-0.76-0.59-1.01c0-0.38,0.44-0.51,0.88-0.51h14.11
	c0.59,0,0.74,0.25,0.74,0.76V77.29z"/>
<path class="st0" d="M439,54.36c0-0.51-0.15-0.76-0.59-1.01l-4.26-3.67c-0.44-0.25-0.74-0.63-0.74-0.89c0-0.38,0.44-0.51,1.03-0.51
	h13.96c0.59,0,0.88,0.25,0.88,0.76v87.29c0,0.51,0,0.89,0.15,1.14l4.56,4.43c0.44,0.25,0.74,0.63,0.74,0.89
	c0,0.38-0.44,0.51-1.03,0.51h-13.67c-0.59,0-1.03-0.25-1.03-0.51v-4.31h-0.29c-2.5,2.53-5.14,4.81-9.84,4.81
	c-6.47,0-13.23-3.17-13.23-38.9c0-28.25,7.35-31.55,13.37-31.55c4.26,0,7.2,2.03,9.7,4.43H439V54.36z M439,87.81
	c0-6.21-4.41-9.5-6.46-9.5c-3.67,0-5.44,2.66-5.44,26.1c0,30.53,1.47,33.45,5.29,33.45c3.53,0,6.61-3.93,6.61-10.14V87.81z"/>
<path class="st0" d="M467.74,115.81c0,15.96,2.5,22.04,9.26,22.04c4.85,0,7.2-2.03,10.29-5.95c0.29-0.38,0.59-0.63,1.03-0.63
	s0.59,0.25,0.44,0.76c-1.76,6.08-6.32,11.28-13.52,11.28c-13.37,0-18.96-11.4-18.96-39.78c0-19.26,6.47-30.66,16.75-30.66
	c8.52,0,15.87,5.32,15.87,23.82v7.85c0,0.89-0.29,1.52-1.32,1.52h-19.84V115.81z M478.62,101.24V88.57c0-6.71-2.06-10.26-5.58-10.26
	c-3.82,0-5.29,3.55-5.29,10.26v12.67H478.62z"/>
<g>
	<path class="st1" d="M351.8,11.45c-6.96-0.29-29.29,1.31-40.28,12.04c-4.29,4.18-6.5,9.43-6.41,15.16
		c0.04,2.21,0.43,17.72,1.03,37.37l-8,0.19c-2.9,0.07-5.19,2.47-5.12,5.37c0.07,2.9,2.47,5.19,5.37,5.12l8.08-0.19
		c1.13,35.46,2.77,78.36,4.19,83.29c0.79,2.77,3.66,4.33,6.43,3.56c2.78-0.77,4.4-3.68,3.66-6.46l0.02,0.07
		c-1.05-4.51-2.67-45.55-3.82-80.7l16.29-0.38c2.9-0.07,5.19-2.47,5.12-5.37c-0.07-2.9-2.47-5.19-5.37-5.12l-16.38,0.38
		c-0.52-16.73-0.9-30.92-1-37.3c-0.05-2.9,0.98-5.27,3.24-7.48c7.65-7.47,25.54-9.35,32.52-9.06c2.9,0.12,5.34-2.13,5.46-5.03
		C356.95,14.01,354.7,11.57,351.8,11.45z"/>
	<path class="st1" d="M348.66,55c0-3.42,2.35-6.71,5.44-6.71c2.94,0,5.29,3.29,5.29,6.71c0,3.29-2.35,6.71-5.29,6.71
		C351.01,61.71,348.66,58.29,348.66,55"/>
</g>
<path class="st0" d="M506.58,136.33c0,0.51,0,0.89,0.15,1.14l5,4.43c0.44,0.25,0.59,0.63,0.59,0.89c0,0.38-0.29,0.51-0.88,0.51
	h-19.69c-0.59,0-0.88-0.13-0.88-0.51c0-0.25,0.15-0.63,0.59-0.89l4.55-4.43c0.29-0.25,0.29-0.63,0.29-1.14V78.94
	c0-0.51-0.15-0.76-0.59-1.01l-4.26-3.55c-0.44-0.38-0.59-0.76-0.59-1.01c0-0.38,0.29-0.51,0.88-0.51h14.11
	c0.44,0,0.74,0.25,0.74,0.76v4.31h0.29c2.35-2.53,4.85-5.07,8.23-5.07c4.85,0,7.94,6.71,7.94,10.77c0,0.63-0.15,1.14-0.73,1.14
	s-0.88-0.51-1.18-1.14c-1.62-3.42-4.56-4.82-7.64-4.82c-4.26,0-6.91,5.2-6.91,11.66V136.33z"/>
<path class="st0" d="M255.91,135.09c0,1.65,0.59,3.17,1.91,3.17c1.47,0,3.09-0.63,4.26-2.15c0.29-0.25,0.44-0.51,0.74-0.51
	c0.29,0,0.44,0.25,0.44,0.63c-0.59,3.67-3.97,7.48-7.64,7.48c-4.55,0-6.91-2.53-8.67-4.81c-2.35,2.28-6.17,4.81-10.14,4.81
	c-5.73,0-12.79-3.17-12.79-20.52c0-14.19,2.5-17.99,18.66-29.14c2.94-2.03,2.94-3.17,2.94-8.36c0-5.57-1.47-6.97-6.17-6.97
	c-4.26,0-10.43,2.91-13.08,5.2c-0.29,0.25-0.73,0.38-1.18,0.38c-0.29,0-0.44-0.25-0.44-0.63c0-1.52,8.38-10.39,16.6-10.39
	c5.29,0,14.55,2.79,14.55,15.84V135.09z M245.62,97.59h-0.29c-8.08,5.96-10.43,10.39-10.43,23.31c0,14.44,1.62,17.36,4.85,17.36
	c3.23,0,5.88-3.93,5.88-7.48V97.59z"/>
<path class="st0" d="M163,71.52c8.31,0,12.39,6.59,14.02,13.07c0.17,0.51,0,1.04-0.48,1.04c-0.33,0-0.67-0.27-0.98-0.65
	c-4.41-5.31-7.34-7.89-11.74-7.89c-5.71,0-7.33,5.44-7.33,27.56c0,26.66,2.77,33.26,8.15,33.26c4.4,0,8.16-3.23,10.76-6.86
	c0.48-0.65,0.98-1.03,1.46-1.03c0.49,0,0.66,0.38,0.49,0.91c-1.95,5.95-5.86,12.55-14.34,12.55c-13.03,0-19.23-11.65-19.23-38.82
	C143.77,83.16,150.94,71.52,163,71.52z"/>
<path class="st0" d="M279.72,133.37c0,2.66,1.47,4.56,3.53,4.56c1.76,0,3.67-1.39,4.55-2.66c0.29-0.25,0.59-0.51,0.88-0.51
	c0.29,0,0.59,0.38,0.44,0.76c-1.03,3.55-3.97,7.86-10.14,7.86s-9.55-2.41-9.55-12.8V79.28c0-0.51,0-1.27-0.44-1.65l-4.26-3.55
	c-0.29-0.25-0.73-0.51-0.73-0.76c0-0.38,0.59-0.76,2.06-0.89c6.47-1.01,7.2-10.64,7.2-15.71c0-0.63,0.44-1.14,1.18-1.14h4.41
	c0.59,0,0.88,0.25,0.88,0.89v14.57c0,0.63,0.15,1.14,1.18,1.14h3.38c0.73,0,0.88,0.89,0,1.52L280.9,77
	c-0.44,0.63-1.18,1.39-1.18,2.28V133.37z"/>
<g>
	<path class="st0" d="M193.74,81.38h0.29c2.65-2.25,5.16-4.14,10.17-4.14c7.37,0,12.24,4.14,12.24,12.05v47.15
		c0,0.47,0,0.83,0.29,1.06l4.57,4.14c0.29,0.24,0.59,0.59,0.59,0.83c0,0.35-0.44,0.47-0.88,0.47h-19.46c-0.59,0-0.88-0.12-0.88-0.47
		c0-0.24,0.29-0.59,0.59-0.83l4.57-4.14c0.29-0.24,0.29-0.59,0.29-1.06V89.18c0-4.49-1.62-6.85-5.01-6.85
		c-3.54,0-7.37,3.9-7.37,10.28v43.84c0,0.47,0,0.83,0.15,1.06l4.57,4.14c0.44,0.24,0.74,0.59,0.74,0.83c0,0.35-0.44,0.47-0.88,0.47
		h-19.46c-0.59,0-0.88-0.12-0.88-0.47c0-0.24,0.15-0.59,0.59-0.83l4.57-4.14c0.29-0.24,0.29-0.59,0.29-1.06V59.99
		c0-0.47-0.15-0.71-0.59-0.95l-4.27-3.43c-0.44-0.24-0.59-0.59-0.59-0.83c0-0.35,0.29-0.47,0.88-0.47h14c0.59,0,0.88,0.24,0.88,0.71
		V81.38z"/>
</g>
<path class="st2" d="M81.55,92.95c3.48,0,6.3,2.82,6.3,6.3c0,3.48-2.82,6.3-6.3,6.3c-3.48,0-6.3-2.82-6.3-6.3
	C75.25,95.77,78.07,92.95,81.55,92.95 M100.55,92.95c3.48,0,6.3,2.82,6.3,6.3c0,3.48-2.82,6.3-6.3,6.3s-6.3-2.82-6.3-6.3
	C94.25,95.77,97.07,92.95,100.55,92.95z M62.55,92.95c3.48,0,6.3,2.82,6.3,6.3c0,3.48-2.82,6.3-6.3,6.3s-6.3-2.82-6.3-6.3
	C56.25,95.77,59.07,92.95,62.55,92.95z M78.23,133.82c-19.1,0-34.58-15.48-34.58-34.58c0-19.1,15.48-34.57,34.58-34.57
	c9.55,0,18.19,3.87,24.45,10.13l21-21c-11.63-11.63-27.7-18.83-45.45-18.83c-35.5,0-64.27,28.78-64.27,64.27
	c0,35.5,28.78,64.27,64.27,64.27c17.75,0,33.82-7.19,45.45-18.83l-18.34-18.34c-6.03,10.14-28.43,18.49-40.11,22.83L78.23,133.82z"
	/>
</svg>
