<svg xmlns="http://www.w3.org/2000/svg" viewBox="0 0 327.54 83.67"><defs><style>.cls-1{fill:#7e8082;}.cls-2{fill:#8dc63f;}</style></defs><title>Asset 1</title><g id="Layer_2" data-name="Layer 2"><g id="Layer_1-2" data-name="Layer 1"><path class="cls-1" d="M163,62.17c0,1.28.71,2.19,1.7,2.19a3,3,0,0,0,2.19-1.28.76.76,0,0,1,.42-.24.26.26,0,0,1,.21.37A4.91,4.91,0,0,1,162.62,67c-3,0-4.6-1.15-4.6-6.15V36.15a1.09,1.09,0,0,0-.21-.8l-2.05-1.7c-.14-.13-.36-.25-.36-.37s.29-.36,1-.43c3.11-.48,3.46-5.11,3.46-7.55a.53.53,0,0,1,.56-.55h2.12c.29,0,.43.12.43.42v7c0,.31.07.55.57.55h1.62c.36,0,.43.43,0,.73l-1.62,1.59a2.05,2.05,0,0,0-.57,1.1Z"/><path class="cls-1" d="M175.41,63.63a1.18,1.18,0,0,0,.07.55l2.41,2.13a.53.53,0,0,1,.28.43c0,.18-.14.24-.43.24h-9.47c-.28,0-.42-.06-.42-.24a.53.53,0,0,1,.28-.43l2.19-2.13c.14-.12.14-.3.14-.55V36a.47.47,0,0,0-.28-.48l-2.05-1.71a.7.7,0,0,1-.28-.49c0-.18.14-.24.42-.24h6.79a.32.32,0,0,1,.35.36v2.08h.14c1.13-1.22,2.34-2.44,4-2.44,2.33,0,3.82,3.23,3.82,5.18,0,.3-.07.55-.35.55s-.43-.25-.57-.55A3.88,3.88,0,0,0,178.73,36c-2,0-3.32,2.5-3.32,5.61Z"/><path class="cls-1" d="M186.16,36a.53.53,0,0,0-.22-.48l-2.12-1.71a1.14,1.14,0,0,1-.28-.49c0-.18.21-.24.42-.24h6.79a.32.32,0,0,1,.35.36V63.63c0,.25,0,.43.15.55l2.19,2.13a.79.79,0,0,1,.28.43c0,.18-.14.24-.42.24H184c-.21,0-.42-.06-.42-.24a.79.79,0,0,1,.28-.43L186,64.18c.15-.12.15-.3.15-.55Zm4.94-11.51c0,1.58-1.13,3.23-2.54,3.23s-2.62-1.65-2.62-3.23,1.13-3.23,2.62-3.23S191.1,22.86,191.1,24.51Z"/><path class="cls-1" d="M197,35.66a.4.4,0,0,0-.28-.43l-2-1.4a.7.7,0,0,1-.28-.49c0-.18.14-.24.42-.24h6.79a.32.32,0,0,1,.35.36v1.77h.14a6.49,6.49,0,0,1,4.67-2.13c3,0,6.43,1.58,6.43,15.17-.14,17.19-3.39,18.71-6.5,18.71a5.68,5.68,0,0,1-4.6-2.31H202v7.07c0,.18,0,.42.07.49l2.19,2.13c.21.18.36.3.36.49s-.22.18-.43.18h-9.33q-.42,0-.42-.18a.59.59,0,0,1,.28-.49l2.19-2.13c.14-.07.14-.31.14-.49Zm5,24.19c0,2.56,1.91,4.51,3.47,4.51s2.26-1.4,2.26-16.09c0-11.27-.85-12.55-2.62-12.55-1,0-3.11,1.58-3.11,4.57Z"/><path class="cls-2" d="M219,39.55a2.25,2.25,0,0,1,0-4.5l16.73-.39a2.25,2.25,0,1,1,.1,4.5L219,39.55Z"/><path class="cls-2" d="M227.35,81.25a2.23,2.23,0,0,1-.91-.2c-2.46-1.09-4-4.4-3.89-56.25,0-3.68,0-6.59,0-8-.08-4.9,3.57-11.08,21.4-12.74l.41,0c1.15-.11,3.33-.22,6.25-.36a2.25,2.25,0,0,1,.21,4.5c-2.47.11-4.9.23-6,.34l-.44,0c-11.08,1-17.39,4-17.32,8.18,0,1.49,0,4.42,0,8.13,0,11.94-.07,48,1.84,52.55a2.24,2.24,0,0,1,.52,2.55A2.26,2.26,0,0,1,227.35,81.25Z"/><path class="cls-2" d="M94,83.67a1.5,1.5,0,0,1-.39-3,10,10,0,0,0,2.12-.81c4.09-2.16,4.87-3.21,6-5.68a2.81,2.81,0,0,0,.4-1.84c-.19-.47-1.06-.83-1.83-1.14a5.45,5.45,0,0,1-2.25-1.37c-1-1.16-.4-2.57.06-3.7.72-1.8,1.41-3.49-.86-5.61-.45-.42-1.46-1.17-2.62-2a63.87,63.87,0,0,1-8.94-7.64,74.49,74.49,0,0,1-1.28,8.27,8.75,8.75,0,0,1-2.63,4.57l-.41.43c.22.29.57.73.91,1.15,2.58,3.17,4.49,5.76,3.79,7.87A2.72,2.72,0,0,1,84.06,75l-4.9,1.19c-8.22.26-10.31-.66-11-2.22s.63-3.17,1.75-4.37a10.51,10.51,0,0,0,.91-1,7.7,7.7,0,0,0,1.32-5.08,5.29,5.29,0,0,0-.67-1.28c-1.26-2-3.35-5.33-1.57-11.93A16.84,16.84,0,0,1,71.27,47c1.06-2,1.65-3.32,1-4.43a15.12,15.12,0,0,1-1.16-2.44c-.33-.85-.33-.87-1.61-1.34a38.44,38.44,0,0,0-3.78-1.08,109.87,109.87,0,0,1-13.65-4.26A46.82,46.82,0,0,1,38.33,25a50.24,50.24,0,0,0-5-3.78c-7.22-4.51-21.07-3.33-28.11-1.54-1.56.4-4.19,1.07-5-.73-.35-.77-1-2.22,5.29-6.56,1-.83,9.8-8.1,21.69-6.48C33,6.66,41.6,11.82,48.55,16c4.32,2.58,8.8,5.25,10.23,5.37s5.63-.47,16.4-5.85c3.69-1.84,8.92-3.87,12.31-4.24a36.23,36.23,0,0,1,7.16.43,36.53,36.53,0,0,0,6.49.42c.88-.09,1-.31,1.38-2.1a10,10,0,0,1,1-3.19C105.44,3.51,109.2,0,114.1,0c3.25,0,9.3.66,11.43,3.15a3.34,3.34,0,0,1,.83,2.3,4.59,4.59,0,0,1,1.7-.18c2.12.16,4.27,1.68,6.57,4.64a13,13,0,0,0,1.15,1.35c.34.35.81.84,1.85,2.06a6.37,6.37,0,0,1,1,6.8,4.54,4.54,0,0,1-4.71,2.42c-2.42-.22-4.65-1.78-6.45-3a21.59,21.59,0,0,0-1.88-1.22c-.11.56.13,1.89,1.55,4.08a14.39,14.39,0,0,0,2.35,2.34c1.68,1.46,3,2.62,2.56,4.1-.17.59-.7,1.34-2.2,1.55-3.7.5-7.14-1.15-10.18-2.6a26.07,26.07,0,0,0-4-1.67c-.88.17-3.18,2-4.24,3.1a46.09,46.09,0,0,0,4.26,3.46c1,.72,1.89,1.42,2.67,2.06A4.46,4.46,0,0,1,120,38.2a5.45,5.45,0,0,1-2.15,4.18c-1.54,1.35-3.8,2.11-5.25.66-.18-.17-.46-.47-.83-.86-3.9-4.16-5.54-5.44-6.23-5.73a2.63,2.63,0,0,0-1.28,1.84l0,.16a4.52,4.52,0,0,0-.11,1.14,9.6,9.6,0,0,1-2,6.06c-1.94,2.77-4.43,1.8-5.77,1.28a4.15,4.15,0,0,0-1.19-.35l0,0a23.28,23.28,0,0,0,2.57,1.81c2.66,1.72,6,3.86,7.58,7,.91,1.76,2.88,3,4.63,4.08,2.26,1.41,4.6,2.87,4.08,5.47-.17.83-1.07,3.67-5.68,5.11a1.5,1.5,0,1,1-.9-2.86c2.58-.81,3.5-2.16,3.64-2.84s-1.47-1.55-2.73-2.34c-2-1.22-4.42-2.75-5.7-5.25S98.32,52.48,96,51c-2.53-1.64-4.92-3.18-3.87-5.3,1.49-3,4-2,5.23-1.52,1.47.57,1.7.55,2.23-.2a6.75,6.75,0,0,0,1.51-4.4,6.94,6.94,0,0,1,.25-2l0-.14a5.46,5.46,0,0,1,3.28-3.87c1.73-.71,3.9.82,9.29,6.57l.66.69a3.7,3.7,0,0,0,1.3-.74A2.54,2.54,0,0,0,117,38.19a1.46,1.46,0,0,0-.53-1.15c-.77-.62-1.67-1.3-2.59-2-4.3-3.24-6.67-5-5.45-6.93.63-1,5.26-5.65,7.87-5a28.06,28.06,0,0,1,4.66,1.9c2.32,1.12,4.72,2.27,7.08,2.39l-.53-.46a16.19,16.19,0,0,1-2.89-3c-3.51-5.4-1.67-7.66-.71-8.38,1.56-1.16,3.36.1,5.27,1.43,1.5,1.05,3.38,2.36,5,2.5a1.6,1.6,0,0,0,1.77-.81,3.36,3.36,0,0,0-.55-3.47c-1-1.16-1.42-1.6-1.74-1.92a17,17,0,0,1-1.36-1.6c-2.27-2.92-3.75-3.44-4.43-3.49a2.36,2.36,0,0,0-1.82.89,1.81,1.81,0,0,1-2.16.54c-1.09-.57-1-1.29-.5-4.33,0-.06,0-.11-.11-.26-1-1.16-5.08-2.1-9.14-2.1-4.68,0-7.43,4.4-7.94,5.29a7.6,7.6,0,0,0-.7,2.28c-.33,1.66-.82,4.16-4,4.51a37.83,37.83,0,0,1-7.16-.43,36.7,36.7,0,0,0-6.49-.43c-3,.33-8,2.28-11.3,4-8.83,4.41-14.71,6.43-18,6.15-2-.17-5.52-2.2-11.52-5.78-6.72-4-15.07-9-20.23-9.69C15.8,7.36,7.5,14.6,7.41,14.67l-.14.11c-.89.61-1.76,1.28-2.5,1.89,5.68-1.39,21.29-3.56,30.14,2a50.64,50.64,0,0,1,5.32,4c3.45,2.82,7,5.75,12.92,8a108.59,108.59,0,0,0,13.3,4.15c1.7.44,3,.78,4.1,1.18,2.31.86,2.77,1.56,3.36,3.06a11.82,11.82,0,0,0,1,2c1.54,2.62.17,5.24-.93,7.34A14.16,14.16,0,0,0,72.78,51c-1.44,5.33.09,7.78,1.21,9.56a5.51,5.51,0,0,1,1.13,2.87,10.69,10.69,0,0,1-1.88,6.82,14.34,14.34,0,0,1-1.16,1.35c-.28.3-.7.75-1,1.09.71.25,2.64.61,7.79.46l4.35-1.09c-.21-1.13-2.47-3.92-3.25-4.87a18.55,18.55,0,0,1-1.32-1.74c-1-1.73.24-3,1-3.82a5.89,5.89,0,0,0,1.85-3.08,53.57,53.57,0,0,0,1.34-12.38,1.53,1.53,0,0,1,1.21-1.8,1.51,1.51,0,0,1,1.78,1.19c0,.09.08.23.15.41,1.17,3.17,7,7.54,10.47,10.15,1.28,1,2.3,1.73,2.87,2.26,3.77,3.52,2.35,7,1.59,8.93-.1.25-.23.56-.31.79.24.12.59.26.85.37,1.2.49,2.85,1.16,3.49,2.84a5.2,5.2,0,0,1-.48,4.21c-1.51,3.17-2.78,4.64-7.36,7a12.59,12.59,0,0,1-2.74,1.06A1.73,1.73,0,0,1,94,83.67Z"/><path class="cls-1" d="M241.65,36.13a.58.58,0,0,0-.21-.49l-2.12-1.7a1.2,1.2,0,0,1-.28-.49c0-.18.21-.24.42-.24h6.79a.32.32,0,0,1,.35.36V63.74c0,.24,0,.43.14.55l2.19,2.13a.78.78,0,0,1,.29.43c0,.18-.15.24-.43.24h-9.33c-.21,0-.42-.06-.42-.24a.76.76,0,0,1,.28-.43l2.19-2.13c.14-.12.14-.31.14-.55Z"/><path class="cls-1" d="M257.49,35.34h.14a6.47,6.47,0,0,1,4.88-2.13c3.53,0,5.86,2.13,5.86,6.21V63.74c0,.24,0,.43.15.55l2.19,2.13a.76.76,0,0,1,.28.43c0,.18-.21.24-.42.24h-9.34c-.28,0-.42-.06-.42-.24a.76.76,0,0,1,.28-.43l2.19-2.13c.15-.12.15-.31.15-.55V39.36c0-2.31-.78-3.53-2.41-3.53s-3.53,2-3.53,5.3V63.74a1.2,1.2,0,0,0,.07.55l2.19,2.13a.64.64,0,0,1,.35.43c0,.18-.21.24-.42.24h-9.33c-.29,0-.43-.06-.43-.24a.52.52,0,0,1,.28-.43l2.2-2.13c.14-.12.14-.31.14-.55V36.13a.58.58,0,0,0-.21-.49l-2.13-1.7a1.2,1.2,0,0,1-.28-.49c0-.18.21-.24.43-.24h6.78c.29,0,.36.12.36.36Z"/><path class="cls-1" d="M284.42,24.31a.48.48,0,0,0-.28-.49l-2.05-1.77a.63.63,0,0,1-.35-.42c0-.19.21-.25.49-.25H289c.28,0,.42.12.42.37v42a1.2,1.2,0,0,0,.07.55l2.19,2.13a.66.66,0,0,1,.36.43c0,.18-.22.24-.5.24h-6.57c-.29,0-.5-.12-.5-.24V64.78h-.14a6.24,6.24,0,0,1-4.74,2.31c-3.11,0-6.36-1.52-6.36-18.71,0-13.59,3.54-15.17,6.43-15.17a6.49,6.49,0,0,1,4.67,2.13h.14Zm0,16.09c0-3-2.12-4.57-3.11-4.57-1.77,0-2.62,1.28-2.62,12.55,0,14.69.71,16.09,2.55,16.09s3.18-1.89,3.18-4.87Z"/><path class="cls-1" d="M299.69,53.87c0,7.68,1.2,10.6,4.46,10.6,2.33,0,3.46-1,4.94-2.86a.63.63,0,0,1,.5-.31c.21,0,.28.12.21.37-.85,2.92-3,5.42-6.5,5.42-6.44,0-9.12-5.48-9.12-19.14,0-9.26,3.11-14.74,8.06-14.74,4.1,0,7.63,2.56,7.63,11.45v3.78c0,.43-.14.73-.63.73h-9.55Zm5.23-7v-6.1c0-3.23-1-4.93-2.68-4.93-1.84,0-2.55,1.7-2.55,4.93v6.1Z"/><path class="cls-1" d="M319.63,63.74a1.2,1.2,0,0,0,.07.55l2.4,2.13a.52.52,0,0,1,.28.43c0,.18-.14.24-.42.24h-9.48c-.28,0-.42-.06-.42-.24a.52.52,0,0,1,.28-.43l2.2-2.13c.14-.12.14-.31.14-.55V36.13a.49.49,0,0,0-.29-.49l-2.05-1.7a.72.72,0,0,1-.28-.49c0-.18.14-.24.42-.24h6.79a.33.33,0,0,1,.36.36v2.07h.14c1.13-1.22,2.33-2.43,4-2.43,2.33,0,3.81,3.23,3.81,5.18,0,.3-.07.54-.35.54s-.42-.24-.57-.54A3.87,3.87,0,0,0,323,36.07c-2.05,0-3.32,2.5-3.32,5.61Z"/><path class="cls-2" d="M246.55,24.62c0,1.58-1.14,3.23-2.55,3.23s-2.61-1.65-2.61-3.23,1.13-3.23,2.61-3.23S246.55,23,246.55,24.62Z"/></g></g></svg>