<?xml version="1.0" encoding="utf-8"?>
<!-- Generator: Adobe Illustrator 23.0.1, SVG Export Plug-In . SVG Version: 6.00 Build 0)  -->
<svg version="1.1" id="Layer_1" xmlns="http://www.w3.org/2000/svg" xmlns:xlink="http://www.w3.org/1999/xlink" x="0px" y="0px"
	 viewBox="0 0 383.65 154.25" style="enable-background:new 0 0 383.65 154.25;" xml:space="preserve">
<style type="text/css">
	.st0{fill:#7E8082;}
	.st1{fill:none;stroke:#FF0000;stroke-width:8.8862;stroke-linecap:round;stroke-miterlimit:10;}
	.st2{fill:#FF0000;}
	.st3{fill:none;stroke:#FF0000;stroke-width:8.9861;stroke-linecap:round;stroke-miterlimit:10;}
	.st4{fill:#FFFFFF;}
</style>
<g>
	<path class="st0" d="M218.09,66.11c0-0.43-0.12-0.65-0.36-0.86l-3.56-3.02c-0.24-0.32-0.47-0.65-0.47-0.86
		c0-0.32,0.36-0.43,0.71-0.43h11.39c0.35,0,0.59,0.22,0.59,0.65v53.38c0,0.43,0,0.75,0.24,0.97l3.68,3.78
		c0.24,0.21,0.47,0.54,0.47,0.75c0,0.32-0.24,0.43-0.71,0.43h-15.66c-0.36,0-0.71-0.11-0.71-0.43c0-0.22,0.24-0.54,0.47-0.75
		l3.68-3.78c0.24-0.21,0.24-0.54,0.24-0.97V66.11z"/>
	<path class="st0" d="M246.83,64.7h0.24c2.14-2.05,4.15-3.77,8.19-3.77c5.93,0,9.84,3.77,9.84,11v43.03c0,0.43,0,0.75,0.24,0.97
		l3.68,3.78c0.24,0.21,0.47,0.54,0.47,0.75c0,0.32-0.36,0.43-0.71,0.43h-15.66c-0.48,0-0.71-0.11-0.71-0.43
		c0-0.22,0.24-0.54,0.47-0.75l3.68-3.78c0.24-0.21,0.24-0.54,0.24-0.97V71.82c0-4.1-1.3-6.25-4.03-6.25c-2.85,0-5.93,3.56-5.93,9.38
		v40.01c0,0.43,0,0.75,0.12,0.97l3.68,3.78c0.36,0.21,0.59,0.54,0.59,0.75c0,0.32-0.35,0.43-0.71,0.43h-15.66
		c-0.47,0-0.71-0.11-0.71-0.43c0-0.22,0.12-0.54,0.47-0.75l3.68-3.78c0.24-0.21,0.24-0.54,0.24-0.97V66.11
		c0-0.43-0.12-0.65-0.36-0.86l-3.56-3.02c-0.24-0.32-0.47-0.65-0.47-0.86c0-0.32,0.36-0.43,0.71-0.43h11.39
		c0.47,0,0.59,0.22,0.59,0.65V64.7z"/>
	<path class="st0" d="M291.98,45.19c0-0.43-0.12-0.65-0.47-0.86l-3.44-3.13c-0.36-0.22-0.59-0.54-0.59-0.75
		c0-0.32,0.35-0.43,0.83-0.43h11.27c0.48,0,0.71,0.22,0.71,0.65v74.3c0,0.43,0,0.75,0.12,0.97l3.68,3.78
		c0.35,0.21,0.59,0.54,0.59,0.75c0,0.32-0.36,0.43-0.83,0.43h-11.03c-0.47,0-0.83-0.22-0.83-0.43v-3.67h-0.24
		c-2.02,2.16-4.15,4.1-7.95,4.1c-5.22,0-10.67-2.7-10.67-33.11c0-24.05,5.93-26.85,10.79-26.85c3.44,0,5.81,1.73,7.83,3.77h0.24
		V45.19z M291.98,73.65c0-5.28-3.56-8.09-5.22-8.09c-2.97,0-4.39,2.26-4.39,22.21c0,25.99,1.19,28.47,4.27,28.47
		c2.85,0,5.34-3.34,5.34-8.63V73.65z"/>
	<path class="st0" d="M317.32,97.49c0,13.59,2.02,18.76,7.47,18.76c3.92,0,5.81-1.73,8.3-5.07c0.24-0.32,0.48-0.54,0.83-0.54
		c0.36,0,0.47,0.21,0.36,0.65c-1.42,5.18-5.1,9.6-10.91,9.6c-10.79,0-15.3-9.71-15.3-33.86c0-16.39,5.22-26.1,13.52-26.1
		c6.88,0,12.81,4.53,12.81,20.27v6.69c0,0.75-0.24,1.29-1.07,1.29h-16.01V97.49z M326.09,85.08V74.3c0-5.72-1.66-8.73-4.51-8.73
		c-3.09,0-4.27,3.02-4.27,8.73v10.78H326.09z"/>
	<path class="st0" d="M350.82,114.96c0,0.43,0,0.75,0.12,0.97l4.03,3.78c0.36,0.21,0.47,0.54,0.47,0.75c0,0.32-0.24,0.43-0.71,0.43
		h-15.9c-0.47,0-0.71-0.11-0.71-0.43c0-0.22,0.12-0.54,0.47-0.75l3.68-3.78c0.24-0.21,0.24-0.54,0.24-0.97V66.11
		c0-0.43-0.12-0.65-0.48-0.86l-3.44-3.02c-0.36-0.32-0.47-0.65-0.47-0.86c0-0.32,0.24-0.43,0.71-0.43h11.39
		c0.36,0,0.59,0.22,0.59,0.65v3.67h0.24c1.9-2.16,3.92-4.31,6.64-4.31c3.91,0,6.41,5.72,6.41,9.17c0,0.54-0.12,0.97-0.59,0.97
		c-0.47,0-0.71-0.43-0.95-0.97c-1.3-2.91-3.68-4.1-6.17-4.1c-3.44,0-5.58,4.42-5.58,9.92V114.96z"/>
</g>
<path class="st1" d="M176.41,67.65c10,0,18.85,0,28.85,0"/>
<ellipse class="st2" cx="221.09" cy="45.88" rx="5.19" ry="7.09"/>
<path class="st3" d="M217.63,13.57c0,0-5.94,0.66-8.9,1.15c-2.57,0.43-9.4,2.31-14.18,5.28c-6.83,4.24-9.69,8.4-9.56,15.33
	c0.16,9.07,1.15,31.99,1.32,36.77c0.16,4.78,1.65,31,2.47,43.69c0.78,12.07,2.14,23.41,2.14,23.91"/>
<path class="st0" d="M58.01,111.67c0,2.43,1.27,4.17,3.06,4.17c1.53,0,3.18-1.27,3.95-2.43c0.26-0.23,0.51-0.46,0.76-0.46
	c0.26,0,0.51,0.35,0.38,0.7c-0.89,3.24-3.44,7.18-8.79,7.18c-5.35,0-8.28-2.2-8.28-11.7v-46.9c0-0.46,0-1.16-0.38-1.51l-3.69-3.24
	c-0.25-0.23-0.64-0.46-0.64-0.7c0-0.35,0.51-0.7,1.78-0.81c5.6-0.93,6.24-9.73,6.24-14.36c0-0.58,0.38-1.04,1.02-1.04h3.82
	c0.51,0,0.76,0.23,0.76,0.81v13.32c0,0.58,0.13,1.04,1.02,1.04h2.93c0.64,0,0.76,0.81,0,1.39l-2.93,3.01
	c-0.38,0.58-1.02,1.28-1.02,2.09V111.67z"/>
<path class="st0" d="M141.06,65.51c0-0.32-0.12-0.65-0.48-0.75l-3.44-2.48c-0.35-0.32-0.47-0.65-0.47-0.86
	c0-0.32,0.24-0.43,0.71-0.43h11.39c0.35,0,0.59,0.22,0.59,0.65v3.13h0.24c2.02-2.05,4.39-3.77,7.83-3.77
	c5.1,0,10.79,2.8,10.79,26.85c-0.24,30.41-5.69,33.11-10.91,33.11c-3.79,0-5.93-1.94-7.71-4.1h-0.24v12.51c0,0.32,0,0.75,0.12,0.86
	l3.68,3.77c0.36,0.32,0.59,0.54,0.59,0.86c0,0.22-0.35,0.32-0.71,0.32h-15.66c-0.47,0-0.71-0.11-0.71-0.32
	c0-0.32,0.12-0.54,0.47-0.86l3.68-3.77c0.24-0.11,0.24-0.54,0.24-0.86V65.51z M149.37,108.32c0,4.53,3.2,7.98,5.81,7.98
	c2.61,0,3.8-2.48,3.8-28.47c0-19.95-1.42-22.21-4.39-22.21c-1.66,0-5.22,2.8-5.22,8.09V108.32z"/>
<g>
	<g>
		<polygon class="st2" points="87.29,121.38 69.2,103.29 69.2,77.7 87.29,59.6 112.88,59.6 130.97,77.7 130.97,103.29 
			112.88,121.38 		"/>
		<polygon class="st4" points="88.51,118.44 72.14,102.07 72.14,78.92 88.51,62.54 111.66,62.54 128.03,78.92 128.03,102.07 
			111.66,118.44 		"/>
		<polygon class="st2" points="89.19,116.8 73.78,101.39 73.78,79.59 89.19,64.18 110.98,64.18 126.4,79.59 126.4,101.39 
			110.98,116.8 		"/>
	</g>
	<g>
		<ellipse class="st4" cx="92.26" cy="80.9" rx="2.72" ry="4.93"/>
		<ellipse class="st4" cx="105.59" cy="80.9" rx="2.72" ry="4.93"/>
		<path class="st4" d="M99.4,102.57c-6.35,0-11.73-3.19-13.66-7.61c1.01,6.4,6.74,11.31,13.69,11.31c7,0,12.77-4.99,13.71-11.46
			C111.27,99.31,105.82,102.57,99.4,102.57z"/>
	</g>
</g>
<g>
	<path class="st0" d="M39.89,81.64c0,0.44-0.24,0.88-0.73,0.88c-0.36,0-0.6-0.44-0.73-0.99c-0.73-3.4-1.57-6.7-3.62-11.42
		c-1.57-3.51-3.26-5.49-5.56-5.49c-2.54,0-3.02,2.63-3.02,5.93c0,4.61,2.54,10.87,7.37,17.9c4.59,6.7,7.85,14.38,7.85,21.52
		c0,6.81-5.32,10.98-10.39,10.98c-3.38,0-5.44-1.43-7.25-3.51l-3.14,2.96c-0.36,0.22-0.73,0.55-1.21,0.55
		c-0.24,0-0.36-0.33-0.36-0.77V99.1c0-0.33,0.12-0.77,0.48-0.77c0.6,0,0.6,0.44,0.73,0.99c1.93,8.9,4.71,16.91,9.18,16.91
		c2.66,0,3.87-1.87,3.87-4.72c0-6.81-3.87-14.06-7.73-19.77c-4.35-6.59-6.89-13.4-6.89-20.1c0-7.14,4.83-11.75,9.18-11.75
		c2.9,0,5.07,1.32,7.13,3.51l3.5-2.85c0.24-0.22,0.48-0.66,0.85-0.66c0.24,0,0.48,0.55,0.48,1.1V81.64z"/>
</g>
</svg>
