<svg xmlns="http://www.w3.org/2000/svg" viewBox="0 0 418.6 162.1"><defs><style>.cls-1{fill:#7e8083;}.cls-2{fill:#f68a33;}</style></defs><title>Asset 1</title><g id="Layer_2" data-name="Layer 2"><g id="Layer_1-2" data-name="Layer 1"><path class="cls-1" d="M15.7,121.9c0,2.6,1.5,4.5,3.5,4.5a6.5,6.5,0,0,0,4.6-2.6,1.4,1.4,0,0,1,.9-.5.5.5,0,0,1,.4.7c-1,3.6-4,7.9-10.1,7.9s-9.6-2.4-9.6-12.8V67.8A2.5,2.5,0,0,0,5,66.1L.7,62.6c-.3-.3-.7-.5-.7-.8s.6-.7,2.1-.9c6.4-1,7.2-10.6,7.2-15.7a1,1,0,0,1,1.1-1.1h4.5c.5,0,.8.2.8.9V59.5c0,.7.2,1.2,1.2,1.2h3.4c.7,0,.9.9,0,1.5l-3.4,3.3c-.4.6-1.2,1.4-1.2,2.3v54.1Z"/><path class="cls-1" d="M41.6,124.9a4.1,4.1,0,0,0,.1,1.2l5,4.4a.9.9,0,0,1,.6.9c0,.4-.3.5-.9.5H26.7c-.6,0-.8-.1-.8-.5a1,1,0,0,1,.5-.9l4.6-4.4a1.6,1.6,0,0,0,.3-1.2V67.5c0-.5-.2-.7-.6-1L26.4,63a1.5,1.5,0,0,1-.5-1c0-.4.2-.6.8-.6H40.9a.7.7,0,0,1,.7.8v4.3h.3c2.3-2.5,4.8-5.1,8.2-5.1,4.9,0,8,6.8,8,10.8,0,.6-.2,1.2-.8,1.2s-.9-.6-1.2-1.2a8,8,0,0,0-7.6-4.8c-4.3,0-6.9,5.2-6.9,11.7v45.8Z"/><path class="cls-1" d="M93.2,123.3c0,1.6.5,3.1,1.9,3.1a5.2,5.2,0,0,0,4.2-2.1c.3-.3.5-.5.8-.5s.4.2.4.6c-.6,3.7-4,7.5-7.6,7.5s-6.9-2.5-8.7-4.8c-2.3,2.3-6.2,4.8-10.1,4.8-5.8,0-12.8-3.2-12.8-20.5,0-14.2,2.5-18,18.6-29.2,3-2,3-3.1,3-8.3s-1.5-7-6.2-7-10.4,2.9-13.1,5.2a2.1,2.1,0,0,1-1.2.4c-.2,0-.4-.3-.4-.7s8.4-10.3,16.6-10.3c5.3,0,14.6,2.7,14.6,15.8v46ZM82.9,85.8h-.3c-8.1,5.9-10.5,10.4-10.5,23.3,0,14.4,1.7,17.3,4.9,17.3s5.9-3.9,5.9-7.4V85.8Z"/><path class="cls-1" d="M117,65.9h.2c2.7-2.4,5.2-4.5,10.2-4.5,7.3,0,12.2,4.5,12.2,13v50.5a1.6,1.6,0,0,0,.3,1.2l4.5,4.4a1.3,1.3,0,0,1,.6.9c0,.4-.4.5-.9.5H124.7c-.5,0-.8-.1-.8-.5a1.3,1.3,0,0,1,.6-.9l4.5-4.4a1.6,1.6,0,0,0,.3-1.2V74.2c0-4.8-1.6-7.3-5-7.3s-7.3,4.2-7.3,11v47a3.1,3.1,0,0,0,.1,1.1l4.6,4.5a1.2,1.2,0,0,1,.7.9c0,.3-.5.5-.9.5H102.1c-.6,0-.9-.2-.9-.5a1.1,1.1,0,0,1,.6-.9l4.6-4.5c.3-.2.3-.6.3-1.1V67.5a1.2,1.2,0,0,0-.5-1L101.8,63a2.8,2.8,0,0,1-.6-1c0-.4.5-.6.9-.6h14.1c.6,0,.7.3.7.8v3.7Z"/><path class="cls-1" d="M175.3,86.5a.9.9,0,0,1-.9,1c-.4,0-.7-.5-.9-1.1a57.8,57.8,0,0,0-4.4-13.2c-1.9-4-3.9-6.3-6.7-6.3s-3.7,3-3.7,6.8c0,5.3,3.1,12.6,9,20.7s9.5,16.6,9.5,24.8a12.6,12.6,0,0,1-12.6,12.7,11.1,11.1,0,0,1-8.8-4.1l-3.9,3.4a2.3,2.3,0,0,1-1.4.7c-.3,0-.5-.4-.5-.9V106.7c0-.4.2-.9.6-.9s.7.5.9,1.1c2.3,10.3,5.7,19.5,11.2,19.5,3.2,0,4.7-2.1,4.7-5.4,0-7.9-4.7-16.3-9.5-22.8s-8.3-15.5-8.3-23.2,5.8-13.6,11.1-13.6c3.6,0,6.2,1.5,8.7,4.1l4.3-3.3c.3-.3.6-.8,1-.8s.6.7.6,1.3V86.5Z"/><path class="cls-1" d="M240.1,67.5a1.5,1.5,0,0,0-.4-1L235.2,63a4.5,4.5,0,0,1-.5-1c0-.4.4-.6.8-.6h14.1a.7.7,0,0,1,.8.8v62.7a1.6,1.6,0,0,0,.3,1.2l4.5,4.4a1.3,1.3,0,0,1,.6.9c0,.4-.3.5-.9.5H235.5c-.4,0-.8-.1-.8-.5a1.2,1.2,0,0,1,.5-.9l4.6-4.4a1.6,1.6,0,0,0,.3-1.2V67.5Z"/><path class="cls-1" d="M240.1,67.5a1.5,1.5,0,0,0-.4-1L235.2,63a4.5,4.5,0,0,1-.5-1c0-.4.4-.6.8-.6h14.1a.7.7,0,0,1,.8.8v62.7a1.6,1.6,0,0,0,.3,1.2l4.5,4.4a1.3,1.3,0,0,1,.6.9c0,.4-.3.5-.9.5H235.5c-.4,0-.8-.1-.8-.5a1.2,1.2,0,0,1,.5-.9l4.6-4.4a1.6,1.6,0,0,0,.3-1.2V67.5Z"/><path class="cls-1" d="M273,65.9h.3c2.7-2.4,5.2-4.5,10.2-4.5,7.3,0,12.2,4.5,12.2,13v50.5a2.2,2.2,0,0,0,.2,1.2l4.6,4.4a1.3,1.3,0,0,1,.6.9c0,.4-.4.5-.9.5H280.8c-.6,0-.9-.1-.9-.5a1.3,1.3,0,0,1,.6-.9l4.6-4.4a1.6,1.6,0,0,0,.3-1.2V74.2c0-4.8-1.6-7.3-5-7.3s-7.4,4.2-7.4,11v47c0,.5,0,.9.2,1.1l4.5,4.5a1.2,1.2,0,0,1,.8.9c0,.3-.5.5-.9.5H258.2c-.6,0-.9-.2-.9-.5a1.1,1.1,0,0,1,.6-.9l4.6-4.5c.2-.2.2-.6.2-1.1V67.5a1.2,1.2,0,0,0-.4-1L257.9,63a2.8,2.8,0,0,1-.6-1c0-.4.4-.6.9-.6h14.1c.6,0,.7.3.7.8v3.7Z"/><path class="cls-1" d="M329,42.9a1,1,0,0,0-.6-1l-4.2-3.6c-.5-.3-.8-.7-.8-.9s.5-.5,1-.5h14c.6,0,.9.2.9.7v87.3a4.1,4.1,0,0,0,.1,1.2l4.6,4.4a1.2,1.2,0,0,1,.7.9c0,.4-.4.5-1,.5H330c-.6,0-1-.3-1-.5v-4.3h-.3c-2.5,2.5-5.1,4.8-9.8,4.8-6.5,0-13.3-3.2-13.3-38.9,0-28.3,7.4-31.6,13.4-31.6,4.3,0,7.2,2.1,9.7,4.5h.3v-23Zm0,33.5c0-6.2-4.4-9.5-6.4-9.5-3.7,0-5.5,2.7-5.5,26.1,0,30.5,1.5,33.4,5.3,33.4s6.6-3.9,6.6-10.1Z"/><path class="cls-1" d="M360.7,104.4c0,16,2.5,22,9.3,22,4.9,0,7.2-2,10.3-5.9a1.2,1.2,0,0,1,1-.6c.5,0,.6.2.5.7-1.8,6.1-6.4,11.3-13.5,11.3-13.4,0-19-11.4-19-39.8,0-19.2,6.5-30.6,16.7-30.6,8.6,0,15.9,5.3,15.9,23.8v7.8c0,.9-.3,1.5-1.3,1.5H360.7Zm10.9-14.6V77.2c0-6.8-2-10.3-5.6-10.3s-5.2,3.5-5.2,10.3V89.8Z"/><path class="cls-1" d="M402.2,124.9a4.1,4.1,0,0,0,.1,1.2l5,4.4a.9.9,0,0,1,.6.9c0,.4-.3.5-.9.5H387.4c-.6,0-.9-.1-.9-.5a.9.9,0,0,1,.6-.9l4.5-4.4a1.6,1.6,0,0,0,.3-1.2V67.5a1,1,0,0,0-.6-1L387.1,63a1.4,1.4,0,0,1-.6-1q0-.6.9-.6h14a.7.7,0,0,1,.8.8v4.3h.3c2.3-2.5,4.8-5.1,8.2-5.1,4.9,0,7.9,6.8,7.9,10.8,0,.6-.1,1.2-.7,1.2s-.9-.6-1.2-1.2a8,8,0,0,0-7.6-4.8c-4.3,0-6.9,5.2-6.9,11.7v45.8Z"/><path class="cls-2" d="M242.8,0c-7-.3-29.3,1.3-40.3,12.1a20.2,20.2,0,0,0-6.4,15.1c.1,2.3.4,17.8,1,37.4l-8,.2a5.3,5.3,0,0,0-5.1,5.4,5.3,5.3,0,0,0,5.4,5.1l8.1-.2c1.1,35.5,2.7,78.4,4.2,83.3a5.2,5.2,0,0,0,6.4,3.6,5.4,5.4,0,0,0,3.7-6.5h0c-1.1-4.5-2.7-45.6-3.8-80.7l16.2-.4a5.4,5.4,0,0,0,5.2-5.4A5.3,5.3,0,0,0,224,64l-16.4.4c-.5-16.8-.9-31-1-37.3a9.8,9.8,0,0,1,3.3-7.5c7.6-7.5,25.5-9.4,32.5-9.1a5.2,5.2,0,0,0,5.4-5A5.3,5.3,0,0,0,242.8,0Z"/><path class="cls-2" d="M239.7,43.6c0-3.4,2.3-6.7,5.4-6.7s5.3,3.3,5.3,6.7-2.4,6.7-5.3,6.7-5.4-3.4-5.4-6.7"/></g></g></svg>