<svg xmlns="http://www.w3.org/2000/svg" viewBox="0 0 325 100"><defs><style>.a{fill:#8d53a0;}.b{fill:#6f7271;}</style></defs><title>Artboard 1</title><path class="a" d="M52.32,26.73A22.63,22.63,0,0,0,37.75,9a22.09,22.09,0,0,0-11-1.07,22.45,22.45,0,0,0-7.46,41.85,23.06,23.06,0,0,0,3.24,1.48h0a22.06,22.06,0,0,0,11,1.07,22.47,22.47,0,0,0,18.8-25.6m-7,14.56a18.89,18.89,0,0,1-31.21-1.18l2.35-4.89c1.51,3.42,2.12,3.54,3.09,3.45a1.74,1.74,0,0,0,1.54-1.46,48.85,48.85,0,0,1,2.66-5.29l2,14.93a1.65,1.65,0,0,0,1.06,1.31,2.71,2.71,0,0,0,.41.09,1.63,1.63,0,0,0,1.69-1.12l3.86-12,2.88,5.55a1.63,1.63,0,0,0,3-.42l3.11-15,1.45,1.29L41.68,18,36.8,25.23l1.84-.61L36.45,35.17l-2.57-4.94a1.62,1.62,0,0,0-3,.25L28,39.32,26.32,26.66a1.63,1.63,0,0,0-3-.59c-1.18,2.06-2.86,5.06-4,7.38-.38-.89-.8-1.9-1.15-2.83a1.66,1.66,0,0,0-1.46-1,1.64,1.64,0,0,0-1.53.92l-2.79,5.84a18.83,18.83,0,0,1,15-24.85,18.44,18.44,0,0,1,9.24.89,19.15,19.15,0,0,1,2.73,1.25,18.85,18.85,0,0,1,6.08,27.66"/><path class="a" d="M73.14,87.8l0,0a.14.14,0,0,0,0-.06s0-.1,0-.15h0c-.17-.46-.38-.9-.55-1.29L55.05,58.62a1.86,1.86,0,0,0-2.51-.69l-.45.24L50.86,56l1.89-1a1.83,1.83,0,0,0,.91-1.16,1.87,1.87,0,0,0-.22-1.46l-1.13-1.82a30.27,30.27,0,0,0,4.24-34.85A29.93,29.93,0,0,0,34.8.38,30.67,30.67,0,0,0,30,0,29.72,29.72,0,0,0,15.65,3.7a30.12,30.12,0,0,0,9.79,56.18,31.32,31.32,0,0,0,9.53.27l1.22,2a1.86,1.86,0,0,0,2.51.63l1.86-1.07,1.21,2.14-.06,0a1.89,1.89,0,0,0-.76,2.5l9.67,19h0l1.17,2.25a1.67,1.67,0,0,0,.18.28c1.29,2.34,3.52,5.55,6.34,6.32a5.15,5.15,0,0,0,1.5.19,5.28,5.28,0,0,0,3-1.12,1.87,1.87,0,0,0-2.24-3,2,2,0,0,1-1.57.39c-1.83-.51-3.52-4.22-4.82-6.73,0-.08-.1-.16-.15-.24L45.39,66.65l.11-.05L53,62.51,69.12,87.9a12.76,12.76,0,0,1,.58,1.25c.75,2,1.21,3.65.57,4.62-.33.51-1.44,1.41-5.16,1.76l-.41,0q-7.73.74-11.71,3h0a2.32,2.32,0,0,1-.07.46h0c2,1.36,5.29.95,8.09.7,1.18-.21,2.52-.39,4-.53l.43,0c4.09-.39,6.59-1.47,7.86-3.39C74.93,93.35,74,90.4,73.14,87.8ZM46.76,56.3,48.83,60h0L45.05,62h0l-2.1-3.7a1.85,1.85,0,0,0-1.13-.88,1.73,1.73,0,0,0-.5-.07,1.8,1.8,0,0,0-.93.25l-1.93,1.11-1-1.53a1.88,1.88,0,0,0-2-.84,18.22,18.22,0,0,1-4.13.46A33.94,33.94,0,0,1,26,56.31,26.51,26.51,0,0,1,17.38,6.85,26.11,26.11,0,0,1,30,3.59a27.14,27.14,0,0,1,4.21.33A26.36,26.36,0,0,1,53.39,17.38,26.63,26.63,0,0,1,48.74,49a1.86,1.86,0,0,0-.27,2.32l.86,1.39-1.84,1a1.87,1.87,0,0,0-.9,1.14A1.83,1.83,0,0,0,46.76,56.3Z"/><path class="b" d="M107.53,79c-.09.71-.35,1.43-1,1.43h-2.47c-.71,0-1-.72-1.06-1.19L96.67,40.71a2.27,2.27,0,0,0-.7-1.43l-1.86-1.9a1.5,1.5,0,0,1-.35-.63c0-.24.18-.31.53-.31h10.15c.27,0,.53.07.53.23a.78.78,0,0,1-.35.63l-2.21,2.3a1.49,1.49,0,0,0-.35,1.26l3.62,22h.17l3.18-22a1.31,1.31,0,0,0-.35-1.26l-2.3-2.3c-.17-.23-.35-.39-.35-.63s.27-.23.53-.23h9.18c.27,0,.53.07.53.31a1.08,1.08,0,0,1-.44.63l-2.12,1.9a2.28,2.28,0,0,0-.71,1.43Z"/><path class="b" d="M122.1,40.23a.72.72,0,0,0-.27-.63l-2.64-2.22a1.43,1.43,0,0,1-.36-.63c0-.24.27-.31.53-.31h8.48a.41.41,0,0,1,.44.47V76.07c0,.31,0,.55.18.71l2.73,2.77a1,1,0,0,1,.36.55c0,.24-.18.32-.53.32H119.36c-.26,0-.53-.08-.53-.32a1,1,0,0,1,.36-.55l2.73-2.77c.18-.16.18-.4.18-.71Zm6.18-14.95c0,2.06-1.41,4.19-3.18,4.19s-3.27-2.13-3.27-4.19,1.42-4.19,3.27-4.19,3.18,2.05,3.18,4.19"/><path class="b" d="M139.6,63.25c0,10,1.51,13.77,5.57,13.77,2.91,0,4.32-1.27,6.18-3.72a.76.76,0,0,1,.62-.4c.26,0,.35.16.26.48-1.06,3.79-3.8,7-8.12,7-8,0-11.39-7.12-11.39-24.84,0-12,3.88-19.14,10.06-19.14,5.12,0,9.54,3.32,9.54,14.87v4.9c0,.56-.18.95-.8.95H139.6Zm6.54-9.1V46.24c0-4.19-1.24-6.41-3.36-6.41-2.29,0-3.18,2.22-3.18,6.41v7.91Z"/><path class="b" d="M156.44,40.71a2.28,2.28,0,0,0-.71-1.43l-1.86-1.9a1.5,1.5,0,0,1-.35-.63c0-.24.18-.31.53-.31h10c.26,0,.53.07.53.31a1.43,1.43,0,0,1-.36.63l-1.85,1.9a2.12,2.12,0,0,0-.53,1.5l3.62,22.08h.18l3.09-21a3,3,0,0,0-.89-2.21L166,37.38a1.39,1.39,0,0,1-.35-.63c0-.24.26-.31.53-.31h9.27c.35,0,.61.07.61.31s-.26.4-.35.63l-2.12,2.38a2.79,2.79,0,0,0-.88,2.13l3.53,21h.18l3.18-22.47a1.32,1.32,0,0,0-.27-1.19l-1.85-1.82c-.09-.23-.36-.47-.36-.63s.27-.31.62-.31h8.57c.35,0,.52.07.52.31a1.39,1.39,0,0,1-.35.63l-2.12,2a3.32,3.32,0,0,0-.88,2l-5.39,38c-.08.71-.52,1.11-1,1.11h-1.76c-.62,0-.8-.56-.88-.87l-4.24-25H170l-3.62,24.76c-.09.55-.35,1.11-.7,1.11h-1.86a1.1,1.1,0,0,1-1.06-.87Z"/><path class="b" d="M221.06,40.23a.72.72,0,0,0-.27-.63l-2.65-2.22a1.5,1.5,0,0,1-.35-.63c0-.24.27-.31.53-.31h8.48a.41.41,0,0,1,.44.47V76.07c0,.31,0,.55.17.71l2.74,2.77a1,1,0,0,1,.35.55c0,.24-.17.32-.53.32H218.32c-.26,0-.53-.08-.53-.32a1,1,0,0,1,.35-.55l2.74-2.77c.18-.16.18-.4.18-.71Z"/><path class="a" d="M227.24,25.28c0,2.06-1.41,4.19-3.18,4.19s-3.27-2.13-3.27-4.19,1.42-4.19,3.27-4.19,3.18,2.05,3.18,4.19"/><path class="b" d="M240.83,39.2H241c1.59-1.5,3.09-2.76,6.09-2.76,4.42,0,7.33,2.76,7.33,8.06V76.07c0,.31,0,.55.18.71l2.73,2.77a1,1,0,0,1,.36.55c0,.24-.27.32-.53.32H245.51c-.35,0-.53-.08-.53-.32a1,1,0,0,1,.36-.55l2.73-2.77c.18-.16.18-.4.18-.71V44.42c0-3-1-4.59-3-4.59s-4.42,2.62-4.42,6.89V76.07a1.57,1.57,0,0,0,.09.71l2.74,2.77a.83.83,0,0,1,.44.55c0,.24-.26.32-.53.32H231.92c-.35,0-.53-.08-.53-.32a.67.67,0,0,1,.35-.55l2.74-2.77c.17-.16.17-.4.17-.71V40.23a.72.72,0,0,0-.26-.63l-2.65-2.22a1.5,1.5,0,0,1-.35-.63c0-.24.26-.31.53-.31h8.47c.36,0,.44.15.44.47Z"/><path class="b" d="M272.81,24.88a.63.63,0,0,0-.36-.63L269.9,22a.83.83,0,0,1-.45-.56c0-.23.27-.31.62-.31h8.39c.35,0,.53.16.53.47V76.07a1.57,1.57,0,0,0,.09.71l2.73,2.77a.78.78,0,0,1,.44.55c0,.24-.26.32-.61.32h-8.21c-.36,0-.62-.16-.62-.32V77.41h-.18c-1.5,1.58-3.09,3-5.91,3-3.89,0-8-2-8-24.29,0-17.64,4.41-19.69,8-19.69a8,8,0,0,1,5.83,2.76h.18Zm0,20.89c0-3.88-2.65-5.94-3.89-5.94-2.2,0-3.26,1.67-3.26,16.3,0,19.07.88,20.89,3.17,20.89,2.12,0,4-2.46,4-6.33Z"/><path class="b" d="M290.21,63.25c0,10,1.51,13.77,5.57,13.77,2.91,0,4.32-1.27,6.18-3.72a.75.75,0,0,1,.61-.4q.4,0,.27.48c-1.06,3.79-3.8,7-8.12,7-8,0-11.39-7.12-11.39-24.84,0-12,3.88-19.14,10.06-19.14,5.12,0,9.54,3.32,9.54,14.87v4.9c0,.56-.18.95-.8.95H290.21Zm6.54-9.1V46.24c0-4.19-1.24-6.41-3.36-6.41-2.29,0-3.18,2.22-3.18,6.41v7.91Z"/><path class="b" d="M315.11,76.07a1.57,1.57,0,0,0,.09.71l3,2.77a.66.66,0,0,1,.36.55c0,.24-.18.32-.53.32H306.19c-.35,0-.52-.08-.52-.32a.65.65,0,0,1,.35-.55l2.74-2.77c.17-.16.17-.4.17-.71V40.23a.62.62,0,0,0-.35-.63L306,37.38a.86.86,0,0,1-.35-.63c0-.24.17-.31.52-.31h8.48a.41.41,0,0,1,.44.47V39.6h.18c1.41-1.58,2.91-3.16,4.94-3.16,2.92,0,4.77,4.19,4.77,6.72,0,.39-.09.71-.44.71s-.53-.32-.71-.71a4.82,4.82,0,0,0-4.59-3c-2.56,0-4.15,3.24-4.15,7.28Z"/><path class="a" d="M233.19,3.28c0-1-3.16-3.81-9.63-3.19l-.72.07c-18.5,1.73-27.79,7.33-27.63,16.64,0,1.86,0,5.47,0,10.18s0,8.92,0,13l-4.4.1a3.18,3.18,0,0,0,.15,6.36l4.28-.1c.28,48.65,2.11,52.09,5.13,53.43a3.13,3.13,0,0,0,1.29.28,3.18,3.18,0,0,0,2.24-5.45c-1.73-4.36-2.19-29-2.3-48.41l10.92-.26a3.18,3.18,0,0,0-.08-6.35h-.07l-10.8.25c0-5.16,0-9.63,0-12.79,0-4.76,0-8.41,0-10.3-.06-3.71,3.68-8.5,21.87-10.2l.74-.08c7.14-.68,6.81.21,9-3.13"/></svg>