<?xml version="1.0" encoding="UTF-8"?>
<svg xmlns="http://www.w3.org/2000/svg" xmlns:xlink="http://www.w3.org/1999/xlink" viewBox="0 0 50 50" width="50px" height="50px">
<g id="surface142977001">
<path style="fill-rule:nonzero;fill:rgb(0%,0%,0%);fill-opacity:1;stroke-width:5;stroke-linecap:butt;stroke-linejoin:round;stroke:rgb(0%,0%,0%);stroke-opacity:1;stroke-miterlimit:10;" d="M 165.117726 86.000001 C 165.117726 129.654101 129.654101 165.117726 86.000001 165.117726 C 42.3459 165.117726 6.882275 129.654101 6.882275 86.000001 C 6.882275 42.3459 42.3459 6.882275 86.000001 6.882275 C 129.654101 6.882275 165.117726 42.3459 165.117726 86.000001 Z M 13.76455 86.000001 C 13.76455 125.942792 46.057209 158.235451 86.000001 158.235451 C 125.942792 158.235451 158.235451 125.942792 158.235451 86.000001 C 158.235451 46.057209 125.942792 13.76455 86.000001 13.76455 C 46.057209 13.76455 13.76455 46.057209 13.76455 86.000001 Z M 105.18221 55.043982 L 105.18221 61.997355 L 74.539022 61.997355 L 74.539022 81.862104 L 103.589617 81.862104 L 103.589617 88.730159 L 74.539022 88.730159 L 74.539022 110.002646 L 105.18221 110.002646 L 105.18221 116.956019 L 66.817791 116.956019 L 66.817791 55.043982 Z M 105.18221 55.043982 " transform="matrix(0.274709,0,0,0.274709,1.375,1.375)"/>
<path style=" stroke:none;fill-rule:nonzero;fill:rgb(0%,0%,0%);fill-opacity:1;" d="M 25 3.265625 C 13.007812 3.265625 3.265625 13.007812 3.265625 25 C 3.265625 36.992188 13.007812 46.734375 25 46.734375 C 36.992188 46.734375 46.734375 36.992188 46.734375 25 C 46.734375 13.007812 36.992188 3.265625 25 3.265625 Z M 25 5.15625 C 35.972656 5.15625 44.84375 14.027344 44.84375 25 C 44.84375 35.972656 35.972656 44.84375 25 44.84375 C 14.027344 44.84375 5.15625 35.972656 5.15625 25 C 5.15625 14.027344 14.027344 5.15625 25 5.15625 Z M 19.730469 16.496094 L 19.730469 33.503906 L 30.269531 33.503906 L 30.269531 31.59375 L 21.851562 31.59375 L 21.851562 25.75 L 29.832031 25.75 L 29.832031 23.863281 L 21.851562 23.863281 L 21.851562 18.40625 L 30.269531 18.40625 L 30.269531 16.496094 Z M 19.730469 16.496094 "/>
</g>
</svg>
