<?xml version="1.0" encoding="UTF-8"?>
<svg xmlns="http://www.w3.org/2000/svg" xmlns:xlink="http://www.w3.org/1999/xlink" width="480pt" height="480pt" viewBox="0 0 480 480" version="1.1">
<g id="surface5301425">
<path style=" stroke:none;fill-rule:nonzero;fill:rgb(100%,100%,100%);fill-opacity:1;" d="M 225 15 C 109.019531 15 15 109.019531 15 225 C 15 340.980469 109.019531 435 225 435 C 340.980469 435 435 340.980469 435 225 C 435 109.019531 340.980469 15 225 15 Z M 225 15 "/>
<path style=" stroke:none;fill-rule:nonzero;fill:rgb(0%,0%,0%);fill-opacity:1;" d="M 225 30 C 333 30 420 117 420 225 C 420 333 333 420 225 420 C 117 420 30 333 30 225 C 30 117 117 30 225 30 M 225 0 C 102 0 0 102 0 225 C 0 348 102 450 225 450 C 348 450 450 348 450 225 C 450 102 348 0 225 0 Z M 225 0 "/>
<path style=" stroke:none;fill-rule:nonzero;fill:rgb(0%,0%,0%);fill-opacity:1;" d="M 225 195 C 208.429688 195 195 208.429688 195 225 C 195 241.570312 208.429688 255 225 255 C 241.570312 255 255 241.570312 255 225 C 255 208.429688 241.570312 195 225 195 Z M 225 195 "/>
<path style=" stroke:none;fill-rule:nonzero;fill:rgb(0%,0%,0%);fill-opacity:1;" d="M 165 324 L 141 303 L 207 222 L 156 81 L 183 69 L 243 228 Z M 165 324 "/>
<path style=" stroke:none;fill-rule:nonzero;fill:rgb(100%,100%,100%);fill-opacity:1;" d="M 423 120 L 360 120 L 360 210 L 450 210 C 447 177 438 147 423 120 Z M 423 120 "/>
<path style=" stroke:none;fill-rule:nonzero;fill:rgb(0%,0%,0%);fill-opacity:1;" d="M 450 150 L 330 150 L 450 30 Z M 450 150 "/>
</g>
</svg>
