<?xml version="1.0" encoding="UTF-8"?>
<svg xmlns="http://www.w3.org/2000/svg" xmlns:xlink="http://www.w3.org/1999/xlink" viewBox="0 0 50 50" version="1.1" width="500px" height="500px">
<g id="surface1">
<path style=" " d="M 29.21875 0 C 28.667969 0.078125 28.28125 0.589844 28.359375 1.140625 C 28.4375 1.691406 28.949219 2.078125 29.5 2 C 38.664063 2 46 9.335938 46 18.5 C 45.996094 18.859375 46.183594 19.195313 46.496094 19.378906 C 46.808594 19.558594 47.191406 19.558594 47.503906 19.378906 C 47.816406 19.195313 48.003906 18.859375 48 18.5 C 48 8.265625 39.734375 0 29.5 0 C 29.46875 0 29.4375 0 29.40625 0 C 29.375 0 29.34375 0 29.3125 0 C 29.28125 0 29.25 0 29.21875 0 Z M 29.21875 7 C 28.667969 7.078125 28.28125 7.589844 28.359375 8.140625 C 28.4375 8.691406 28.949219 9.078125 29.5 9 C 34.761719 9 39 13.238281 39 18.5 C 38.996094 18.859375 39.183594 19.195313 39.496094 19.378906 C 39.808594 19.558594 40.191406 19.558594 40.503906 19.378906 C 40.816406 19.195313 41.003906 18.859375 41 18.5 C 41 12.160156 35.839844 7 29.5 7 C 29.46875 7 29.4375 7 29.40625 7 C 29.375 7 29.34375 7 29.3125 7 C 29.28125 7 29.25 7 29.21875 7 Z M 8.6875 9.6875 C 8.460938 9.71875 8.25 9.832031 8.09375 10 C 6.066406 12.082031 3.667969 16.042969 3.125 21.03125 C 2.597656 25.902344 3.960938 31.71875 9.21875 37.28125 L 2.59375 44 L 1 44 C 0.96875 44 0.9375 44 0.90625 44 C 0.875 44 0.84375 44 0.8125 44 C 0.335938 44.089844 -0.0078125 44.511719 0 45 L 0 49 C 0 49.550781 0.449219 50 1 50 L 17 50 C 17.550781 50 18 49.550781 18 49 L 18 45.0625 C 18 45.042969 18 45.019531 18 45 L 18 43.0625 C 20.644531 43.941406 23.265625 44.175781 25.6875 43.96875 C 30.722656 43.535156 34.867188 41.351563 37 39.21875 C 37.195313 39.03125 37.304688 38.769531 37.304688 38.5 C 37.304688 38.230469 37.195313 37.96875 37 37.78125 L 27.09375 27.78125 L 28.375 22.84375 C 28.734375 22.9375 29.109375 23 29.5 23 C 31.972656 23 34 20.972656 34 18.5 C 34 16.027344 31.972656 14 29.5 14 C 27.027344 14 25 16.027344 25 18.5 C 25 18.511719 25 18.519531 25 18.53125 L 19.3125 19.90625 L 9.5 10 C 9.3125 9.800781 9.054688 9.691406 8.78125 9.6875 C 8.75 9.6875 8.71875 9.6875 8.6875 9.6875 Z M 8.9375 12.28125 L 34.71875 38.34375 C 32.816406 39.890625 29.539063 41.621094 25.5 41.96875 C 23.042969 42.179688 20.390625 41.921875 17.71875 40.875 C 17.707031 40.863281 17.699219 40.855469 17.6875 40.84375 C 17.667969 40.835938 17.644531 40.820313 17.625 40.8125 C 17.472656 40.6875 17.289063 40.613281 17.09375 40.59375 C 15.210938 39.765625 13.320313 38.5625 11.5 36.8125 C 11.492188 36.792969 11.480469 36.769531 11.46875 36.75 C 11.457031 36.738281 11.449219 36.730469 11.4375 36.71875 C 11.34375 36.574219 11.214844 36.457031 11.0625 36.375 C 11.042969 36.355469 11.019531 36.332031 11 36.3125 C 5.78125 31 4.609375 25.710938 5.09375 21.25 C 5.523438 17.289063 7.363281 14.183594 8.9375 12.28125 Z M 29.5 16 C 30.890625 16 32 17.109375 32 18.5 C 32 19.890625 30.890625 21 29.5 21 C 29.054688 21 28.640625 20.886719 28.28125 20.6875 C 28.207031 20.625 28.121094 20.570313 28.03125 20.53125 C 27.625 20.242188 27.328125 19.824219 27.15625 19.34375 C 27.164063 19.160156 27.121094 18.976563 27.03125 18.8125 C 27.019531 18.707031 27 18.609375 27 18.5 C 27 17.109375 28.109375 16 29.5 16 Z M 25.46875 20.46875 C 25.734375 21.007813 26.113281 21.484375 26.5625 21.875 L 25.46875 26.125 L 20.9375 21.5625 Z M 10.625 38.6875 C 12.359375 40.261719 14.183594 41.410156 16 42.25 L 16 44 L 5.375 44 Z M 2 46 L 16 46 L 16 48 L 2 48 Z "/>
</g>
</svg>
